{
.appVersion = "3135";
.formatVersion = 3;
axes = (
{
name = Width;
tag = wdth;
}
);
customParameters = (
{
disabled = 1;
name = vendorID;
value = "";
},
{
name = panose;
value = (
3,
0,
5,
2,
3,
0,
0,
0,
0,
0
);
},
{
name = unicodeRanges;
value = (
0,
1,
31,
33
);
},
{
name = codePageRanges;
value = (
"1252"
);
},
{
name = fsType;
value = (
);
},
{
disabled = 1;
name = blueScale;
value = 0.03333;
},
{
disabled = 1;
name = blueShift;
value = 1;
},
{
name = glyphOrder;
value = (
.notdef,
space,
exclam,
uni0022,
numbersign,
dollar,
percent,
ampersand,
quotesingle,
parenleft,
parenright,
asterisk,
plus,
comma,
hyphen,
period,
slash,
zero,
one,
two,
three,
four,
five,
six,
seven,
eight,
nine,
colon,
semicolon,
less,
equal,
greater,
question,
at,
A,
B,
C,
D,
E,
F,
G,
H,
I,
J,
K,
L,
M,
N,
O,
P,
Q,
R,
S,
T,
U,
V,
W,
X,
Y,
Z,
bracketleft,
bracketright,
asciicircum,
underscore,
grave,
a,
b,
c,
d,
e,
f,
g,
h,
i,
j,
k,
l,
m,
n,
o,
p,
q,
r,
s,
t,
u,
v,
w,
x,
y,
z,
braceleft,
bar,
braceright,
asciitilde,
quoteleft,
quoteright,
euro,
exclamdown,
cent,
sterling,
dieresis,
copyright,
registered,
degree,
acute,
ordmasculine,
questiondown,
Agrave,
Aacute,
Acircumflex,
Adieresis,
Ccedilla,
Egrave,
Eacute,
Ecircumflex,
Edieresis,
Igrave,
Iacute,
Icircumflex,
Idieresis,
Ntilde,
Ograve,
Oacute,
Ocircumflex,
Odieresis,
Ugrave,
Uacute,
Ucircumflex,
Udieresis,
agrave,
aacute,
acircumflex,
adieresis,
ccedilla,
egrave,
eacute,
ecircumflex,
edieresis,
igrave,
iacute,
icircumflex,
idieresis,
ntilde,
ograve,
oacute,
ocircumflex,
odieresis,
ugrave,
uacute,
ucircumflex,
udieresis
);
},
{
name = "Use Typo Metrics";
value = 1;
}
);
date = "2024-09-16 20:00:00 +0000";
familyName = "YuyuMid";
fontMaster = (
{
axesValues = (
0
);
customParameters = (
{
name = typoAscender;
value = 930;
},
{
name = typoDescender;
value = -200;
},
{
name = typoLineGap;
value = 0;
},
{
name = winAscent;
value = 930;
},
{
name = winDescent;
value = 200;
},
{
name = hheaAscender;
value = 930;
},
{
name = hheaDescender;

glyphs = (
{
glyphname = .notdef;
lastChange = "2026-04-28 12:49:43 +0000";
layers = (
{
layerId = m01;
shapes = (
{
closed = 1;
nodes = (
(501,0,l),
(501,692,l),
(106,692,l),
(106,0,l)
);
},
{
closed = 1;
nodes = (
(171,632,l),
(441,632,l),
(441,64,l),
(171,64,l)
);
}
);
width = 600;
}
);
},
{
glyphname = exclam;
lastChange = "2026-04-28 12:49:43 +0000";
layers = (
{
hints = (
{
horizontal = 1;
place = (19.38, 71.08);
place = (19.38, 71.08);
type = Stem;
},
{
place = (54.88, 47.28);
place = (54.88, 47.28);
type = Stem;
},
{
place = (49.71, 84.34);
place = (49.71, 84.34);
type = Stem;
}
);
layerId = m01;
shapes = (
{
closed = 1;
nodes = (
(128,111,o),
(169,115,o),
(168,173,cs),
(163,535,o),
(165,393,o),
(165,703,cs),
(165,738,o),
(122,740,o),
(118,701,c),
(116,603,o),
(112,264,o),
(120,168,c)
);
},
{
closed = 1;
nodes = (
(192,-1,o),
(188,33,o),
(188,48,cs),
(188,72,o),
(169,84,o),
(130,84,cs),
(86,84,o),
(89,-1,o),
(143,-1,cs)
);
}
);
width = 298;
}
);
note = exclam;
unicode = 33;
},
{
glyphname = numbersign;
lastChange = "2026-04-28 12:49:43 +0000";
layers = (
{
hints = (
{
horizontal = 1;
place = (47.44, 53.56);
place = (47.44, 53.56);
type = Stem;
},
{
horizontal = 1;
place = (144, 51);
place = (144, 51);
type = Stem;
},
{
place = (442.91, 57.09);
place = (442.91, 57.09);
type = Stem;
},
{
horizontal = 1;
place = (149.67, 54.08);
place = (149.67, 54.08);
type = Stem;
},
{
place = (257.69, 53.31);
place = (257.69, 53.31);
type = Stem;
},
{
place = (422, 47);
place = (422, 47);
type = Stem;
},
{
place = (211.91, 63.09);
place = (211.91, 63.09);
type = Stem;
},
{
place = (404.68, 60.32);
place = (404.68, 60.32);
type = Stem;
}
);
layerId = m01;
shapes = (
{
closed = 1;
nodes = (
(255,-19,o),
(306,-8,o),
(315,31,cs),
(326,82,o),
(340,78,o),
(384,78,cs),
(430,78,o),
(426,133,o),
(350,134,c),
(350,185,o),
(355,173,o),
(403,173,c),
(436,193,o),
(442,202,o),
(411,224,cs),
(401,231,o),
(387,231,o),
(371,234,c),
(384,284,o),
(487,643,o),
(487,648,cs),
(487,683,o),
(444,679,o),
(435,645,cs),
(395,505,o),
(357,393,o),
(317,253,cs),
(315,245,o),
(315,233,o),
(244,233,cs),
(189,233,l),
(194,249,o),
(197,262,o),
(201,275,cs),
(237,396,o),
(319,635,o),
(319,648,cs),
(319,651,ls),
(319,694,o),
(280,685,o),
(272,659,cs),
(225,514,o),
(180,397,o),
(134,251,cs),
(130,241,o),
(118,231,o),
(108,226,cs),
(61,202,o),
(85,185,o),
(108,159,cs),
(139,123,o),
(69,148,o),
(60,100,cs),
(59,91,o),
(89,74,o),
(85,65,cs),
(48,-22,o),
(128,-10,o),
(128,40,cs),
(128,52,o),
(136,76,o),
(148,76,cs),
(273,76,l),
(260,49,o),
(259,67,o),
(255,28,c)
);
},
{
closed = 1;
nodes = (
(161,204,o),
(238,180,o),
(291,180,c),
(295,147,o),
(297,130,o),
(254,130,cs),
(161,130,l)
);
}
);
width = 548;
}
);
note = numbersign;
unicode = 35;
},
{
glyphname = dollar;
lastChange = "2026-04-28 12:49:43 +0000";
layers = (
{
hints = (
{
horizontal = 1;
place = (587, 53);
place = (587, 53);
type = Stem;
},
{
place = (158, 105.9);
place = (158, 105.9);
type = Stem;
},
{
place = (154.67, 60.33);
place = (154.67, 60.33);
type = Stem;
},
{
place = (169.08, 60.54);
place = (169.08, 60.54);
type = Stem;
},
{
place = (132.7, 100.3);
place = (132.7, 100.3);
type = Stem;
},
{
place = (179, 54.25);
place = (179, 54.25);
type = Stem;
}
);
layerId = m01;
shapes = (
{
closed = 1;
nodes = (
(227,-91,o),
(241,-74,o),
(241,-34,cs),
(240,-15,o),
(240,5,o),
(239,24,c),
(268,49,o),
(292,93,o),
(287,140,cs),
(280,202,o),
(246,319,o),
(232,389,c),
(232,657,l),
(240,671,o),
(271,667,o),
(274,667,cs),
(296,666,o),
(310,683,o),
(310,698,cs),
(310,711,o),
(301,723,o),
(279,725,cs),
(269,725,o),
(243,728,o),
(232,722,c),
(232,789,ls),
(232,801,o),
(232,807,o),
(230,811,cs),
(225,824,o),
(218,830,o),
(211,830,cs),
(197,830,o),
(182,807,o),
(182,778,cs),
(182,699,l),
(156,683,o),
(127,635,o),
(127,603,cs),
(127,549,o),
(172,424,o),
(180,389,c),
(180,112,o),
(180,84,o),
(181,66,c),
(164,75,o),
(139,85,o),
(119,85,cs),
(110,85,o),
(102,83,o),
(96,77,cs),
(92,73,o),
(90,68,o),
(90,64,cs),
(90,36,o),
(151,1,o),
(183,0,c),
(184,-18,o),
(185,-36,o),
(187,-54,cs),
(188,-77,o),
(200,-91,o),
(213,-91,cs)
);
},
{
closed = 1;
nodes = (
(230,223,l),
(245,155,ls),
(252,123,o),
(247,109,o),
(234,94,c)
);
},
{
closed = 1;
nodes = (
(182,474,o),
(154,596,o),
(187,622,c),
(183,496,ls)
);
}
);
width = 400;
}
);
note = dollar;
unicode = 36;
},
{
glyphname = percent;
lastChange = "2026-04-28 12:49:43 +0000";
layers = (
{
hints = (
{
horizontal = 1;
place = (-17.03, 106.06);
place = (-17.03, 106.06);
type = Stem;
},
{
horizontal = 1;
place = (113.71, 96.69);
place = (113.71, 96.69);
type = Stem;
},
{
place = (74, 59);
place = (74, 59);
type = Stem;
},
{
place = (223.97, 97.03);
place = (223.97, 97.03);
type = Stem;
},
{
place = (44, 56.82);
place = (44, 56.82);
type = Stem;
}
);
layerId = m01;
shapes = (
{
closed = 1;
nodes = (
(263,166,o),
(357,405,o),
(345,417,cs),
(307,455,o),
(289,440,o),
(271,391,cs),
(126,-4,ls),
(101,-71,o),
(153,-84,o),
(174,-36,cs)
);
},
{
closed = 1;
nodes = (
(139,148,o),
(155,181,o),
(155,209,cs),
(156,248,o),
(151,262,o),
(110,265,cs),
(69,265,o),
(60,223,o),
(60,203,cs),
(60,173,o),
(77,161,o),
(105,156,cs)
);
},
{
closed = 1;
nodes = (
(325,23,ls),
(353,23,o),
(376,50,o),
(376,80,cs),
(375,107,o),
(355,129,o),
(327,129,cs),
(301,128,o),
(279,100,o),
(279,67,cs),
(279,65,ls),
(279,37,o),
(297,23,o),
(323,23,cs)
);
}
);
width = 436;
}
);
note = percent;
unicode = 37;
},
{
glyphname = ampersand;
lastChange = "2026-04-28 12:49:43 +0000";
layers = (
{
hints = (
{
horizontal = 1;
place = (-32.22, 58.17);
place = (-32.22, 58.17);
type = Stem;
},
{
place = (36.33, 57.03);
place = (36.33, 57.03);
type = Stem;
},
{
place = (121.76, 72.24);
place = (121.76, 72.24);
type = Stem;
},
{
place = (98, 101.16);
place = (98, 101.16);
type = Stem;
}
);
layerId = m01;
shapes = (
{
closed = 1;
nodes = (
(188,-2,o),
(242,44,o),
(242,97,cs),
(242,107,o),
(211,154,o),
(195,112,cs),
(175,59,o),
(107,31,o),
(107,82,cs),
(107,89,o),
(153,257,o),
(175,335,c),
(232,249,o),
(199,303,o),
(258,210,cs),
(305,136,o),
(343,71,o),
(383,8,cs),
(390,-4,o),
(450,-9,o),
(395,83,cs),
(334,185,o),
(273,295,o),
(215,402,cs),
(199,432,o),
(229,562,o),
(213,638,cs),
(197,714,o),
(123,715,o),
(97,637,c),
(79,549,o),
(136,437,o),
(136,419,cs),
(136,392,o),
(130,367,o),
(122,340,cs),
(97,262,o),
(50,118,o),
(50,82,cs),
(50,35,o),
(83,-2,o),
(129,-2,cs)
);
},
{
closed = 1;
nodes = (
(150,512,o),
(140,555,o),
(140,571,cs),
(140,580,o),
(139,595,o),
(141,601,cs),
(149,627,o),
(155,621,o),
(158,621,cs),
(169,621,o),
(177,577,o),
(178,561,cs),
(178,551,o),
(177,509,o),
(165,509,c)
);
}
);
width = 468;
}
);
note = ampersand;
unicode = 38;
},
{
glyphname = quotesingle;
lastChange = "2026-04-28 12:49:43 +0000";
layers = (
{
hints = (
{
horizontal = 1;
place = (502, 211.41);
place = (502, 211.41);
type = Stem;
},
{
place = (121, 85.26);
place = (121, 85.26);
type = Stem;
}
);
layerId = m01;
shapes = (
{
closed = 1;
nodes = (
(163,568,o),
(160,616,o),
(160,655,cs),
(160,687,o),
(139,717,o),
(118,710,cs),
(94,702,o),
(80,686,o),
(94,638,cs),
(104,605,o),
(108,542,o),
(110,539,c)
);
}
);
width = 221;
}
);
note = quotesingle;
unicode = 39;
},
{
glyphname = parenleft;
lastChange = "2026-04-28 12:49:43 +0000";
layers = (
{
hints = (
{
place = (0, 160);
place = (0, 160);
type = Stem;
}
);
layerId = m01;
shapes = (
{
closed = 1;
nodes = (
(247,-52,o),
(283,-24,o),
(245,11,cs),
(172,78,o),
(159,179,o),
(159,282,cs),
(159,373,o),
(182,606,o),
(249,667,cs),
(280,698,o),
(222,758,o),
(188,683,cs),
(117,525,o),
(100,430,o),
(100,262,c),
(112,116,o),
(110,82,o),
(214,-41,c)
);
}
);
width = 351;
}
);
note = parenleft;
unicode = 40;
},
{
glyphname = parenright;
lastChange = "2026-04-28 12:49:43 +0000";
layers = (
{
hints = (
{
place = (82, 140);
place = (82, 140);
type = Stem;
}
);
layerId = m01;
shapes = (
{
closed = 1;
nodes = (
(241,83,o),
(239,117,o),
(251,262,c),
(251,430,o),
(234,525,o),
(163,683,cs),
(129,758,o),
(71,698,o),
(102,667,cs),
(169,606,o),
(192,373,o),
(192,282,cs),
(192,179,o),
(179,79,o),
(106,12,cs),
(68,-23,o),
(104,-51,o),
(137,-40,c)
);
}
);
width = 351;
}
);
note = parenright;
unicode = 41;
},
{
glyphname = asterisk;
lastChange = "2026-04-28 12:49:43 +0000";
layers = (
{
hints = (
{
horizontal = 1;
place = (493.47, 137.53);
place = (493.47, 137.53);
type = Stem;
},
{
place = (36.22, 128.82);
place = (36.22, 128.82);
type = Stem;
}
);
layerId = m01;
shapes = (
{
closed = 1;
nodes = (
(90,473,o),
(94,521,o),
(134,517,c),
(162,499,o),
(185,518,o),
(185,534,cs),
(185,542,o),
(166,556,o),
(166,566,c),
(197,603,o),
(209,655,o),
(144,629,cs),
(115,616,o),
(131,615,o),
(120,619,cs),
(100,626,o),
(80,656,o),
(59,625,c),
(74,566,ls),
(78,552,o),
(28,535,o),
(61,502,cs)
);
}
);
width = 251;
}
);
note = asterisk;
unicode = 42;
},
{
glyphname = plus;
lastChange = "2026-04-28 12:49:43 +0000";
layers = (
{
hints = (
{
horizontal = 1;
place = (217, 48.51);
place = (217, 48.51);
type = Stem;
},
{
horizontal = 1;
place = (359, -20);
target = down;
type = TopGhost;
},
{
place = (172.47, 58.53);
place = (172.47, 58.53);
type = Stem;
},
{
horizontal = 1;
place = (208.8, 55.92);
place = (208.8, 55.92);
type = Stem;
},
{
place = (170, 49);
place = (170, 49);
type = Stem;
}
);
layerId = m01;
shapes = (
{
closed = 1;
nodes = (
(247,84,o),
(219,131,o),
(231,157,c),
(249,156,o),
(343,139,o),
(343,180,cs),
(343,225,o),
(258,187,o),
(232,213,cs),
(220,224,o),
(226,252,o),
(219,271,cs),
(206,307,o),
(181,311,o),
(170,266,cs),
(167,257,o),
(172,235,o),
(172,222,cs),
(172,195,o),
(123,208,o),
(96,204,cs),
(65,201,o),
(54,194,o),
(63,164,cs),
(70,140,o),
(147,151,o),
(168,152,c),
(176,136,o),
(168,84,o),
(192,84,cs)
);
}
);
width = 414;
}
);
note = plus;
unicode = 43;
},
{
glyphname = comma;
lastChange = "2026-04-28 12:49:43 +0000";
layers = (
{
hints = (
{
horizontal = 1;
place = (-45, 173);
place = (-45, 173);
type = Stem;
},
{
place = (131, 81.9);
place = (131, 81.9);
type = Stem;
}
);
layerId = m01;
shapes = (
{
closed = 1;
nodes = (
(199,-93,o),
(162,134,o),
(80,73,c),
(37,29,o),
(98,8,o),
(99,-2,cs),
(102,-16,o),
(70,-43,o),
(60,-77,c)
);
}
);
width = 253;
}
);
note = comma;
unicode = 44;
},
{
glyphname = hyphen;
lastChange = "2026-04-28 12:49:43 +0000";
layers = (
{
hints = (
{
horizontal = 1;
place = (150, 53);
place = (150, 53);
type = Stem;
},
{
place = (70, 267.88);
place = (70, 267.88);
type = Stem;
}
);
layerId = m01;
shapes = (
{
closed = 1;
nodes = (
(353,149,o),
(337,207,o),
(291,205,cs),
(192,200,ls),
(154,198,o),
(132,201,o),
(94,198,cs),
(65,195,o),
(57,150,o),
(100,150,cs),
(168,146,o),
(236,150,o),
(305,149,cs)
);
}
);
width = 414;
}
);
note = hyphen;
unicode = 45;
},
{
glyphname = period;
lastChange = "2026-04-28 12:49:43 +0000";
layers = (
{
hints = (
{
horizontal = 1;
place = (24.84, 104.25);
place = (24.84, 104.25);
type = Stem;
},
{
place = (89, 110.59);
place = (89, 110.59);
type = Stem;
}
);
layerId = m01;
shapes = (
{
closed = 1;
nodes = (
(133,9,o),
(153,21,o),
(152,46,c),
(149,62,o),
(156,98,o),
(106,98,cs),
(64,98,o),
(60,79,o),
(60,37,cs),
(61,21,o),
(75,9,o),
(93,9,cs)
);
}
);
width = 252;
}
);
note = period;
unicode = 46;
},
{
glyphname = slash;
lastChange = "2026-04-28 12:49:43 +0000";
layers = (
{
layerId = m01;
shapes = (
{
closed = 1;
nodes = (
(83,-19,o),
(109,-1,o),
(126,50,cs),
(182,236,o),
(306,648,o),
(311,671,c),
(301,715,o),
(268,693,o),
(261,673,cs),
(201,478,o),
(66,47,o),
(70,31,cs)
);
}
);
width = 381;
}
);
note = slash;
unicode = 47;
},
{
glyphname = zero;
lastChange = "2026-04-28 12:49:43 +0000";
layers = (
{
hints = (
{
place = (39, 56);
place = (39, 56);
type = Stem;
},
{
place = (200, 57.6);
place = (200, 57.6);
type = Stem;
}
);
layerId = m01;
shapes = (
{
closed = 1;
nodes = (
(216,5,o),
(286,52,o),
(293,99,c),
(315,199,o),
(325,292,o),
(325,386,cs),
(325,471,o),
(318,698,o),
(199,698,cs),
(142,698,o),
(89,631,o),
(74,596,cs),
(38,515,o),
(31,432,o),
(31,349,cs),
(31,270,o),
(52,5,o),
(165,5,cs)
);
},
{
closed = 1;
nodes = (
(103,144,o),
(86,314,o),
(86,375,cs),
(86,437,o),
(100,601,o),
(203,633,c),
(274,603,o),
(267,438,o),
(267,340,cs),
(267,205,o),
(243,24,o),
(151,84,c)
);
}
);
width = 360;
}
);
note = zero;
unicode = 48;
},
{
glyphname = one;
lastChange = "2026-04-28 12:49:43 +0000";
layers = (
{
hints = (
{
place = (123, 57.12);
place = (123, 57.12);
type = Stem;
}
);
layerId = m01;
shapes = (
{
closed = 1;
nodes = (
(201,44,o),
(196,466,o),
(195,651,cs),
(195,686,o),
(172,699,o),
(157,688,c),
(156,688,o),
(156,687,o),
(155,687,c),
(107,661,o),
(120,670,o),
(107,661,cs),
(69,633,o),
(104,605,o),
(120,612,c),
(130,614,o),
(137,617,o),
(144,620,c),
(144,489,o),
(147,481,o),
(142,332,c),
(142,98,o),
(142,76,o),
(144,54,cs),
(148,-21,o),
(201,2,o),
(201,37,cs)
);
}
);
width = 340;
}
);
note = one;
unicode = 49;
},
{
glyphname = two;
lastChange = "2026-04-28 12:49:43 +0000";
layers = (
{
hints = (
{
horizontal = 1;
place = (-11.23, 76.01);
place = (-11.23, 76.01);
type = Stem;
},
{
place = (188, 52.04);
place = (188, 52.04);
type = Stem;
}
);
layerId = m01;
shapes = (
{
closed = 1;
nodes = (
(164,-11,o),
(217,1,o),
(270,8,cs),
(327,14,o),
(324,64,o),
(263,64,c),
(217,59,o),
(172,55,o),
(122,50,c),
(152,164,o),
(349,643,o),
(241,671,cs),
(162,692,o),
(126,650,o),
(102,602,cs),
(93,584,o),
(130,558,o),
(147,575,cs),
(180,608,o),
(163,628,o),
(210,628,c),
(259,601,o),
(92,147,o),
(63,54,c),
(54,18,o),
(61,-11,o),
(104,-11,cs)
);
}
);
width = 360;
}
);
note = two;
unicode = 50;
},
{
glyphname = three;
lastChange = "2026-04-28 12:49:43 +0000";
layers = (
{
hints = (
{
horizontal = 1;
place = (-3, 53);
place = (-3, 53);
type = Stem;
},
{
horizontal = 1;
place = (617.63, 66.79);
place = (617.63, 66.79);
type = Stem;
},
{
place = (197.48, 54.52);
place = (197.48, 54.52);
type = Stem;
}
);
layerId = m01;
shapes = (
{
closed = 1;
nodes = (
(186,-21,o),
(283,18,o),
(283,110,cs),
(283,166,o),
(244,210,o),
(183,224,cs),
(175,226,o),
(167,227,o),
(157,230,c),
(211,397,o),
(207,415,o),
(245,571,cs),
(254,611,o),
(274,684,o),
(216,684,cs),
(180,684,o),
(152,678,o),
(125,670,cs),
(80,656,o),
(88,613,o),
(136,620,cs),
(157,623,o),
(178,628,o),
(205,632,c),
(196,594,o),
(189,563,o),
(180,532,cs),
(150,434,o),
(93,217,o),
(93,209,cs),
(93,146,o),
(137,179,o),
(175,167,c),
(211,151,o),
(228,153,o),
(228,103,cs),
(228,56,o),
(164,58,o),
(116,50,cs),
(55,36,o),
(86,2,o),
(103,-3,c)
);
}
);
width = 360;
}
);
note = three;
unicode = 51;
},
{
glyphname = four;
lastChange = "2026-04-28 12:49:43 +0000";
layers = (
{
hints = (
{
horizontal = 1;
place = (108.56, 55.44);
place = (108.56, 55.44);
type = Stem;
},
{
horizontal = 1;
place = (687, -20);
target = down;
type = TopGhost;
},
{
place = (37.33, 57.67);
place = (37.33, 57.67);
type = Stem;
},
{
place = (210, 54.09);
place = (210, 54.09);
type = Stem;
}
);
layerId = m01;
shapes = (
{
closed = 1;
nodes = (
(287,231,o),
(287,413,o),
(286,609,cs),
(286,671,o),
(234,682,o),
(234,608,cs),
(234,485,o),
(234,320,o),
(233,198,cs),
(233,162,o),
(152,159,o),
(125,174,c),
(101,207,o),
(156,553,o),
(156,642,cs),
(156,685,o),
(113,694,o),
(107,644,c),
(100,524,o),
(60,183,o),
(60,180,cs),
(60,139,o),
(83,119,o),
(129,119,cs),
(233,119,l),
(233,30,ls),
(233,-28,o),
(287,-21,o),
(287,25,cs)
);
}
);
width = 360;
}
);
note = four;
unicode = 52;
},
{
glyphname = five;
lastChange = "2026-04-28 12:49:43 +0000";
layers = (
{
hints = (
{
horizontal = 1;
place = (-10, 52);
place = (-10, 52);
type = Stem;
},
{
horizontal = 1;
place = (640, 48.5);
place = (640, 48.5);
type = Stem;
},
{
place = (41.95, 52.98);
place = (41.95, 52.98);
type = Stem;
},
{
place = (203.03, 56.55);
place = (203.03, 56.55);
type = Stem;
},
{
place = (54, 47);
place = (54, 47);
type = Stem;
}
);
layerId = m01;
shapes = (
{
closed = 1;
nodes = (
(230,-13,o),
(320,18,o),
(291,138,cs),
(269,229,o),
(143,164,o),
(143,227,cs),
(143,343,o),
(147,460,o),
(149,577,cs),
(151,635,o),
(152,651,o),
(210,640,cs),
(242,634,o),
(251,686,o),
(219,686,cs),
(164,686,o),
(105,693,o),
(102,624,cs),
(97,482,o),
(90,340,o),
(90,199,cs),
(90,156,o),
(105,142,o),
(146,141,cs),
(211,140,o),
(240,127,o),
(240,87,cs),
(240,86,ls),
(240,49,o),
(174,43,o),
(137,43,cs),
(52,43,o),
(98,-16,o),
(135,-13,c)
);
}
);
width = 360;
}
);
note = five;
unicode = 53;
},
{
glyphname = six;
lastChange = "2026-04-28 12:49:43 +0000";
layers = (
{
hints = (
{
horizontal = 1;
place = (-4.14, 58.65);
place = (-4.14, 58.65);
type = Stem;
},
{
horizontal = 1;
place = (156.49, 57.68);
place = (156.49, 57.68);
type = Stem;
},
{
horizontal = 1;
place = (622.77, 55.89);
place = (622.77, 55.89);
type = Stem;
},
{
place = (22.4, 55.41);
place = (22.4, 55.41);
type = Stem;
},
{
place = (222, 56.38);
place = (222, 56.38);
type = Stem;
}
);
layerId = m01;
shapes = (
{
closed = 1;
nodes = (
(277,-4,o),
(312,59,o),
(316,117,c),
(316,166,o),
(290,199,o),
(255,210,cs),
(216,225,o),
(181,194,o),
(146,159,c),
(143,164,o),
(116,303,o),
(116,369,cs),
(116,425,o),
(137,639,o),
(197,623,cs),
(270,604,o),
(256,679,o),
(200,679,cs),
(95,679,o),
(60,465,o),
(60,358,cs),
(60,238,o),
(99,-4,o),
(219,-4,cs)
);
},
{
closed = 1;
nodes = (
(203,60,o),
(179,77,o),
(179,93,cs),
(179,116,o),
(213,157,o),
(228,157,cs),
(232,157,o),
(259,133,o),
(260,128,cs),
(267,86,o),
(241,55,o),
(219,55,c)
);
}
);
width = 360;
}
);
note = six;
unicode = 54;
},
{
glyphname = seven;
lastChange = "2026-04-28 12:49:43 +0000";
layers = (
{
hints = (
{
horizontal = 1;
place = (86.49, 49.51);
place = (86.49, 49.51);
type = Stem;
},
{
horizontal = 1;
place = (634, 52.74);
place = (634, 52.74);
type = Stem;
},
{
place = (37, 227.19);
place = (37, 227.19);
type = Stem;
}
);
layerId = m01;
shapes = (
{
closed = 1;
nodes = (
(110,-5,o),
(162,-25,o),
(171,41,cs),
(183,130,o),
(284,609,o),
(284,641,cs),
(284,663,o),
(275,682,o),
(250,684,cs),
(214,687,o),
(116,685,o),
(80,684,cs),
(57,684,o),
(52,636,o),
(83,635,cs),
(138,634,o),
(115,634,o),
(230,634,c),
(228,622,o),
(227,613,o),
(225,604,cs),
(198,466,o),
(166,338,o),
(144,198,cs),
(140,173,o),
(127,167,o),
(84,167,cs),
(60,167,o),
(46,134,o),
(83,120,c),
(95,114,o),
(113,119,o),
(126,119,c),
(114,40,o),
(110,27,o),
(110,16,cs)
);
}
);
width = 360;
}
);
note = seven;
unicode = 55;
},
{
glyphname = eight;
lastChange = "2026-04-28 12:49:43 +0000";
layers = (
{
hints = (
{
horizontal = 1;
place = (-17.22, 21);
target = up;
type = BottomGhost;
},
{
place = (41.23, 53.53);
place = (41.23, 53.53);
type = Stem;
},
{
place = (202.54, 57.6);
place = (202.54, 57.6);
type = Stem;
}
);
layerId = m01;
shapes = (
{
closed = 1;
nodes = (
(283,99,o),
(268,131,o),
(237,160,c),
(300,284,o),
(305,542,o),
(238,647,cs),
(192,722,o),
(108,713,o),
(87,623,cs),
(61,517,o),
(42,298,o),
(90,198,cs),
(116,142,o),
(64,131,o),
(64,77,cs),
(64,-37,o),
(283,-54,o),
(283,70,cs)
);
},
{
closed = 1;
nodes = (
(92,66,o),
(131,128,o),
(151,128,cs),
(179,128,o),
(226,104,o),
(226,72,c),
(214,25,o),
(186,31,o),
(144,46,cs)
);
},
{
closed = 1;
nodes = (
(97,406,o),
(110,432,o),
(135,601,cs),
(142,653,o),
(185,638,o),
(194,609,cs),
(248,458,o),
(223,377,o),
(206,234,cs),
(200,185,o),
(154,169,o),
(136,232,c)
);
}
);
width = 360;
}
);
note = eight;
unicode = 56;
},
{
glyphname = nine;
lastChange = "2026-04-28 12:49:43 +0000";
layers = (
{
hints = (
{
horizontal = 1;
place = (686.56, -20);
target = down;
type = TopGhost;
},
{
place = (47.63, 54.55);
place = (47.63, 54.55);
type = Stem;
},
{
place = (199, 54);
place = (199, 54);
type = Stem;
}
);
layerId = m01;
shapes = (
{
closed = 1;
nodes = (
(211,-21,o),
(265,-13,o),
(265,39,cs),
(265,310,o),
(265,457,o),
(264,604,cs),
(264,671,o),
(173,728,o),
(115,643,cs),
(62,558,o),
(55,426,o),
(63,338,cs),
(71,243,o),
(118,181,o),
(211,197,c),
(211,39,ls)
);
},
{
closed = 1;
nodes = (
(97,373,o),
(108,500,o),
(152,601,cs),
(168,635,o),
(201,645,o),
(205,592,cs),
(210,544,o),
(215,497,o),
(215,435,cs),
(215,395,o),
(207,341,o),
(199,288,cs),
(190,247,o),
(157,242,o),
(141,281,c)
);
}
);
width = 360;
}
);
note = nine;
unicode = 57;
},
{
glyphname = colon;
lastChange = "2026-04-28 12:49:43 +0000";
layers = (
{
hints = (
{
horizontal = 1;
place = (81, 79);
place = (81, 79);
type = Stem;
},
{
horizontal = 1;
place = (269.33, 75.12);
place = (269.33, 75.12);
type = Stem;
},
{
place = (77.83, 72.43);
place = (77.83, 72.43);
type = Stem;
}
);
layerId = m01;
shapes = (
{
closed = 1;
nodes = (
(122,179,o),
(164,189,o),
(164,229,cs),
(164,267,o),
(139,279,o),
(96,279,c),
(80,274,o),
(53,213,o),
(86,191,c)
);
},
{
closed = 1;
nodes = (
(148,9,o),
(168,21,o),
(167,46,c),
(164,62,o),
(171,98,o),
(121,98,cs),
(79,98,o),
(75,79,o),
(75,37,cs),
(76,21,o),
(90,9,o),
(108,9,cs)
);
}
);
width = 287;
}
);
note = colon;
unicode = 58;
},
{
glyphname = semicolon;
lastChange = "2026-04-28 12:49:43 +0000";
layers = (
{
hints = (
{
horizontal = 1;
place = (248.98, 88.7);
place = (248.98, 88.7);
type = Stem;
},
{
place = (100, 54.41);
place = (100, 54.41);
type = Stem;
},
{
place = (57.61, 89.39);
place = (57.61, 89.39);
type = Stem;
}
);
layerId = m01;
shapes = (
{
closed = 1;
nodes = (
(209,-59,o),
(186,136,o),
(88,71,c),
(66,14,o),
(108,14,o),
(109,4,cs),
(112,-10,o),
(66,-58,o),
(70,-76,c)
);
},
{
closed = 1;
nodes = (
(130,179,o),
(172,189,o),
(172,229,cs),
(172,267,o),
(147,279,o),
(104,279,c),
(88,274,o),
(61,213,o),
(94,191,c)
);
}
);
width = 292;
}
);
note = semicolon;
unicode = 59;
},
{
glyphname = less;
lastChange = "2026-04-28 12:49:43 +0000";
layers = (
{
hints = (
{
horizontal = 1;
place = (103, 222);
place = (103, 222);
type = Stem;
},
{
place = (45.56, 209.34);
place = (45.56, 209.34);
type = Stem;
}
);
layerId = m01;
shapes = (
{
closed = 1;
nodes = (
(290,77,o),
(304,130,o),
(266,153,cs),
(234,174,o),
(200,194,o),
(167,215,c),
(161,251,o),
(219,272,o),
(246,314,cs),
(265,343,o),
(246,357,o),
(216,353,c),
(181,323,o),
(149,291,o),
(118,258,c),
(95,225,o),
(92,199,o),
(119,179,cs),
(165,149,o),
(209,118,o),
(258,93,cs)
);
}
);
width = 414;
}
);
note = less;
unicode = 60;
},
{
glyphname = equal;
lastChange = "2026-04-28 12:49:43 +0000";
layers = (
{
hints = (
{
horizontal = 1;
place = (147, 49);
place = (147, 49);
type = Stem;
},
{
horizontal = 1;
place = (241, 58.08);
place = (241, 58.08);
type = Stem;
},
{
place = (24, 250);
place = (24, 250);
type = Stem;
},
{
horizontal = 1;
place = (249, 48);
place = (249, 48);
type = Stem;
},
{
horizontal = 1;
place = (241, 50);
place = (241, 50);
type = Stem;
}
);
layerId = m01;
shapes = (
{
closed = 1;
nodes = (
(276,241,o),
(281,288,o),
(241,291,cs),
(201,297,o),
(160,297,o),
(119,300,c),
(104,298,o),
(74,301,o),
(59,297,cs),
(31,291,o),
(34,249,o),
(58,249,c),
(119,244,o),
(179,241,o),
(240,241,cs)
);
},
{
closed = 1;
nodes = (
(297,150,o),
(290,199,o),
(238,199,cs),
(177,198,o),
(116,199,o),
(56,196,cs),
(21,196,o),
(20,153,o),
(55,150,cs),
(118,148,o),
(68,149,o),
(148,149,cs),
(237,147,l)
);
}
);
width = 359;
}
);
note = equal;
unicode = 61;
},
{
glyphname = greater;
lastChange = "2026-04-28 12:49:43 +0000";
layers = (
{
hints = (
{
horizontal = 1;
origin = (0,15);
place = (146, 227.67);
type = Stem;
},
{
place = (1, 208.22);
place = (1, 208.22);
type = Stem;
}
);
layerId = m01;
shapes = (
{
closed = 1;
nodes = (
(222,148,o),
(214,149,o),
(273,193,c),
(312,226,o),
(315,258,o),
(275,291,cs),
(249,311,o),
(220,330,o),
(193,350,cs),
(158,378,o),
(106,347,o),
(164,305,c),
(247,253,l),
(215,219,o),
(153,173,o),
(129,146,cs),
(107,120,o),
(128,96,o),
(160,106,c)
);
}
);
width = 414;
}
);
note = greater;
unicode = 62;
},
{
glyphname = question;
lastChange = "2026-04-28 12:49:43 +0000";
layers = (
{
hints = (
{
horizontal = 1;
place = (16.23, 81.79);
place = (16.23, 81.79);
type = Stem;
},
{
horizontal = 1;
place = (668.71, 42.55);
place = (668.71, 42.55);
type = Stem;
},
{
place = (95.1, 49.7);
place = (95.1, 49.7);
type = Stem;
},
{
place = (285.91, 51.09);
place = (285.91, 51.09);
type = Stem;
},
{
place = (107.5, 61.55);
place = (107.5, 61.55);
type = Stem;
}
);
layerId = m01;
shapes = (
{
closed = 1;
nodes = (
(200,133,o),
(165,191,o),
(171,212,c),
(241,295,o),
(357,371,o),
(357,543,cs),
(357,639,o),
(306,752,o),
(199,752,cs),
(137,752,o),
(96,718,o),
(73,670,c),
(60,637,o),
(89,607,o),
(110,645,cs),
(138,696,o),
(156,699,o),
(206,699,c),
(282,691,o),
(306,602,o),
(306,539,cs),
(306,454,o),
(246,371,o),
(177,304,cs),
(128,256,o),
(101,215,o),
(127,160,cs),
(131,151,o),
(141,133,o),
(165,133,cs)
);
},
{
closed = 1;
nodes = (
(197,-1,o),
(217,11,o),
(216,36,c),
(213,52,o),
(220,88,o),
(170,88,cs),
(128,88,o),
(124,69,o),
(124,27,cs),
(125,11,o),
(139,-1,o),
(157,-1,cs)
);
}
);
width = 437;
}
);
note = question;
unicode = 63;
},
{
glyphname = at;
lastChange = "2026-04-28 12:49:43 +0000";
layers = (
{
hints = (
{
horizontal = 1;
place = (-129.85, 48.6);
place = (-129.85, 48.6);
type = Stem;
},
{
horizontal = 1;
place = (18.95, 49.02);
place = (18.95, 49.02);
type = Stem;
},
{
horizontal = 1;
place = (192.39, 45.95);
place = (192.39, 45.95);
type = Stem;
},
{
horizontal = 1;
place = (454.05, 46.24);
place = (454.05, 46.24);
type = Stem;
},
{
place = (99.08, 46.07);
place = (99.08, 46.07);
type = Stem;
},
{
place = (219.79, 46.75);
place = (219.79, 46.75);
type = Stem;
},
{
place = (506.23, 44.96);
place = (506.23, 44.96);
type = Stem;
}
);
layerId = m01;
shapes = (
{
closed = 1;
nodes = (
(377,-90,o),
(346,-57,o),
(315,-72,c),
(223,-130,o),
(126,40,o),
(126,157,cs),
(126,279,o),
(198,454,o),
(312,454,cs),
(429,454,o),
(487,304,o),
(487,189,cs),
(487,118,o),
(479,70,o),
(439,11,c),
(419,54,o),
(414,92,o),
(411,140,cs),
(408,190,o),
(356,238,o),
(307,238,c),
(240,232,o),
(201,179,o),
(201,123,cs),
(201,7,o),
(312,0,o),
(376,59,c),
(379,38,ls),
(384,6,o),
(407,-26,o),
(439,-26,cs),
(512,-26,o),
(532,110,o),
(532,183,cs),
(532,342,o),
(458,500,o),
(311,500,cs),
(162,500,o),
(80,301,o),
(80,152,cs),
(80,-37,o),
(215,-193,o),
(350,-105,c)
);
},
{
closed = 1;
nodes = (
(257,84,o),
(248,100,o),
(248,124,cs),
(248,154,o),
(271,192,o),
(301,192,cs),
(383,192,o),
(373,68,o),
(277,68,c)
);
}
);
width = 612;
}
);
note = at;
unicode = 64;
},
{
glyphname = A;
lastChange = "2026-04-28 12:49:43 +0000";
layers = (
{
anchors = (
{
name = bottom;
pos = (200,0);
},
{
name = ogonek;
pos = (316,14);
},
{
name = top;
pos = (243,725);
}
);
hints = (
{
horizontal = 1;
place = (131, 42);
place = (131, 42);
type = Stem;
},
{
place = (83, 48);
place = (83, 48);
type = Stem;
},
{
place = (299, 49);
place = (299, 49);
type = Stem;
}
);
layerId = m01;
shapes = (
{
closed = 1;
nodes = (
(123,0,o),
(126,38,o),
(126,56,cs),
(127,144,o),
(128,146,o),
(202,146,cs),
(292,145,o),
(291,145,o),
(296,40,cs),
(297,23,o),
(299,6,o),
(312,0,cs),
(337,-11,o),
(342,23,o),
(342,33,cs),
(342,298,o),
(362,426,o),
(312,648,cs),
(305,680,o),
(277,714,o),
(254,714,cs),
(236,714,o),
(216,704,o),
(198,685,cs),
(96,578,o),
(57,177,o),
(85,29,cs),
(87,18,o),
(92,0,o),
(105,0,cs)
);
},
{
closed = 1;
nodes = (
(130,189,o),
(128,234,o),
(131,263,cs),
(146,398,o),
(180,649,o),
(249,649,cs),
(269,649,o),
(282,592,o),
(283,575,cs),
(292,447,o),
(299,347,o),
(299,219,cs),
(299,199,o),
(283,191,o),
(273,190,cs),
(254,189,o),
(176,189,o),
(151,189,cs)
);
}
);
width = 399;
}
);
note = A;
unicode = 65;
},
{
glyphname = B;
lastChange = "2026-04-28 12:49:43 +0000";
layers = (
{
anchors = (
{
name = bottom;
pos = (200,0);
},
{
name = center;
pos = (200,358);
},
{
name = top;
pos = (200,715);
}
);
hints = (
{
horizontal = 1;
place = (-12, 54);
place = (-12, 54);
type = Stem;
},
{
place = (58, 44);
place = (58, 44);
type = Stem;
},
{
place = (235, 48);
place = (235, 48);
type = Stem;
},
{
place = (294, 50);
place = (294, 50);
type = Stem;
},
{
place = (74, 45);
place = (74, 45);
type = Stem;
}
);
layerId = m01;
shapes = (
{
closed = 1;
nodes = (
(250,8,o),
(343,82,o),
(343,137,cs),
(343,198,o),
(275,245,o),
(210,255,c),
(254,324,o),
(284,434,o),
(284,510,cs),
(284,524,o),
(283,539,o),
(281,554,cs),
(263,667,o),
(171,718,o),
(73,718,cs),
(52,718,o),
(58,680,o),
(58,663,cs),
(58,534,o),
(71,149,o),
(86,27,cs),
(90,-2,o),
(107,0,o),
(134,0,c)
);
},
{
closed = 1;
nodes = (
(129,74,o),
(126,85,o),
(126,111,cs),
(126,150,o),
(119,148,o),
(152,170,cs),
(173,184,o),
(201,196,o),
(231,196,cs),
(285,196,o),
(302,134,o),
(279,111,cs),
(238,70,o),
(183,38,o),
(135,50,c)
);
},
{
closed = 1;
nodes = (
(113,352,o),
(107,525,o),
(102,651,c),
(164,651,o),
(220,620,o),
(232,557,cs),
(234,540,o),
(236,524,o),
(236,509,cs),
(236,416,o),
(185,299,o),
(119,226,c)
);
}
);
width = 400;
}
);
note = B;
unicode = 66;
},
{
glyphname = C;
lastChange = "2026-04-28 12:49:43 +0000";
layers = (
{
anchors = (
{
name = bottom;
pos = (150,0);
},
{
name = top;
pos = (187,723);
}
);
hints = (
{
horizontal = 1;
place = (0, 56);
place = (0, 56);
type = Stem;
},
{
place = (33, 59);
place = (33, 59);
type = Stem;
}
);
layerId = m01;
shapes = (
{
closed = 1;
nodes = (
(239,5,o),
(302,67,o),
(268,89,cs),
(248,102,o),
(229,53,o),
(182,61,cs),
(159,65,o),
(146,77,o),
(124,106,cs),
(98,140,o),
(60,293,o),
(101,470,cs),
(120,550,o),
(132,622,o),
(196,664,cs),
(230,686,o),
(207,715,o),
(195,715,cs),
(193,715,ls),
(136,715,o),
(93,628,o),
(74,574,cs),
(30,451,o),
(28,330,o),
(38,209,cs),
(44,136,o),
(65,70,o),
(132,25,cs),
(152,12,o),
(173,5,o),
(192,5,cs)
);
}
);
width = 300;
}
);
note = C;
unicode = 67;
},
{
glyphname = D;
lastChange = "2026-04-28 12:49:43 +0000";
layers = (
{
anchors = (
{
name = bottom;
pos = (163,0);
},
{
name = center;
pos = (163,358);
},
{
name = top;
pos = (153,715);
}
);
hints = (
{
place = (99, 54.32);
place = (99, 54.32);
type = Stem;
},
{
place = (254.12, 47.79);
place = (254.12, 47.79);
type = Stem;
},
{
place = (107.44, 45.88);
place = (107.44, 45.88);
type = Stem;
}
);
layerId = m01;
shapes = (
{
closed = 1;
nodes = (
(154,17,o),
(181,47,o),
(203,81,cs),
(263,175,o),
(293,276,o),
(283,381,cs),
(279,423,o),
(275,465,o),
(267,508,cs),
(254,587,o),
(223,660,o),
(138,707,cs),
(121,717,o),
(70,731,o),
(70,702,cs),
(70,668,o),
(69,664,o),
(70,593,cs),
(80,71,o),
(67,-7,o),
(96,1,cs)
);
},
{
closed = 1;
nodes = (
(124,660,l),
(184,612,o),
(215,552,o),
(224,487,cs),
(229,453,o),
(232,419,o),
(235,386,cs),
(245,277,o),
(214,173,o),
(126,75,c)
);
}
);
width = 333;
}
);
note = D;
unicode = 68;
},
{
glyphname = E;
lastChange = "2026-04-28 12:49:43 +0000";
layers = (
{
anchors = (
{
name = bottom;
pos = (154,0);
},
{
name = ogonek;
pos = (233,31);
},
{
name = top;
pos = (160,725);
},
{
name = topleft;
pos = (30,715);
}
);
hints = (
{
horizontal = 1;
place = (7.04, 44.55);
place = (7.04, 44.55);
type = Stem;
},
{
horizontal = 1;
place = (160.55, 39.04);
place = (160.55, 39.04);
type = Stem;
},
{
horizontal = 1;
place = (654.39, 46.58);
place = (654.39, 46.58);
type = Stem;
},
{
place = (49.5, 44.52);
place = (49.5, 44.52);
type = Stem;
}
);
layerId = m01;
shapes = (
{
closed = 1;
nodes = (
(264,-3,o),
(270,31,o),
(227,42,cs),
(205,46,o),
(183,47,o),
(161,47,cs),
(123,47,o),
(103,66,o),
(103,105,cs),
(103,125,o),
(96,151,o),
(132,151,cs),
(231,151,l),
(278,190,o),
(245,199,o),
(212,197,cs),
(191,196,o),
(170,199,o),
(149,200,cs),
(118,201,o),
(104,216,o),
(104,248,cs),
(104,355,o),
(105,481,o),
(105,588,cs),
(105,681,o),
(128,666,o),
(203,666,cs),
(225,666,o),
(239,668,o),
(252,684,c),
(264,721,o),
(178,710,o),
(139,712,cs),
(100,712,o),
(65,705,o),
(63,645,cs),
(62,582,o),
(62,123,o),
(62,60,cs),
(63,25,o),
(84,5,o),
(118,0,cs),
(152,-5,o),
(186,-3,o),
(220,-3,cs)
);
}
);
width = 310;
}
);
note = E;
unicode = 69;
},
{
glyphname = F;
lastChange = "2026-04-28 12:49:43 +0000";
layers = (
{
anchors = (
{
name = bottom;
pos = (161,0);
},
{
name = top;
pos = (161,715);
}
);
hints = (
{
horizontal = 1;
place = (132.37, 40.63);
place = (132.37, 40.63);
type = Stem;
},
{
horizontal = 1;
place = (677.03, 39.6);
place = (677.03, 39.6);
type = Stem;
},
{
place = (45, 39.56);
place = (45, 39.56);
type = Stem;
},
{
place = (58, 45);
place = (58, 45);
type = Stem;
}
);
layerId = m01;
shapes = (
{
closed = 1;
nodes = (
(112,2,o),
(114,21,o),
(114,83,cs),
(114,140,o),
(127,143,o),
(164,142,cs),
(207,140,o),
(217,140,o),
(242,152,c),
(248,168,ls),
(257,192,o),
(182,196,o),
(156,193,c),
(127,193,o),
(116,207,o),
(115,235,cs),
(110,350,o),
(96,603,o),
(96,618,cs),
(96,666,o),
(106,677,o),
(152,677,cs),
(171,677,o),
(257,666,o),
(267,684,cs),
(287,722,o),
(227,717,o),
(185,717,cs),
(106,717,o),
(152,718,o),
(73,719,cs),
(49,719,o),
(56,685,o),
(56,668,cs),
(60,470,o),
(64,271,o),
(69,72,cs),
(69,59,o),
(66,2,o),
(80,2,cs)
);
}
);
width = 311;
}
);
note = F;
unicode = 70;
},
{
glyphname = G;
lastChange = "2026-04-28 12:49:43 +0000";
layers = (
{
anchors = (
{
name = bottom;
pos = (175,0);
},
{
name = top;
pos = (175,715);
}
);
hints = (
{
horizontal = 1;
place = (666.15, 47.85);
place = (666.15, 47.85);
type = Stem;
},
{
place = (62, 55);
place = (62, 55);
type = Stem;
},
{
place = (233, 43);
place = (233, 43);
type = Stem;
},
{
place = (201, 61);
place = (201, 61);
type = Stem;
},
{
place = (214, 48);
place = (214, 48);
type = Stem;
}
);
layerId = m01;
shapes = (
{
closed = 1;
nodes = (
(240,13,o),
(242,65,o),
(252,142,cs),
(255,164,l),
(274,178,o),
(303,186,o),
(280,214,c),
(250,216,o),
(249,216,o),
(220,216,cs),
(187,216,o),
(204,147,o),
(204,110,cs),
(204,79,o),
(191,75,o),
(160,75,cs),
(128,75,o),
(87,288,o),
(103,460,cs),
(107,505,o),
(144,666,o),
(175,666,cs),
(177,666,l),
(204,655,o),
(223,623,o),
(223,583,cs),
(223,570,o),
(218,538,o),
(239,538,cs),
(276,538,o),
(268,619,o),
(251,655,cs),
(241,679,o),
(217,704,o),
(192,711,cs),
(184,713,o),
(177,714,o),
(170,714,cs),
(103,715,o),
(52,552,o),
(52,394,cs),
(52,306,o),
(60,13,o),
(171,13,cs)
);
}
);
width = 340;
}
);
note = G;
unicode = 71;
},
{
glyphname = H;
lastChange = "2026-04-28 12:49:43 +0000";
layers = (
{
anchors = (
{
name = bottom;
pos = (200,0);
},
{
name = center;
pos = (200,358);
},
{
name = top;
pos = (200,715);
},
{
name = topleft;
pos = (20,715);
}
);
hints = (
{
horizontal = 1;
place = (156.16, 46.84);
place = (156.16, 46.84);
type = Stem;
},
{
place = (51.91, 46.09);
place = (51.91, 46.09);
type = Stem;
},
{
place = (298, 51.16);
place = (298, 51.16);
type = Stem;
},
{
place = (51.91, 32.09);
place = (51.91, 32.09);
type = Stem;
}
);
layerId = m01;
shapes = (
{
closed = 1;
nodes = (
(104,0,o),
(108,21,o),
(109,47,cs),
(110,93,o),
(103,156,o),
(161,156,cs),
(229,156,ls),
(297,156,o),
(286,150,o),
(288,45,cs),
(289,25,o),
(292,0,o),
(314,0,cs),
(336,0,o),
(340,24,o),
(339,44,cs),
(327,226,o),
(340,521,o),
(340,660,cs),
(340,674,o),
(340,715,o),
(325,715,cs),
(289,715,o),
(296,689,o),
(294,653,cs),
(291,520,o),
(288,384,o),
(288,251,cs),
(288,217,o),
(275,199,o),
(241,200,cs),
(171,203,ls),
(125,205,o),
(110,206,o),
(110,248,cs),
(110,253,ls),
(110,395,o),
(113,518,o),
(113,660,cs),
(113,673,o),
(125,715,o),
(99,719,cs),
(72,723,o),
(68,704,o),
(68,675,cs),
(65,465,o),
(62,255,o),
(62,45,cs),
(62,22,o),
(68,0,o),
(83,0,cs)
);
}
);
width = 400;
}
);
note = H;
unicode = 72;
},
{
glyphname = I;
lastChange = "2026-04-28 12:49:43 +0000";
layers = (
{
anchors = (
{
name = bottom;
pos = (120,0);
},
{
name = ogonek;
pos = (127,39);
},
{
name = top;
pos = (110,739);
},
{
name = topleft;
pos = (-10,715);
}
);
hints = (
{
horizontal = 1;
place = (25, 21);
target = up;
type = BottomGhost;
},
{
horizontal = 1;
place = (724, -20);
target = down;
type = TopGhost;
},
{
place = (123, 48);
place = (123, 48);
type = Stem;
},
{
place = (137, 41);
place = (137, 41);
type = Stem;
}
);
layerId = m01;
shapes = (
{
closed = 1;
nodes = (
(104,1,o),
(153,-40,o),
(153,56,cs),
(151,226,o),
(141,633,o),
(136,666,cs),
(134,678,o),
(125,714,o),
(104,695,cs),
(69,664,o),
(95,236,o),
(100,52,c)
);
}
);
width = 240;
}
);
note = I;
unicode = 73;
},
{
glyphname = J;
lastChange = "2026-04-28 12:49:43 +0000";
layers = (
{
anchors = (
{
name = bottom;
pos = (150,11);
},
{
name = top;
pos = (180,750);
}
);
hints = (
{
horizontal = 1;
place = (685, 32.22);
place = (685, 32.22);
type = Stem;
},
{
place = (47.21, 64.79);
place = (47.21, 64.79);
type = Stem;
},
{
place = (163.25, 41.58);
place = (163.25, 41.58);
type = Stem;
},
{
place = (155, 47);
place = (155, 47);
type = Stem;
}
);
layerId = m01;
shapes = (
{
closed = 1;
nodes = (
(178,-6,o),
(211,107,o),
(212,160,cs),
(221,358,o),
(197,480,o),
(209,638,c),
(225,647,o),
(248,645,o),
(254,663,cs),
(268,705,o),
(119,715,o),
(109,683,cs),
(97,645,o),
(164,662,o),
(164,621,cs),
(164,606,o),
(162,572,o),
(162,558,cs),
(162,297,o),
(165,329,o),
(155,148,cs),
(153,93,o),
(142,53,o),
(122,53,cs),
(82,53,o),
(113,187,o),
(60,159,cs),
(31,143,o),
(59,-6,o),
(125,-6,cs)
);
}
);
width = 290;
}
);
note = J;
unicode = 74;
},
{
glyphname = K;
lastChange = "2026-04-28 12:49:43 +0000";
layers = (
{
anchors = (
{
name = bottom;
pos = (148,0);
},
{
name = top;
pos = (148,715);
}
);
hints = (
{
horizontal = 1;
place = (25, 21);
target = up;
type = BottomGhost;
},
{
place = (136, 36);
place = (136, 36);
type = Stem;
},
{
place = (267, 23);
place = (267, 23);
type = Stem;
},
{
place = (259, 20);
place = (259, 20);
type = Stem;
}
);
layerId = m01;
shapes = (
{
closed = 1;
nodes = (
(138,5,o),
(126,141,o),
(128,177,c),
(187,85,o),
(198,36,o),
(218,10,c),
(252,0,o),
(269,-2,o),
(232,85,cs),
(210,138,o),
(170,205,o),
(170,256,cs),
(170,278,o),
(234,464,o),
(253,572,c),
(257,587,o),
(274,685,o),
(235,687,c),
(193,668,o),
(207,565,o),
(135,324,c),
(129,333,o),
(115,542,o),
(111,650,cs),
(108,733,o),
(60,745,o),
(60,650,cs),
(60,580,o),
(91,190,o),
(81,53,cs),
(80,40,o),
(74,5,o),
(102,5,cs)
);
}
);
width = 315;
}
);
note = K;
unicode = 75;
},
{
glyphname = L;
lastChange = "2026-04-28 12:49:43 +0000";
layers = (
{
anchors = (
{
name = bottom;
pos = (160,0);
},
{
name = center;
pos = (160,358);
},
{
name = top;
pos = (160,728);
},
{
name = topright;
pos = (290,715);
}
);
hints = (
{
horizontal = 1;
place = (12.45, 48.55);
place = (12.45, 48.55);
type = Stem;
},
{
place = (75, 44);
place = (75, 44);
type = Stem;
},
{
place = (92, 40);
place = (92, 40);
type = Stem;
}
);
layerId = m01;
shapes = (
{
closed = 1;
nodes = (
(119,1,o),
(236,5,o),
(236,44,cs),
(236,79,o),
(176,64,o),
(139,70,c),
(139,250,o),
(149,505,o),
(152,669,cs),
(152,742,o),
(105,719,o),
(102,678,cs),
(96,467,o),
(74,37,o),
(94,21,cs)
);
}
);
width = 310;
}
);
note = L;
unicode = 76;
},
{
glyphname = M;
lastChange = "2026-04-28 12:49:43 +0000";
layers = (
{
anchors = (
{
name = bottom;
pos = (285,0);
},
{
name = top;
pos = (285,715);
}
);
hints = (
{
place = (-20.29, 29.29);
place = (-20.29, 29.29);
type = Stem;
}
);
layerId = m01;
shapes = (
{
closed = 1;
nodes = (
(502,-4,o),
(507,20,o),
(507,46,c),
(493,246,o),
(479,447,o),
(463,647,cs),
(461,665,o),
(454,699,o),
(434,699,cs),
(415,699,o),
(399,675,o),
(393,658,cs),
(361,557,o),
(331,454,o),
(302,351,cs),
(293,322,o),
(288,276,o),
(281,246,c),
(273,255,o),
(251,457,o),
(241,541,cs),
(236,586,o),
(231,631,o),
(222,675,cs),
(219,687,o),
(203,704,o),
(191,704,cs),
(190,704,ls),
(182,704,o),
(167,688,o),
(161,677,cs),
(140,637,o),
(75,253,o),
(59,71,cs),
(57,46,o),
(45,23,o),
(75,10,cs),
(111,-6,o),
(110,61,o),
(114,87,cs),
(135,221,o),
(154,368,o),
(174,502,cs),
(176,514,o),
(176,529,o),
(185,548,c),
(197,534,o),
(225,241,o),
(244,134,c),
(256,83,o),
(296,92,o),
(305,133,cs),
(321,206,o),
(385,488,o),
(412,564,c),
(423,534,o),
(426,504,o),
(428,475,cs),
(438,333,o),
(447,191,o),
(458,50,cs),
(459,34,o),
(459,9,o),
(475,4,cs)
);
}
);
width = 552;
}
);
note = M;
unicode = 77;
},
{
glyphname = N;
lastChange = "2026-04-28 12:49:43 +0000";
layers = (
{
anchors = (
{
name = bottom;
pos = (200,0);
},
{
name = top;
pos = (201,723);
}
);
hints = (
{
place = (62, 43);
place = (62, 43);
type = Stem;
},
{
place = (75, 39.09);
place = (75, 39.09);
type = Stem;
},
{
place = (290, 35);
place = (290, 35);
type = Stem;
},
{
place = (291, 48);
place = (291, 48);
type = Stem;
}
);
layerId = m01;
shapes = (
{
closed = 1;
nodes = (
(114,-2,o),
(117,25,o),
(117,48,cs),
(117,50,ls),
(117,202,o),
(108,430,o),
(105,517,cs),
(105,609,l),
(119,602,o),
(124,585,o),
(207,269,cs),
(227,194,o),
(247,119,o),
(270,44,cs),
(273,34,o),
(286,19,o),
(298,19,cs),
(322,19,o),
(331,41,o),
(331,67,cs),
(336,267,o),
(335,434,o),
(339,633,cs),
(339,662,o),
(335,732,o),
(305,710,cs),
(284,695,o),
(291,659,o),
(291,633,cs),
(290,564,o),
(291,161,o),
(288,172,cs),
(270,235,ls),
(229,380,o),
(192,502,o),
(152,646,cs),
(145,669,o),
(135,715,o),
(98,715,cs),
(71,715,o),
(57,632,o),
(57,605,cs),
(60,423,o),
(65,230,o),
(70,48,cs),
(70,35,o),
(66,13,o),
(83,8,cs)
);
}
);
width = 400;
}
);
note = N;
unicode = 78;
},
{
glyphname = O;
lastChange = "2026-04-28 12:49:43 +0000";
layers = (
{
anchors = (
{
name = bottom;
pos = (151,0);
},
{
name = center;
pos = (151,358);
},
{
name = ogonek;
pos = (155,8);
},
{
name = top;
pos = (179,728);
},
{
name = topleft;
pos = (-19,715);
},
{
name = topright;
pos = (320,715);
}
);
hints = (
{
horizontal = 1;
place = (28.49, 45.51);
place = (28.49, 45.51);
type = Stem;
},
{
place = (90.28, 44.47);
place = (90.28, 44.47);
type = Stem;
},
{
place = (256.22, 41.11);
place = (256.22, 41.11);
type = Stem;
}
);
layerId = m01;
shapes = (
{
closed = 1;
nodes = (
(202,2,o),
(237,55,o),
(243,79,cs),
(262,157,o),
(268,246,o),
(268,445,cs),
(268,508,o),
(246,720,o),
(183,720,cs),
(114,720,o),
(74,576,o),
(68,410,cs),
(65,333,o),
(39,155,o),
(98,55,cs),
(117,22,o),
(130,0,o),
(167,0,cs)
);
},
{
closed = 1;
nodes = (
(107,83,o),
(106,244,o),
(115,329,cs),
(124,427,o),
(117,625,o),
(177,665,c),
(222,665,o),
(220,445,o),
(220,366,cs),
(220,301,o),
(221,50,o),
(159,50,c)
);
}
);
width = 330;
}
);
note = O;
unicode = 79;
},
{
glyphname = P;
lastChange = "2026-04-28 12:49:43 +0000";
layers = (
{
anchors = (
{
name = bottom;
pos = (150,0);
},
{
name = top;
pos = (150,715);
}
);
hints = (
{
place = (68, 30);
place = (68, 30);
type = Stem;
},
{
place = (197.28, 49.19);
place = (197.28, 49.19);
type = Stem;
},
{
place = (55.2, 53.8);
place = (55.2, 53.8);
type = Stem;
}
);
layerId = m01;
shapes = (
{
closed = 1;
nodes = (
(123,2,o),
(119,33,o),
(118,47,cs),
(116,85,o),
(106,142,o),
(120,161,cs),
(204,275,o),
(246,378,o),
(246,517,cs),
(246,632,o),
(184,741,o),
(94,719,c),
(69,717,o),
(55,687,o),
(55,660,cs),
(55,638,o),
(64,215,o),
(68,41,cs),
(68,28,o),
(68,2,o),
(82,2,cs)
);
},
{
closed = 1;
nodes = (
(109,676,l),
(193,656,o),
(197,555,o),
(197,466,cs),
(197,377,o),
(104,152,o),
(105,247,cs)
);
}
);
width = 300;
}
);
note = P;
unicode = 80;
},
{
glyphname = Q;
lastChange = "2026-04-28 12:49:43 +0000";
layers = (
{
anchors = (
{
name = bottom;
pos = (200,0);
},
{
name = top;
pos = (200,715);
}
);
hints = (
{
place = (72.15, 46.53);
place = (72.15, 46.53);
type = Stem;
},
{
place = (223.4, 65.56);
place = (223.4, 65.56);
type = Stem;
},
{
place = (270.31, 42.73);
place = (270.31, 42.73);
type = Stem;
}
);
layerId = m01;
shapes = (
{
closed = 1;
nodes = (
(221,1,o),
(243,36,o),
(262,49,c),
(280,34,o),
(291,7,o),
(312,7,cs),
(385,7,o),
(289,86,o),
(289,129,cs),
(289,131,ls),
(289,193,o),
(313,282,o),
(313,349,cs),
(313,443,o),
(300,538,o),
(285,630,cs),
(278,672,o),
(252,718,o),
(202,717,cs),
(113,718,o),
(88,538,o),
(72,340,cs),
(69,302,o),
(72,131,o),
(127,51,cs),
(147,21,o),
(162,1,o),
(186,1,cs)
);
},
{
closed = 1;
nodes = (
(134,116,o),
(119,253,o),
(119,324,cs),
(119,452,o),
(162,669,o),
(199,669,cs),
(265,669,o),
(272,390,o),
(266,332,cs),
(263,289,o),
(256,247,o),
(251,203,c),
(236,209,o),
(225,240,o),
(201,226,cs),
(179,213,o),
(223,116,o),
(223,104,cs),
(223,85,o),
(214,68,o),
(193,52,c)
);
}
);
width = 400;
}
);
note = Q;
unicode = 81;
},
{
glyphname = R;
lastChange = "2026-04-28 12:49:43 +0000";
layers = (
{
anchors = (
{
name = bottom;
pos = (159,0);
},
{
name = top;
pos = (138,715);
}
);
hints = (
{
horizontal = 1;
place = (24, 21);
target = up;
type = BottomGhost;
},
{
place = (54, 35.14);
place = (54, 35.14);
type = Stem;
},
{
place = (181.11, 42.02);
place = (181.11, 42.02);
type = Stem;
},
{
place = (54, 44);
place = (54, 44);
type = Stem;
}
);
layerId = m01;
shapes = (
{
closed = 1;
nodes = (
(96,3,o),
(89,58,o),
(89,102,cs),
(89,141,o),
(139,193,o),
(175,147,cs),
(194,123,o),
(238,15,o),
(253,15,cs),
(317,15,o),
(219,170,o),
(167,218,c),
(184,245,o),
(243,423,o),
(243,515,cs),
(243,616,o),
(167,718,o),
(61,718,cs),
(34,718,o),
(48,198,o),
(45,102,cs),
(45,91,o),
(34,30,o),
(57,5,c)
);
},
{
closed = 1;
nodes = (
(98,659,l),
(167,633,o),
(191,564,o),
(191,511,cs),
(191,403,o),
(98,189,o),
(98,233,cs)
);
}
);
width = 330;
}
);
note = R;
unicode = 82;
},
{
glyphname = S;
lastChange = "2026-04-28 12:49:43 +0000";
layers = (
{
anchors = (
{
name = bottom;
pos = (150,10);
},
{
name = top;
pos = (150,715);
}
);
hints = (
{
place = (97, 53);
place = (97, 53);
type = Stem;
},
{
place = (174, 44);
place = (174, 44);
type = Stem;
}
);
layerId = m01;
shapes = (
{
closed = 1;
nodes = (
(184,0,o),
(218,44,o),
(218,110,cs),
(218,170,o),
(150,494,o),
(150,542,cs),
(150,586,o),
(161,632,o),
(198,668,cs),
(215,685,o),
(174,754,o),
(119,675,cs),
(104,653,o),
(97,577,o),
(97,552,c),
(112,444,o),
(159,204,o),
(174,112,c),
(174,91,o),
(170,76,o),
(148,60,c),
(121,77,o),
(116,85,o),
(95,77,cs),
(51,60,o),
(112,0,o),
(143,0,cs)
);
}
);
width = 300;
}
);
note = S;
unicode = 83;
},
{
glyphname = T;
lastChange = "2026-04-28 12:49:43 +0000";
layers = (
{
anchors = (
{
name = bottom;
pos = (149,4);
},
{
name = center;
pos = (134,358);
},
{
name = top;
pos = (134,725);
}
);
hints = (
{
horizontal = 1;
place = (686.15, 38.52);
place = (686.15, 38.52);
type = Stem;
},
{
place = (76, 36.92);
place = (76, 36.92);
type = Stem;
},
{
place = (89, 40.08);
place = (89, 40.08);
type = Stem;
}
);
layerId = m01;
shapes = (
{
closed = 1;
nodes = (
(169,241,o),
(152,449,o),
(152,636,cs),
(152,670,o),
(155,680,o),
(191,680,cs),
(264,680,o),
(223,725,o),
(146,725,cs),
(20,725,o),
(19,680,o),
(104,673,c),
(106,652,o),
(110,629,o),
(110,605,cs),
(115,425,o),
(118,224,o),
(123,43,cs),
(123,-8,o),
(169,-16,o),
(169,25,cs)
);
}
);
width = 284;
}
);
note = T;
unicode = 84;
},
{
glyphname = U;
lastChange = "2026-04-28 12:49:43 +0000";
layers = (
{
anchors = (
{
name = bottom;
pos = (192,1);
},
{
name = ogonek;
pos = (189,26);
},
{
name = top;
pos = (185,741);
},
{
name = topright;
pos = (380,715);
}
);
hints = (
{
place = (64.7, 52.64);
place = (64.7, 52.64);
type = Stem;
},
{
place = (81.39, 47.74);
place = (81.39, 47.74);
type = Stem;
},
{
place = (236, 51.75);
place = (236, 51.75);
type = Stem;
},
{
place = (248, 44);
place = (248, 44);
type = Stem;
}
);
layerId = m01;
shapes = (
{
closed = 1;
nodes = (
(165,-1,o),
(229,-17,o),
(251,64,cs),
(285,191,o),
(288,319,o),
(288,472,cs),
(288,591,o),
(288,626,o),
(292,686,c),
(292,727,o),
(239,727,o),
(236,666,cs),
(231,504,o),
(226,79,o),
(196,63,c),
(124,72,o),
(117,325,o),
(117,389,cs),
(117,481,o),
(129,606,o),
(129,686,cs),
(129,740,o),
(64,739,o),
(80,682,cs),
(83,669,o),
(65,459,o),
(65,369,cs),
(65,291,o),
(80,106,o),
(133,39,cs)
);
}
);
width = 352;
}
);
note = U;
unicode = 85;
},
{
glyphname = V;
lastChange = "2026-04-28 12:49:43 +0000";
layers = (
{
anchors = (
{
name = bottom;
pos = (150,0);
},
{
name = top;
pos = (150,715);
}
);
hints = (
{
place = (19, 22);
place = (19, 22);
type = Stem;
}
);
layerId = m01;
shapes = (
{
closed = 1;
nodes = (
(179,1,o),
(175,52,o),
(181,80,cs),
(216,270,o),
(250,479,o),
(283,673,c),
(283,740,o),
(240,696,o),
(236,673,cs),
(212,547,o),
(188,390,o),
(166,263,cs),
(159,225,o),
(154,188,o),
(148,150,c),
(133,191,o),
(131,230,o),
(125,270,cs),
(105,388,o),
(80,574,o),
(61,694,cs),
(53,745,o),
(6,730,o),
(19,642,cs),
(48,458,o),
(78,245,o),
(110,62,cs),
(113,43,o),
(123,1,o),
(142,1,cs)
);
}
);
width = 300;
}
);
note = V;
unicode = 86;
},
{
glyphname = W;
lastChange = "2026-04-28 12:49:43 +0000";
layers = (
{
anchors = (
{
name = bottom;
pos = (240,0);
},
{
name = top;
pos = (240,715);
}
);
layerId = m01;
shapes = (
{
closed = 1;
nodes = (
(188,7,o),
(194,57,o),
(242,137,c),
(267,70,o),
(285,10,o),
(312,10,cs),
(336,10,o),
(341,57,o),
(346,70,cs),
(356,95,o),
(459,641,o),
(465,665,cs),
(478,715,o),
(432,736,o),
(424,701,cs),
(383,509,o),
(349,304,o),
(307,113,c),
(285,133,o),
(264,206,o),
(242,206,cs),
(204,206,o),
(188,135,o),
(169,103,c),
(120,310,o),
(99,471,o),
(62,670,cs),
(60,686,o),
(32,735,o),
(17,690,c),
(17,624,o),
(94,198,o),
(124,60,cs),
(127,47,o),
(139,7,o),
(164,7,cs)
);
}
);
width = 490;
}
);
note = W;
unicode = 87;
},
{
glyphname = X;
lastChange = "2026-04-28 12:49:43 +0000";
layers = (
{
anchors = (
{
name = bottom;
pos = (230,0);
},
{
name = top;
pos = (230,715);
}
);
hints = (
{
place = (26, 27);
place = (26, 27);
type = Stem;
},
{
place = (176.13, 73.9);
place = (176.13, 73.9);
type = Stem;
}
);
layerId = m01;
shapes = (
{
closed = 1;
nodes = (
(360,-8,o),
(302,88,o),
(267,153,cs),
(242,199,o),
(246,237,o),
(270,283,cs),
(327,395,o),
(370,557,o),
(402,678,cs),
(408,707,o),
(406,734,o),
(374,724,cs),
(332,711,o),
(289,417,o),
(216,281,c),
(158,421,o),
(114,725,o),
(77,730,cs),
(31,737,o),
(42,704,o),
(53,658,cs),
(75,554,o),
(111,405,o),
(154,308,cs),
(182,245,o),
(186,185,o),
(148,128,cs),
(118,80,o),
(87,10,o),
(120,8,cs),
(154,6,o),
(182,97,o),
(214,142,c),
(249,97,o),
(283,-8,o),
(315,-8,cs)
);
}
);
width = 460;
}
);
note = X;
unicode = 88;
},
{
glyphname = Y;
lastChange = "2026-04-28 12:49:43 +0000";
layers = (
{
anchors = (
{
name = bottom;
pos = (200,0);
},
{
name = top;
pos = (200,715);
},
{
name = topleft;
pos = (20,715);
}
);
hints = (
{
place = (205, 37.14);
place = (205, 37.14);
type = Stem;
}
);
layerId = m01;
shapes = (
{
closed = 1;
nodes = (
(256,50,o),
(276,121,o),
(282,144,cs),
(321,311,o),
(391,687,o),
(367,703,cs),
(330,728,o),
(331,701,o),
(321,659,cs),
(295,551,o),
(315,484,o),
(249,215,c),
(217,234,o),
(108,679,o),
(68,711,cs),
(55,721,o),
(45,701,o),
(45,681,cs),
(45,609,o),
(162,319,o),
(219,159,c),
(241,132,o),
(186,65,o),
(187,27,cs),
(187,18,o),
(215,-22,o),
(238,19,cs)
);
}
);
width = 406;
}
);
note = Y;
unicode = 89;
},
{
glyphname = Z;
lastChange = "2026-04-28 12:49:43 +0000";
layers = (
{
anchors = (
{
name = bottom;
pos = (189,0);
},
{
name = center;
pos = (189,358);
},
{
name = top;
pos = (207,734);
}
);
hints = (
{
horizontal = 1;
place = (15, 42.51);
place = (15, 42.51);
type = Stem;
},
{
horizontal = 1;
place = (692, 34.06);
place = (692, 34.06);
type = Stem;
},
{
place = (0.75, 299.8);
place = (0.75, 299.8);
type = Stem;
}
);
layerId = m01;
shapes = (
{
closed = 1;
nodes = (
(316,6,o),
(314,49,o),
(285,49,cs),
(221,49,o),
(124,51,o),
(97,64,c),
(111,97,o),
(287,500,o),
(331,620,cs),
(349,670,o),
(337,689,o),
(285,695,cs),
(227,701,o),
(169,707,o),
(111,707,cs),
(109,707,ls),
(65,707,o),
(69,717,o),
(69,673,c),
(120,645,o),
(212,660,o),
(290,653,c),
(278,579,o),
(120,287,o),
(47,70,cs),
(33,30,o),
(38,14,o),
(82,12,cs),
(141,9,o),
(201,6,o),
(261,6,cs)
);
}
);
width = 369;
}
);
note = Z;
unicode = 90;
},
{
glyphname = bracketleft;
lastChange = "2026-04-28 12:49:43 +0000";
layers = (
{
hints = (
{
horizontal = 1;
place = (-24.83, 55.99);
place = (-24.83, 55.99);
type = Stem;
},
{
horizontal = 1;
place = (623.99, 52.9);
place = (623.99, 52.9);
type = Stem;
},
{
place = (124, 59);
place = (124, 59);
type = Stem;
},
{
place = (135, 48);
place = (135, 48);
type = Stem;
}
);
layerId = m01;
shapes = (
{
closed = 1;
nodes = (
(278,5,o),
(253,67,o),
(210,62,c),
(178,54,o),
(159,74,o),
(159,117,cs),
(159,130,o),
(158,143,o),
(158,608,cs),
(158,642,o),
(168,661,o),
(199,653,c),
(220,650,o),
(232,684,o),
(212,695,c),
(165,726,o),
(113,693,o),
(110,646,cs),
(99,372,o),
(94,333,o),
(110,63,cs),
(112,29,o),
(134,11,o),
(167,8,cs),
(209,5,l)
);
}
);
width = 332;
}
);
note = bracketleft;
unicode = 91;
},
{
glyphname = bracketright;
lastChange = "2026-04-28 12:49:43 +0000";
layers = (
{
hints = (
{
horizontal = 1;
place = (-30, 51);
place = (-30, 51);
type = Stem;
},
{
horizontal = 1;
place = (618.08, 56.61);
place = (618.08, 56.61);
type = Stem;
},
{
place = (117.89, 52);
place = (117.89, 52);
type = Stem;
}
);
layerId = m01;
shapes = (
{
closed = 1;
nodes = (
(187,-2,o),
(220,33,o),
(224,96,cs),
(245,431,o),
(250,606,o),
(249,616,cs),
(245,672,o),
(212,705,o),
(166,705,cs),
(82,705,o),
(83,636,o),
(166,648,c),
(187,648,o),
(196,640,o),
(197,621,cs),
(197,441,o),
(181,307,o),
(171,137,cs),
(167,69,o),
(168,70,o),
(103,51,c),
(55,41,o),
(90,-2,o),
(131,-2,cs)
);
}
);
width = 349;
}
);
note = bracketright;
unicode = 93;
},
{
glyphname = asciicircum;
lastChange = "2026-04-28 12:49:43 +0000";
layers = (
{
hints = (
{
horizontal = 1;
place = (615, 155.32);
place = (615, 155.32);
type = Stem;
},
{
place = (138, 250.41);
place = (138, 250.41);
type = Stem;
}
);
layerId = m01;
shapes = (
{
closed = 1;
nodes = (
(290,616,o),
(304,660,o),
(286,678,cs),
(263,701,o),
(194,770,o),
(162,770,cs),
(127,770,o),
(71,684,o),
(50,656,cs),
(25,627,o),
(70,595,o),
(104,633,cs),
(125,656,o),
(143,682,o),
(172,717,c),
(196,684,o),
(221,648,o),
(259,631,cs)
);
}
);
width = 340;
}
);
note = asciicircum;
unicode = 94;
},
{
glyphname = underscore;
lastChange = "2026-04-28 12:49:43 +0000";
layers = (
{
hints = (
{
horizontal = 1;
place = (16.44, 49.78);
place = (16.44, 49.78);
type = Stem;
}
);
layerId = m01;
shapes = (
{
closed = 1;
nodes = (
(74,12,o),
(312,11,o),
(396,16,c),
(443,49,o),
(437,70,o),
(380,73,c),
(374,74,o),
(232,60,o),
(64,65,cs),
(27,66,o),
(35,31,o),
(68,15,cs)
);
}
);
width = 467;
}
);
note = underscore;
unicode = 95;
},
{
glyphname = grave;
lastChange = "2026-04-28 12:49:43 +0000";
layers = (
{
hints = (
{
horizontal = 1;
place = (561, 222.98);
place = (561, 222.98);
type = Stem;
}
);
layerId = m01;
shapes = (
{
closed = 1;
nodes = (
(124,590,o),
(150,607,o),
(150,617,cs),
(150,659,o),
(92,695,o),
(52,695,cs),
(40,695,o),
(29,692,o),
(20,684,c),
(54,645,o),
(92,637,o),
(120,596,cs)
);
}
);
width = 170;
}
);
note = grave;
unicode = 96;
},
{
glyphname = a;
lastChange = "2026-04-28 12:49:43 +0000";
layers = (
{
anchors = (
{
name = bottom;
pos = (153,0);
},
{
name = ogonek;
pos = (237,32);
},
{
name = top;
pos = (153,364);
}
);
hints = (
{
horizontal = 1;
place = (19.74, 45.43);
place = (19.74, 45.43);
type = Stem;
},
{
horizontal = 1;
place = (187.5, 45.69);
place = (187.5, 45.69);
type = Stem;
},
{
horizontal = 1;
place = (307.33, 42.98);
place = (307.33, 42.98);
type = Stem;
},
{
place = (32.33, 46.71);
place = (32.33, 46.71);
type = Stem;
},
{
place = (215, 38);
place = (215, 38);
type = Stem;
}
);
layerId = m01;
shapes = (
{
closed = 1;
nodes = (
(163,28,o),
(187,44,o),
(212,56,c),
(212,-18,o),
(266,-7,o),
(259,49,cs),
(255,92,o),
(250,136,o),
(249,180,cs),
(245,268,o),
(221,360,o),
(133,360,cs),
(111,360,o),
(88,353,o),
(69,338,cs),
(28,308,o),
(66,284,o),
(94,304,cs),
(157,348,o),
(205,268,o),
(205,216,c),
(181,226,o),
(167,233,o),
(143,233,cs),
(81,233,o),
(40,177,o),
(40,119,cs),
(40,45,o),
(98,11,o),
(136,21,cs)
);
},
{
closed = 1;
nodes = (
(110,64,o),
(87,74,o),
(87,121,cs),
(87,167,o),
(123,188,o),
(144,188,cs),
(157,188,o),
(168,181,o),
(199,146,c),
(191,109,o),
(173,82,o),
(137,68,c)
);
}
);
width = 300;
}
);
note = a;
unicode = 97;
},
{
glyphname = b;
lastChange = "2026-04-28 12:49:43 +0000";
layers = (
{
anchors = (
{
name = bottom;
pos = (163,0);
},
{
name = center;
pos = (163,179);
},
{
name = top;
pos = (163,357);
}
);
hints = (
{
horizontal = 1;
place = (31.88, 47.47);
place = (31.88, 47.47);
type = Stem;
},
{
horizontal = 1;
place = (337.2, 45.71);
place = (337.2, 45.71);
type = Stem;
},
{
place = (57, 43);
place = (57, 43);
type = Stem;
}
);
layerId = m01;
shapes = (
{
closed = 1;
nodes = (
(107,16,o),
(100,35,o),
(102,59,c),
(121,47,o),
(141,22,o),
(169,22,cs),
(253,22,o),
(280,117,o),
(280,197,cs),
(280,271,o),
(258,383,o),
(174,383,cs),
(147,383,o),
(125,369,o),
(100,359,c),
(101,457,o),
(102,443,o),
(104,541,cs),
(104,579,o),
(58,586,o),
(58,541,cs),
(58,50,o),
(57,508,o),
(60,27,cs),
(60,-6,o),
(80,-10,o),
(98,7,cs)
);
},
{
closed = 1;
nodes = (
(122,68,o),
(100,162,o),
(100,208,cs),
(100,241,o),
(109,274,o),
(125,307,cs),
(133,325,o),
(148,337,o),
(169,337,c),
(230,331,o),
(237,250,o),
(237,195,cs),
(237,144,o),
(229,77,o),
(176,70,c)
);
}
);
width = 325;
}
);
note = b;
unicode = 98;
},
{
glyphname = c;
lastChange = "2026-04-28 12:49:43 +0000";
layers = (
{
anchors = (
{
name = bottom;
pos = (128,0);
},
{
name = top;
pos = (138,396);
}
);
hints = (
{
horizontal = 1;
place = (1.48, 45.91);
place = (1.48, 45.91);
type = Stem;
},
{
horizontal = 1;
place = (317.2, 63.8);
place = (317.2, 63.8);
type = Stem;
},
{
place = (18.12, 44.57);
place = (18.12, 44.57);
type = Stem;
}
);
layerId = m01;
shapes = (
{
closed = 1;
nodes = (
(166,1,o),
(197,17,o),
(214,47,cs),
(221,62,o),
(215,91,o),
(182,76,cs),
(169,70,o),
(146,47,o),
(131,47,cs),
(94,47,o),
(75,125,o),
(75,178,cs),
(75,240,o),
(89,307,o),
(140,341,c),
(203,272,o),
(205,374,o),
(146,381,cs),
(67,390,o),
(30,249,o),
(30,178,cs),
(30,100,o),
(58,1,o),
(136,1,cs)
);
}
);
width = 247;
}
);
note = c;
unicode = 99;
},
{
glyphname = d;
lastChange = "2026-04-28 12:49:43 +0000";
layers = (
{
anchors = (
{
name = bottom;
pos = (156,0);
},
{
name = center;
pos = (156,179);
},
{
name = top;
pos = (234,561);
},
{
name = topright;
pos = (362,532);
}
);
hints = (
{
horizontal = 1;
place = (1.15, 47.31);
place = (1.15, 47.31);
type = Stem;
},
{
horizontal = 1;
place = (306.18, 46.7);
place = (306.18, 46.7);
type = Stem;
},
{
place = (211, 47);
place = (211, 47);
type = Stem;
}
);
layerId = m01;
shapes = (
{
closed = 1;
nodes = (
(232,-24,o),
(252,-17,o),
(254,14,cs),
(260,221,o),
(256,307,o),
(256,511,c),
(253,552,o),
(210,551,o),
(210,510,cs),
(210,489,o),
(211,468,o),
(211,446,cs),
(211,330,l),
(171,345,o),
(163,353,o),
(140,353,cs),
(54,353,o),
(34,239,o),
(34,165,cs),
(34,84,o),
(63,1,o),
(144,1,cs),
(170,1,o),
(196,27,o),
(212,39,c),
(214,21,o),
(207,4,o),
(216,-6,cs)
);
},
{
closed = 1;
nodes = (
(83,57,o),
(86,115,o),
(78,169,c),
(83,200,o),
(78,306,o),
(140,306,cs),
(195,306,o),
(214,232,o),
(214,179,cs),
(214,138,o),
(193,48,o),
(144,48,c)
);
}
);
width = 312;
}
);
note = d;
unicode = 100;
},
{
glyphname = e;
lastChange = "2026-04-28 12:49:43 +0000";
layers = (
{
anchors = (
{
name = bottom;
pos = (174,0);
},
{
name = ogonek;
pos = (197,30);
},
{
name = top;
pos = (174,357);
}
);
hints = (
{
horizontal = 1;
place = (4.7, 47.28);
place = (4.7, 47.28);
type = Stem;
},
{
horizontal = 1;
place = (124.17, 45.92);
place = (124.17, 45.92);
type = Stem;
},
{
horizontal = 1;
place = (305.71, 44.94);
place = (305.71, 44.94);
type = Stem;
},
{
place = (30.89, 54.85);
place = (30.89, 54.85);
type = Stem;
},
{
place = (200, 42.67);
place = (200, 42.67);
type = Stem;
}
);
layerId = m01;
shapes = (
{
closed = 1;
nodes = (
(221,5,o),
(258,24,o),
(272,55,cs),
(280,71,o),
(280,99,o),
(237,82,cs),
(216,74,o),
(221,52,o),
(178,52,cs),
(142,52,o),
(117,84,o),
(110,136,c),
(129,128,o),
(146,124,o),
(163,124,cs),
(235,124,o),
(273,189,o),
(273,247,cs),
(273,309,o),
(226,351,o),
(177,351,cs),
(139,351,o),
(102,326,o),
(82,281,cs),
(38,177,o),
(63,5,o),
(179,5,cs)
);
},
{
closed = 1;
nodes = (
(140,162,o),
(116,191,o),
(116,224,cs),
(116,262,o),
(148,306,o),
(177,306,cs),
(191,306,o),
(226,293,o),
(230,250,c),
(230,208,o),
(208,180,o),
(168,171,c)
);
}
);
width = 338;
}
);
note = e;
unicode = 101;
},
{
glyphname = f;
lastChange = "2026-04-28 12:49:43 +0000";
layers = (
{
anchors = (
{
name = bottom;
pos = (135,0);
},
{
name = top;
pos = (135,800);
}
);
hints = (
{
horizontal = 1;
place = (305.56, 43.44);
place = (305.56, 43.44);
type = Stem;
},
{
horizontal = 1;
place = (517, 48.33);
place = (517, 48.33);
type = Stem;
},
{
place = (108, 48.56);
place = (108, 48.56);
type = Stem;
},
{
place = (116, 45);
place = (116, 45);
type = Stem;
}
);
layerId = m01;
shapes = (
{
closed = 1;
nodes = (
(119,-10,o),
(161,-9,o),
(161,36,cs),
(156,144,o),
(157,198,o),
(157,306,c),
(228,306,ls),
(266,306,o),
(273,349,o),
(225,349,cs),
(151,349,l),
(152,409,o),
(149,467,o),
(167,525,c),
(250,492,o),
(226,565,o),
(171,565,cs),
(150,565,o),
(131,552,o),
(124,528,cs),
(110,487,o),
(108,390,o),
(106,353,c),
(63,353,ls),
(28,353,o),
(27,310,o),
(64,310,cs),
(108,310,l),
(111,199,o),
(113,117,o),
(116,35,cs)
);
}
);
width = 270;
}
);
note = f;
unicode = 102;
},
{
glyphname = g;
lastChange = "2026-04-28 12:49:43 +0000";
layers = (
{
anchors = (
{
name = bottom;
pos = (163,-200);
},
{
name = top;
pos = (173,374);
}
);
hints = (
{
horizontal = 1;
place = (-181.41, 44.16);
place = (-181.41, 44.16);
type = Stem;
},
{
horizontal = 1;
place = (9.71, 45.24);
place = (9.71, 45.24);
type = Stem;
},
{
horizontal = 1;
place = (313.16, 44.1);
place = (313.16, 44.1);
type = Stem;
},
{
place = (43.25, 43.75);
place = (43.25, 43.75);
type = Stem;
},
{
place = (214.25, 51.31);
place = (214.25, 51.31);
type = Stem;
}
);
layerId = m01;
shapes = (
{
closed = 1;
nodes = (
(235,-192,o),
(248,-150,o),
(252,-112,cs),
(265,49,o),
(261,186,o),
(261,349,cs),
(261,379,o),
(231,407,o),
(218,340,c),
(193,353,o),
(177,357,o),
(152,357,cs),
(87,357,o),
(43,257,o),
(43,180,cs),
(43,110,o),
(74,10,o),
(154,10,cs),
(169,10,o),
(202,20,o),
(214,24,c),
(214,-69,o),
(213,-102,o),
(202,-133,cs),
(197,-148,o),
(192,-157,o),
(167,-157,c),
(123,-96,o),
(72,-197,o),
(194,-197,c)
);
},
{
closed = 1;
nodes = (
(108,50,o),
(87,136,o),
(87,184,cs),
(87,224,o),
(108,313,o),
(158,313,cs),
(224,313,o),
(224,228,o),
(224,194,cs),
(224,161,o),
(210,60,o),
(158,55,cs)
);
}
);
width = 326;
}
);
note = g;
unicode = 103;
},
{
glyphname = h;
lastChange = "2026-04-28 12:49:43 +0000";
layers = (
{
anchors = (
{
name = bottom;
pos = (173,0);
},
{
name = center;
pos = (173,400);
},
{
name = top;
pos = (173,800);
}
);
hints = (
{
horizontal = 1;
place = (353.3, -20);
target = down;
type = TopGhost;
},
{
place = (58, 42);
place = (58, 42);
type = Stem;
},
{
place = (222, 47);
place = (222, 47);
type = Stem;
}
);
layerId = m01;
shapes = (
{
closed = 1;
nodes = (
(115,168,o),
(132,308,o),
(178,308,cs),
(200,308,o),
(209,266,o),
(211,245,cs),
(217,179,o),
(219,113,o),
(222,47,cs),
(222,-6,o),
(269,-18,o),
(269,39,cs),
(268,95,o),
(269,151,o),
(264,206,cs),
(260,256,o),
(266,346,o),
(181,353,cs),
(132,357,o),
(121,323,o),
(100,298,c),
(100,522,ls),
(100,563,o),
(56,572,o),
(56,523,cs),
(56,128,o),
(58,435,o),
(55,40,cs),
(55,-3,o),
(99,-6,o),
(102,39,cs)
);
}
);
width = 346;
}
);
note = h;
unicode = 104;
},
{
glyphname = k;
lastChange = "2026-04-28 12:49:43 +0000";
layers = (
{
anchors = (
{
name = bottom;
pos = (176,0);
},
{
name = top;
pos = (176,800);
}
);
hints = (
{
place = (62.96, 42.46);
place = (62.96, 42.46);
type = Stem;
},
{
place = (216, 45.13);
place = (216, 45.13);
type = Stem;
},
{
place = (60, 93.5);
place = (60, 93.5);
type = Stem;
},
{
place = (53.88, 46.37);
place = (53.88, 46.37);
type = Stem;
}
);
layerId = m01;
shapes = (
{
closed = 1;
nodes = (
(235,-10,o),
(283,-10,o),
(261,41,cs),
(233,102,o),
(160,253,o),
(160,301,cs),
(160,330,o),
(170,359,o),
(197,390,cs),
(222,418,o),
(189,463,o),
(160,410,cs),
(143,383,o),
(127,356,o),
(107,322,c),
(107,410,o),
(110,470,o),
(111,558,cs),
(111,595,o),
(69,595,o),
(69,554,cs),
(60,33,ls),
(60,-10,o),
(106,-12,o),
(106,35,cs),
(104,129,o),
(93,156,o),
(119,253,c),
(135,223,o),
(199,70,o),
(222,19,cs)
);
}
);
width = 327;
}
);
note = k;
unicode = 107;
},
{
glyphname = l;
lastChange = "2026-04-28 12:49:43 +0000";
layers = (
{
anchors = (
{
name = bottom;
pos = (115,0);
},
{
name = center;
pos = (115,400);
},
{
name = top;
pos = (91,605);
},
{
name = topright;
pos = (208,597);
}
);
hints = (
{
horizontal = 1;
place = (11.52, 52.34);
place = (11.52, 52.34);
type = Stem;
},
{
horizontal = 1;
place = (599, -20);
target = down;
type = TopGhost;
},
{
place = (56.85, 48.15);
place = (56.85, 48.15);
type = Stem;
},
{
place = (69.21, 43.79);
place = (69.21, 43.79);
type = Stem;
}
);
layerId = m01;
shapes = (
{
closed = 1;
nodes = (
(165,12,o),
(195,53,o),
(148,63,cs),
(145,64,o),
(122,63,o),
(112,62,c),
(97,99,o),
(113,568,o),
(108,584,cs),
(101,607,o),
(68,597,o),
(68,573,cs),
(68,354,o),
(47,99,o),
(66,61,cs),
(80,33,o),
(97,12,o),
(124,12,cs)
);
}
);
width = 229;
}
);
note = l;
unicode = 108;
},
{
glyphname = m;
lastChange = "2026-04-28 12:49:43 +0000";
layers = (
{
anchors = (
{
name = bottom;
pos = (220,0);
},
{
name = top;
pos = (220,357);
}
);
hints = (
{
horizontal = 1;
place = (337.74, 21);
target = up;
type = BottomGhost;
},
{
place = (55.92, 47.08);
place = (55.92, 47.08);
type = Stem;
},
{
place = (181.2, 44.8);
place = (181.2, 44.8);
type = Stem;
},
{
place = (319, 45);
place = (319, 45);
type = Stem;
},
{
horizontal = 1;
place = (291, 50);
place = (291, 50);
type = Stem;
}
);
layerId = m01;
shapes = (
{
closed = 1;
nodes = (
(362,105,o),
(361,176,o),
(356,247,cs),
(350,319,o),
(311,425,o),
(217,293,c),
(175,360,o),
(153,354,o),
(102,293,c),
(101,308,o),
(101,318,o),
(100,328,cs),
(94,372,o),
(59,366,o),
(59,334,cs),
(59,236,o),
(57,144,o),
(56,48,cs),
(56,-2,o),
(99,-14,o),
(103,50,cs),
(105,124,o),
(105,196,o),
(134,265,cs),
(161,325,o),
(193,273,o),
(181,189,c),
(177,128,o),
(179,98,o),
(177,52,cs),
(177,1,o),
(223,-1,o),
(226,50,cs),
(230,131,o),
(220,197,o),
(253,271,cs),
(265,298,o),
(305,337,o),
(309,248,cs),
(314,178,o),
(316,107,o),
(319,36,cs),
(322,-9,o),
(364,-5,o),
(364,34,cs)
);
}
);
width = 439;
}
);
note = m;
unicode = 109;
},
{
glyphname = n;
lastChange = "2026-04-28 12:49:43 +0000";
layers = (
{
anchors = (
{
name = bottom;
pos = (164,0);
},
{
name = top;
pos = (164,357);
}
);
hints = (
{
horizontal = 1;
place = (325.79, 21);
target = up;
type = BottomGhost;
},
{
place = (59, 43);
place = (59, 43);
type = Stem;
},
{
place = (225, 47);
place = (225, 47);
type = Stem;
}
);
layerId = m01;
shapes = (
{
closed = 1;
nodes = (
(271,86,o),
(272,146,o),
(266,206,cs),
(263,240,o),
(253,275,o),
(239,305,cs),
(216,353,o),
(175,358,o),
(135,325,cs),
(124,316,o),
(102,269,o),
(102,289,cs),
(102,323,ls),
(102,360,o),
(59,360,o),
(59,323,cs),
(58,226,o),
(58,129,o),
(58,32,cs),
(58,-11,o),
(102,-14,o),
(105,31,cs),
(108,61,o),
(123,213,o),
(142,255,cs),
(176,331,o),
(214,291,o),
(219,212,cs),
(223,150,o),
(223,89,o),
(225,27,cs),
(228,-20,o),
(272,-15,o),
(272,26,cs)
);
}
);
width = 328;
}
);
note = n;
unicode = 110;
},
{
glyphname = o;
lastChange = "2026-04-28 12:49:43 +0000";
layers = (
{
anchors = (
{
name = bottom;
pos = (148,0);
},
{
name = center;
pos = (148,179);
},
{
name = ogonek;
pos = (266,10);
},
{
name = top;
pos = (148,357);
},
{
name = topright;
pos = (276,357);
}
);
hints = (
{
horizontal = 1;
place = (6, 46);
place = (6, 46);
type = Stem;
},
{
horizontal = 1;
place = (310, 47);
place = (310, 47);
type = Stem;
},
{
place = (39, 43);
place = (39, 43);
type = Stem;
}
);
layerId = m01;
shapes = (
{
closed = 1;
nodes = (
(202,12,o),
(230,35,o),
(240,72,cs),
(258,132,o),
(262,172,o),
(262,198,cs),
(262,264,o),
(243,336,o),
(173,354,c),
(80,363,o),
(39,270,o),
(39,177,cs),
(39,92,o),
(84,-9,o),
(163,7,c)
);
},
{
closed = 1;
nodes = (
(101,52,o),
(82,133,o),
(82,180,cs),
(82,226,o),
(104,310,o),
(152,310,c),
(212,302,o),
(218,251,o),
(218,192,cs),
(218,116,o),
(179,52,o),
(152,52,cs)
);
}
);
width = 296;
}
);
note = o;
unicode = 111;
},
{
glyphname = p;
lastChange = "2026-04-28 12:49:43 +0000";
layers = (
{
anchors = (
{
name = bottom;
pos = (153,0);
},
{
name = top;
pos = (153,357);
}
);
hints = (
{
horizontal = 1;
place = (2.87, 45.96);
place = (2.87, 45.96);
type = Stem;
},
{
horizontal = 1;
place = (306.54, 48.15);
place = (306.54, 48.15);
type = Stem;
},
{
place = (47, 43);
place = (47, 43);
type = Stem;
}
);
layerId = m01;
shapes = (
{
closed = 1;
nodes = (
(47,-229,o),
(91,-202,o),
(91,-158,cs),
(91,-19,o),
(90,-112,o),
(90,27,c),
(134,9,o),
(137,3,o),
(163,3,cs),
(247,3,o),
(268,115,o),
(268,191,cs),
(268,270,o),
(235,355,o),
(158,355,cs),
(132,355,o),
(106,329,o),
(90,317,c),
(88,334,o),
(87,349,o),
(86,362,c),
(63,372,o),
(48,375,o),
(48,342,cs),
(47,175,o),
(47,9,o),
(47,-158,cs)
);
},
{
closed = 1;
nodes = (
(106,47,o),
(88,136,o),
(88,178,cs),
(88,219,o),
(109,307,o),
(165,306,c),
(218,300,o),
(224,242,o),
(224,187,cs),
(224,156,o),
(214,51,o),
(158,49,cs)
);
}
);
width = 306;
}
);
note = p;
unicode = 112;
},
{
glyphname = q;
lastChange = "2026-04-28 12:49:43 +0000";
layers = (
{
anchors = (
{
name = bottom;
pos = (195,0);
},
{
name = top;
pos = (195,357);
}
);
hints = (
{
horizontal = 1;
place = (-129.5, 44.5);
place = (-129.5, 44.5);
type = Stem;
},
{
horizontal = 1;
place = (-1.13, 46.72);
place = (-1.13, 46.72);
type = Stem;
},
{
horizontal = 1;
place = (364.96, -20);
target = down;
type = TopGhost;
},
{
place = (230, 45);
place = (230, 45);
type = Stem;
},
{
horizontal = 1;
place = (303.41, 48.35);
place = (303.41, 48.35);
type = Stem;
}
);
layerId = m01;
shapes = (
{
closed = 1;
nodes = (
(230,-209,o),
(275,-208,o),
(275,-167,cs),
(275,-129,l),
(324,-129,o),
(335,-129,o),
(346,-127,cs),
(367,-125,o),
(388,-85,o),
(345,-85,cs),
(276,-85,l),
(276,-59,ls),
(276,72,o),
(275,204,o),
(274,336,cs),
(272,374,o),
(252,368,o),
(235,358,c),
(232,313,l),
(193,346,o),
(177,352,o),
(161,352,cs),
(114,352,o),
(53,294,o),
(53,202,cs),
(53,117,o),
(73,-1,o),
(160,-1,cs),
(177,-1,o),
(214,17,o),
(230,25,c),
(230,-86,l),
(160,-86,o),
(135,-86,o),
(111,-89,cs),
(84,-92,o),
(87,-129,o),
(113,-129,cs),
(230,-129,l),
(230,-168,ls)
);
},
{
closed = 1;
nodes = (
(107,50,o),
(96,145,o),
(96,187,cs),
(96,242,o),
(102,297,o),
(163,303,c),
(210,303,o),
(234,217,o),
(234,173,cs),
(234,129,o),
(215,46,o),
(165,46,c)
);
}
);
width = 389;
}
);
note = q;
unicode = 113;
},
{
glyphname = r;
lastChange = "2026-04-28 12:49:43 +0000";
layers = (
{
anchors = (
{
name = bottom;
pos = (94,-10);
},
{
name = top;
pos = (152,357);
}
);
hints = (
{
horizontal = 1;
place = (354.03, -20);
target = down;
type = TopGhost;
},
{
place = (69, 45);
place = (69, 45);
type = Stem;
},
{
place = (236, 40);
place = (236, 40);
type = Stem;
},
{
horizontal = 1;
place = (303.96, 43.05);
place = (303.96, 43.05);
type = Stem;
}
);
layerId = m01;
shapes = (
{
closed = 1;
nodes = (
(71,-8,o),
(114,-15,o),
(114,32,cs),
(113,69,o),
(113,214,o),
(132,268,cs),
(141,290,o),
(164,304,o),
(184,304,cs),
(215,304,o),
(228,279,o),
(235,249,cs),
(249,192,o),
(283,227,o),
(276,258,c),
(268,315,o),
(232,347,o),
(187,347,cs),
(167,347,o),
(144,340,o),
(119,323,c),
(109,357,o),
(68,371,o),
(68,328,cs),
(68,222,o),
(69,126,o),
(69,31,cs)
);
}
);
width = 304;
}
);
note = r;
unicode = 114;
},
{
glyphname = s;
lastChange = "2026-04-28 12:49:43 +0000";
layers = (
{
anchors = (
{
name = bottom;
pos = (160,-8);
},
{
name = top;
pos = (150,357);
}
);
hints = (
{
horizontal = 1;
place = (6.74, 46.3);
place = (6.74, 46.3);
type = Stem;
},
{
horizontal = 1;
place = (318.75, 46.25);
place = (318.75, 46.25);
type = Stem;
},
{
place = (49.73, 45.94);
place = (49.73, 45.94);
type = Stem;
},
{
place = (200.05, 48.95);
place = (200.05, 48.95);
type = Stem;
}
);
layerId = m01;
shapes = (
{
closed = 1;
nodes = (
(269,7,o),
(279,142,o),
(182,171,cs),
(131,184,o),
(98,178,o),
(96,238,cs),
(96,286,o),
(129,319,o),
(173,319,cs),
(182,319,o),
(208,311,o),
(211,312,cs),
(248,323,o),
(243,342,o),
(226,349,cs),
(209,357,o),
(190,360,o),
(172,365,c),
(103,363,o),
(50,303,o),
(50,239,cs),
(50,190,o),
(71,140,o),
(147,132,c),
(220,117,o),
(209,53,o),
(155,53,cs),
(140,53,o),
(127,64,o),
(114,74,cs),
(111,77,o),
(80,85,o),
(80,45,c),
(94,21,o),
(126,7,o),
(158,7,cs)
);
}
);
width = 300;
}
);
note = s;
unicode = 115;
},
{
glyphname = t;
lastChange = "2026-04-28 12:49:43 +0000";
layers = (
{
anchors = (
{
name = bottom;
pos = (170,0);
},
{
name = center;
pos = (162,179);
},
{
name = top;
pos = (162,357);
},
{
name = topright;
pos = (278,593);
}
);
hints = (
{
horizontal = 1;
place = (1.66, 60.9);
place = (1.66, 60.9);
type = Stem;
},
{
horizontal = 1;
place = (341, 44);
place = (341, 44);
type = Stem;
},
{
place = (99, 48);
place = (99, 48);
type = Stem;
},
{
horizontal = 1;
place = (343, 48.73);
place = (343, 48.73);
type = Stem;
},
{
place = (110, 44.52);
place = (110, 44.52);
type = Stem;
}
);
layerId = m01;
shapes = (
{
closed = 1;
nodes = (
(231,0,o),
(268,71,o),
(182,63,cs),
(169,62,o),
(163,71,o),
(162,89,cs),
(161,169,o),
(150,320,o),
(175,320,cs),
(205,320,o),
(235,317,o),
(265,316,cs),
(307,316,o),
(310,361,o),
(264,364,cs),
(237,365,o),
(161,358,o),
(161,385,cs),
(162,428,o),
(168,562,o),
(162,582,cs),
(157,601,o),
(122,602,o),
(122,577,cs),
(118,520,o),
(117,441,o),
(114,384,c),
(111,370,o),
(69,372,o),
(55,374,c),
(35,374,o),
(30,360,o),
(30,343,cs),
(30,341,ls),
(30,325,o),
(43,322,o),
(57,322,cs),
(108,322,o),
(112,316,o),
(111,301,cs),
(111,162,o),
(100,157,o),
(120,54,cs),
(127,18,o),
(152,3,o),
(182,2,cs)
);
}
);
width = 323;
}
);
note = t;
unicode = 116;
},
{
glyphname = u;
lastChange = "2026-04-28 12:49:43 +0000";
layers = (
{
anchors = (
{
name = bottom;
pos = (160,0);
},
{
name = ogonek;
pos = (250,24);
},
{
name = top;
pos = (160,357);
},
{
name = topright;
pos = (293,357);
}
);
hints = (
{
horizontal = 1;
place = (354.06, -20);
target = down;
type = TopGhost;
},
{
place = (53, 40);
place = (53, 40);
type = Stem;
},
{
place = (217, 48.62);
place = (217, 48.62);
type = Stem;
},
{
place = (176, 48);
place = (176, 48);
type = Stem;
}
);
layerId = m01;
shapes = (
{
closed = 1;
nodes = (
(178,5,o),
(196,28,o),
(211,54,c),
(216,43,o),
(221,36,o),
(224,28,cs),
(240,-17,o),
(292,-4,o),
(263,46,cs),
(202,149,o),
(250,151,o),
(231,319,cs),
(228,346,o),
(203,344,o),
(187,322,cs),
(184,317,o),
(189,184,o),
(173,94,cs),
(171,83,o),
(164,47,o),
(149,47,c),
(124,65,o),
(112,98,o),
(110,126,cs),
(105,193,o),
(103,260,o),
(100,327,cs),
(100,365,o),
(60,363,o),
(60,329,cs),
(61,262,o),
(59,195,o),
(65,129,cs),
(68,83,o),
(96,5,o),
(147,5,cs)
);
}
);
width = 313;
}
);
note = u;
unicode = 117;
},
{
glyphname = v;
lastChange = "2026-04-28 12:49:43 +0000";
layers = (
{
anchors = (
{
name = bottom;
pos = (144,0);
},
{
name = top;
pos = (144,357);
}
);
hints = (
{
horizontal = 1;
place = (342.65, -20);
target = down;
type = TopGhost;
}
);
layerId = m01;
shapes = (
{
closed = 1;
nodes = (
(129,-10,o),
(169,-9,o),
(180,25,cs),
(209,118,o),
(235,212,o),
(262,306,c),
(271,351,o),
(230,359,o),
(217,315,cs),
(184,189,o),
(191,204,o),
(151,80,c),
(130,150,o),
(99,235,o),
(79,305,cs),
(65,354,o),
(27,330,o),
(38,293,cs),
(64,203,o),
(91,113,o),
(120,23,cs)
);
}
);
width = 288;
}
);
note = v;
unicode = 118;
},
{
glyphname = w;
lastChange = "2026-04-28 12:49:43 +0000";
layers = (
{
anchors = (
{
name = bottom;
pos = (196,0);
},
{
name = top;
pos = (196,357);
}
);
hints = (
{
horizontal = 1;
place = (348.03, -20);
target = down;
type = TopGhost;
},
{
place = (302, 53);
place = (302, 53);
type = Stem;
}
);
layerId = m01;
shapes = (
{
closed = 1;
nodes = (
(158,42,o),
(170,60,o),
(185,80,c),
(196,63,o),
(207,48,o),
(218,33,cs),
(256,-26,o),
(281,10,o),
(289,41,cs),
(302,87,o),
(347,262,o),
(355,302,cs),
(360,327,o),
(319,370,o),
(305,308,c),
(302,300,o),
(258,96,o),
(250,69,c),
(241,82,o),
(234,91,o),
(209,127,c),
(191,149,o),
(170,148,o),
(155,124,cs),
(145,109,o),
(135,93,o),
(121,70,c),
(70,323,ls),
(62,359,o),
(26,352,o),
(26,327,cs),
(26,323,o),
(70,89,o),
(82,39,cs),
(88,14,o),
(110,-7,o),
(143,26,cs)
);
}
);
width = 392;
}
);
note = w;
unicode = 119;
},
{
glyphname = x;
lastChange = "2026-04-28 12:49:43 +0000";
layers = (
{
anchors = (
{
name = bottom;
pos = (179,0);
},
{
name = top;
pos = (179,357);
}
);
hints = (
{
horizontal = 1;
place = (359, -20);
target = down;
type = TopGhost;
},
{
place = (117.9, 43.1);
place = (117.9, 43.1);
type = Stem;
}
);
layerId = m01;
shapes = (
{
closed = 1;
nodes = (
(255,-18,o),
(282,17,o),
(258,60,cs),
(244,84,o),
(230,107,o),
(217,130,c),
(252,194,o),
(327,330,o),
(327,336,cs),
(327,350,o),
(302,371,o),
(281,340,cs),
(277,334,o),
(274,328,o),
(191,176,c),
(162,226,o),
(136,273,o),
(109,319,cs),
(87,359,o),
(60,382,o),
(55,329,c),
(54,325,o),
(131,191,o),
(165,130,c),
(150,98,o),
(118,27,o),
(118,22,cs),
(118,4,o),
(144,-14,o),
(161,21,cs),
(169,41,o),
(179,60,o),
(190,85,c),
(206,58,o),
(217,35,o),
(231,15,cs)
);
}
);
width = 357;
}
);
note = x;
unicode = 120;
},
{
glyphname = y;
lastChange = "2026-04-28 12:49:43 +0000";
layers = (
{
anchors = (
{
name = bottom;
pos = (149,0);
},
{
name = top;
pos = (149,357);
}
);
hints = (
{
horizontal = 1;
place = (320, 21);
target = up;
type = BottomGhost;
},
{
place = (32, 39);
place = (32, 39);
type = Stem;
}
);
layerId = m01;
shapes = (
{
closed = 1;
nodes = (
(197,-8,o),
(229,200,o),
(255,308,cs),
(264,350,o),
(226,355,o),
(214,317,cs),
(198,257,o),
(181,189,o),
(161,123,c),
(155,133,o),
(98,263,o),
(71,321,cs),
(58,347,o),
(35,343,o),
(32,314,cs),
(31,305,o),
(107,131,o),
(147,43,c),
(108,-63,l),
(95,-87,o),
(72,-63,o),
(63,-77,cs),
(36,-119,o),
(111,-136,o),
(133,-99,c)
);
}
);
width = 297;
}
);
note = y;
unicode = 121;
},
{
glyphname = z;
lastChange = "2026-04-28 12:49:43 +0000";
layers = (
{
anchors = (
{
name = bottom;
pos = (149,0);
},
{
name = center;
pos = (149,179);
},
{
name = top;
pos = (149,357);
}
);
hints = (
{
horizontal = 1;
place = (-5, 50);
place = (-5, 50);
type = Stem;
},
{
horizontal = 1;
place = (322, 44.25);
place = (322, 44.25);
type = Stem;
},
{
place = (36, 240.81);
place = (36, 240.81);
type = Stem;
}
);
layerId = m01;
shapes = (
{
closed = 1;
nodes = (
(147,-5,o),
(187,-2,o),
(227,2,cs),
(245,5,o),
(252,32,o),
(223,45,cs),
(216,48,o),
(206,45,o),
(138,45,c),
(161,92,o),
(252,260,o),
(272,307,cs),
(284,338,o),
(274,356,o),
(238,356,cs),
(120,356,o),
(91,356,o),
(61,355,cs),
(35,355,o),
(21,319,o),
(57,316,cs),
(72,314,o),
(86,312,o),
(226,312,c),
(168,197,o),
(91,55,o),
(84,35,cs),
(78,20,o),
(83,-5,o),
(107,-5,cs)
);
}
);
width = 298;
}
);
note = z;
unicode = 122;
},
{
glyphname = braceleft;
lastChange = "2026-04-28 12:49:43 +0000";
layers = (
{
hints = (
{
horizontal = 1;
place = (-33.12, 56.12);
place = (-33.12, 56.12);
type = Stem;
},
{
horizontal = 1;
place = (646.77, 65.19);
place = (646.77, 65.19);
type = Stem;
},
{
place = (100.99, 55.29);
place = (100.99, 55.29);
type = Stem;
},
{
place = (145.4, 53.73);
place = (145.4, 53.73);
type = Stem;
}
);
layerId = m01;
shapes = (
{
closed = 1;
nodes = (
(326,-8,o),
(293,42,o),
(251,28,c),
(194,16,o),
(178,19,o),
(178,97,cs),
(178,137,o),
(172,173,o),
(135,197,c),
(148,221,o),
(168,241,o),
(170,263,cs),
(175,320,o),
(174,371,o),
(168,428,cs),
(162,484,o),
(135,548,o),
(135,601,cs),
(135,654,o),
(173,649,o),
(210,643,cs),
(268,633,o),
(270,677,o),
(245,692,cs),
(174,739,o),
(80,699,o),
(80,607,cs),
(80,606,ls),
(82,552,o),
(99,498,o),
(107,443,cs),
(115,372,o),
(144,278,o),
(83,237,cs),
(58,220,o),
(52,207,o),
(72,185,cs),
(99,155,o),
(124,129,o),
(124,82,cs),
(124,-54,o),
(214,-40,o),
(266,-26,cs)
);
}
);
width = 379;
}
);
note = braceleft;
unicode = 123;
},
{
glyphname = bar;
lastChange = "2026-04-28 12:49:43 +0000";
layers = (
{
hints = (
{
place = (117, 56);
place = (117, 56);
type = Stem;
}
);
layerId = m01;
shapes = (
{
closed = 1;
nodes = (
(129,-111,o),
(183,-106,o),
(183,-48,cs),
(179,57,o),
(175,703,o),
(171,709,cs),
(147,745,o),
(119,731,o),
(119,682,cs),
(118,515,o),
(119,-16,o),
(125,-64,cs)
);
}
);
width = 300;
}
);
note = bar;
unicode = 124;
},
{
glyphname = braceright;
lastChange = "2026-04-28 12:49:43 +0000";
layers = (
{
hints = (
{
horizontal = 1;
place = (-34.71, 59.84);
place = (-34.71, 59.84);
type = Stem;
},
{
horizontal = 1;
place = (646.07, 53.02);
place = (646.07, 53.02);
type = Stem;
},
{
place = (164.11, 55.8);
place = (164.11, 55.8);
type = Stem;
},
{
place = (180.2, 60.68);
place = (180.2, 60.68);
type = Stem;
},
{
place = (156.75, 58.74);
place = (156.75, 58.74);
type = Stem;
},
{
place = (191, 54.09);
place = (191, 54.09);
type = Stem;
}
);
layerId = m01;
shapes = (
{
closed = 1;
nodes = (
(256,-35,o),
(283,12,o),
(283,49,cs),
(283,102,o),
(237,121,o),
(283,147,cs),
(330,173,o),
(329,184,o),
(293,224,cs),
(270,250,o),
(257,279,o),
(257,312,cs),
(257,318,o),
(287,551,o),
(287,614,cs),
(287,719,o),
(134,716,o),
(103,679,cs),
(76,647,o),
(69,640,o),
(102,615,c),
(179,658,o),
(233,643,o),
(233,595,cs),
(231,503,o),
(199,379,o),
(199,311,cs),
(199,269,o),
(213,229,o),
(248,191,c),
(222,165,o),
(211,143,o),
(211,120,cs),
(211,96,o),
(232,48,o),
(218,34,c),
(213,27,o),
(159,28,o),
(153,28,cs),
(111,28,o),
(127,-35,o),
(201,-35,cs)
);
}
);
width = 379;
}
);
note = braceright;
unicode = 125;
},
{
glyphname = asciitilde;
lastChange = "2026-04-28 12:49:43 +0000";
layers = (
{
hints = (
{
horizontal = 1;
place = (605.95, 57.59);
place = (605.95, 57.59);
type = Stem;
}
);
layerId = m01;
shapes = (
{
closed = 1;
nodes = (
(71,638,o),
(90,654,o),
(114,654,cs),
(174,654,o),
(206,606,o),
(266,606,cs),
(308,606,o),
(344,628,o),
(381,675,cs),
(417,725,o),
(383,765,o),
(336,713,cs),
(307,679,o),
(288,664,o),
(263,664,cs),
(245,664,o),
(152,716,o),
(128,716,cs),
(87,716,o),
(39,691,o),
(17,659,cs),
(-17,615,o),
(20,563,o),
(49,603,cs)
);
}
);
width = 400;
}
);
note = asciitilde;
unicode = 126;
},
{
glyphname = quoteleft;
lastChange = "2026-04-28 12:49:43 +0000";
layers = (
{
hints = (
{
horizontal = 1;
place = (536, 249);
place = (536, 249);
type = Stem;
},
{
place = (87, 203.03);
place = (87, 203.03);
type = Stem;
}
);
layerId = m01;
shapes = (
{
closed = 1;
nodes = (
(289,636,o),
(226,650,o),
(224,660,cs),
(220,673,o),
(238,703,o),
(244,738,c),
(104,737,o),
(178,517,o),
(252,588,c)
);
},
{
closed = 1;
nodes = (
(167,622,o),
(105,648,o),
(104,658,cs),
(101,672,o),
(133,699,o),
(143,733,c),
(4,749,o),
(41,522,o),
(123,583,c)
);
}
);
width = 344;
}
);
note = quoteleft;
unicode = 8216;
},
{
glyphname = quoteright;
lastChange = "2026-04-28 12:49:43 +0000";
layers = (
{
hints = (
{
horizontal = 1;
place = (534, 249);
place = (534, 249);
type = Stem;
},
{
place = (105, 203.04);
place = (105, 203.04);
type = Stem;
}
);
layerId = m01;
shapes = (
{
closed = 1;
nodes = (
(189,531,o),
(152,758,o),
(70,697,c),
(27,653,o),
(88,632,o),
(89,622,cs),
(92,608,o),
(60,581,o),
(50,547,c)
);
}
);
width = 193;
}
);
note = quoteright;
unicode = 8217;
},
{
glyphname = euro;
lastChange = "2026-04-28 12:49:43 +0000";
layers = (
{
hints = (
{
horizontal = 1;
place = (14.57, 73.57);
place = (14.57, 73.57);
type = Stem;
},
{
horizontal = 1;
place = (210.45, 60.2);
place = (210.45, 60.2);
type = Stem;
},
{
horizontal = 1;
place = (358.75, 62.41);
place = (358.75, 62.41);
type = Stem;
},
{
horizontal = 1;
place = (700.99, 62.13);
place = (700.99, 62.13);
type = Stem;
},
{
place = (124, 58.32);
place = (124, 58.32);
type = Stem;
},
{
place = (312, 58.05);
place = (312, 58.05);
type = Stem;
}
);
layerId = m01;
shapes = (
{
closed = 1;
nodes = (
(338,15,o),
(389,82,o),
(389,151,cs),
(389,152,ls),
(389,174,o),
(356,233,o),
(331,159,cs),
(318,122,o),
(313,88,o),
(272,88,cs),
(243,88,o),
(222,165,o),
(204,209,c),
(229,209,o),
(265,204,o),
(291,210,cs),
(337,219,o),
(354,271,o),
(265,271,cs),
(210,271,l),
(210,324,o),
(191,359,o),
(258,359,cs),
(276,359,o),
(310,350,o),
(313,391,cs),
(315,413,o),
(294,421,o),
(274,421,cs),
(248,421,o),
(229,418,o),
(207,417,c),
(217,536,o),
(224,571,o),
(254,683,c),
(270,730,o),
(317,695,o),
(317,663,cs),
(317,642,o),
(366,626,o),
(366,675,cs),
(366,676,ls),
(366,715,o),
(325,755,o),
(284,762,cs),
(243,772,o),
(204,731,o),
(193,688,cs),
(175,620,o),
(164,552,o),
(154,483,cs),
(145,421,o),
(148,420,o),
(83,416,cs),
(29,413,o),
(50,366,o),
(83,356,cs),
(104,350,o),
(121,355,o),
(143,355,c),
(143,270,l),
(119,270,o),
(114,273,o),
(89,269,cs),
(46,259,o),
(68,210,o),
(112,210,cs),
(145,210,o),
(155,198,o),
(159,172,cs),
(169,102,o),
(200,15,o),
(279,15,cs)
);
}
);
width = 449;
}
);
note = euro;
unicode = 8364;
},
{
glyphname = exclamdown;
lastChange = "2026-04-28 12:49:43 +0000";
layers = (
{
hints = (
{
horizontal = 1;
place = (636.92, 82.31);
place = (636.92, 82.31);
type = Stem;
},
{
place = (42, 55);
place = (42, 55);
type = Stem;
},
{
place = (47, 47);
place = (47, 47);
type = Stem;
},
{
place = (32.3, 76.99);
place = (32.3, 76.99);
type = Stem;
},
{
place = (32.3, 69.7);
place = (32.3, 69.7);
type = Stem;
}
);
layerId = m01;
shapes = (
{
closed = 1;
nodes = (
(174,306,o),
(172,135,o),
(177,542,cs),
(178,600,o),
(137,604,o),
(129,547,c),
(121,451,o),
(125,96,o),
(127,-2,c),
(131,-41,o),
(174,-39,o),
(174,-4,cs)
);
},
{
closed = 1;
nodes = (
(179,631,o),
(198,643,o),
(198,667,cs),
(198,682,o),
(202,716,o),
(153,716,cs),
(99,716,o),
(96,631,o),
(140,631,cs)
);
}
);
width = 298;
}
);
note = exclamdown;
unicode = 161;
},
{
glyphname = cent;
lastChange = "2026-04-28 12:49:43 +0000";
layers = (
{
hints = (
{
horizontal = 1;
place = (14.57, 73.57);
place = (14.57, 73.57);
type = Stem;
},
{
horizontal = 1;
place = (210.45, 60.2);
place = (210.45, 60.2);
type = Stem;
},
{
horizontal = 1;
place = (358.75, 62.41);
place = (358.75, 62.41);
type = Stem;
},
{
horizontal = 1;
place = (700.99, 62.13);
place = (700.99, 62.13);
type = Stem;
},
{
place = (124, 58.32);
place = (124, 58.32);
type = Stem;
},
{
place = (312, 58.05);
place = (312, 58.05);
type = Stem;
}
);
layerId = m01;
shapes = (
{
closed = 1;
nodes = (
(171,6,l),
(172,5,o),
(210,28,o),
(224,43,cs),
(235,57,o),
(220,80,o),
(200,71,c),
(189,68,o),
(180,62,o),
(167,55,c),
(167,314,l),
(229,324,o),
(195,359,o),
(181,363,cs),
(165,366,o),
(165,377,o),
(165,388,cs),
(166,420,o),
(166,453,o),
(164,485,cs),
(164,512,o),
(135,514,o),
(127,489,cs),
(112,442,o),
(118,413,o),
(117,382,cs),
(117,372,o),
(108,358,o),
(97,343,cs),
(61,293,o),
(34,202,o),
(41,140,cs),
(45,103,o),
(75,52,o),
(105,27,cs),
(123,11,o),
(126,-4,o),
(128,-23,c),
(128,-54,o),
(168,-80,o),
(171,-34,cs)
);
},
{
closed = 1;
nodes = (
(68,132,o),
(75,218,o),
(122,293,c),
(122,76,l)
);
}
);
width = 277;
}
);
note = cent;
unicode = 162;
},
{
glyphname = sterling;
lastChange = "2026-04-28 12:49:43 +0000";
layers = (
{
hints = (
{
horizontal = 1;
place = (-33, 88);
place = (-33, 88);
type = Stem;
},
{
horizontal = 1;
place = (165.69, 56.31);
place = (165.69, 56.31);
type = Stem;
},
{
horizontal = 1;
place = (710.81, 56.84);
place = (710.81, 56.84);
type = Stem;
},
{
place = (95.25, 55.75);
place = (95.25, 55.75);
type = Stem;
},
{
place = (228, 50.39);
place = (228, 50.39);
type = Stem;
},
{
horizontal = 1;
place = (-20.95, 60.09);
place = (-20.95, 60.09);
type = Stem;
}
);
layerId = m01;
shapes = (
{
closed = 1;
nodes = (
(139,-3,o),
(150,32,o),
(177,32,cs),
(201,32,o),
(283,-1,o),
(385,22,cs),
(427,31,o),
(432,94,o),
(369,77,cs),
(317,63,o),
(190,76,o),
(190,103,cs),
(191,137,o),
(194,141,o),
(197,178,c),
(316,166,l),
(326,166,ls),
(341,166,o),
(358,169,o),
(358,189,cs),
(358,194,ls),
(358,215,o),
(341,220,o),
(323,222,cs),
(281,226,o),
(239,229,o),
(187,234,c),
(187,341,o),
(177,586,o),
(200,690,cs),
(205,714,o),
(222,719,o),
(236,698,cs),
(249,678,o),
(254,653,o),
(267,633,cs),
(291,592,o),
(317,610,o),
(317,644,c),
(301,697,o),
(275,768,o),
(219,768,cs),
(181,768,o),
(158,741,o),
(145,706,cs),
(126,655,o),
(130,293,o),
(130,239,c),
(65,230,o),
(85,171,o),
(125,171,c),
(157,188,o),
(146,81,o),
(94,85,cs),
(77,86,o),
(16,-3,o),
(118,-3,cs)
);
}
);
width = 466;
}
);
note = sterling;
unicode = 163;
},
{
glyphname = dieresis;
lastChange = "2026-04-28 12:49:43 +0000";
layers = (
{
hints = (
{
horizontal = 1;
place = (542.3, 230.31);
place = (542.3, 230.31);
type = Stem;
}
);
layerId = m01;
shapes = (
{
closed = 1;
nodes = (
(82,605,o),
(102,624,o),
(102,646,cs),
(102,668,o),
(80,693,o),
(61,693,cs),
(60,693,ls),
(38,693,o),
(20,670,o),
(20,647,cs),
(20,625,o),
(39,605,o),
(59,605,cs)
);
},
{
closed = 1;
nodes = (
(212,597,o),
(227,614,o),
(227,637,cs),
(226,662,o),
(208,682,o),
(188,682,cs),
(168,681,o),
(152,663,o),
(152,640,cs),
(152,616,o),
(170,596,o),
(191,596,cs)
);
}
);
width = 249;
}
);
note = dieresis;
unicode = 168;
},
{
glyphname = copyright;
lastChange = "2026-04-28 12:49:43 +0000";
layers = (
{
hints = (
{
horizontal = 1;
place = (229.76, 55.7);
place = (229.76, 55.7);
type = Stem;
},
{
horizontal = 1;
place = (465.62, 57.61);
place = (465.62, 57.61);
type = Stem;
},
{
place = (25.55, 59.31);
place = (25.55, 59.31);
type = Stem;
},
{
place = (665.97, 60);
place = (665.97, 60);
type = Stem;
},
{
horizontal = 1;
place = (112, 51.89);
place = (112, 51.89);
type = Stem;
},
{
horizontal = 1;
place = (122, 52);
place = (122, 52);
type = Stem;
}
);
layerId = m01;
shapes = (
{
closed = 1;
nodes = (
(427,-34,o),
(520,207,o),
(520,402,cs),
(520,568,o),
(475,763,o),
(280,763,cs),
(153,759,o),
(50,540,o),
(50,379,cs),
(50,197,o),
(107,-34,o),
(307,-34,cs)
);
},
{
closed = 1;
nodes = (
(153,17,o),
(100,234,o),
(100,365,cs),
(100,475,o),
(172,706,o),
(282,706,cs),
(384,706,o),
(460,557,o),
(460,402,cs),
(460,256,o),
(413,32,o),
(311,26,cs)
);
},
{
closed = 1;
nodes = (
(344,88,o),
(399,137,o),
(369,155,cs),
(352,165,o),
(345,145,o),
(304,145,c),
(284,148,o),
(272,157,o),
(253,179,cs),
(230,205,o),
(197,324,o),
(233,461,cs),
(250,523,o),
(260,579,o),
(316,612,cs),
(346,629,o),
(316,652,o),
(305,652,cs),
(304,652,ls),
(254,652,o),
(216,583,o),
(199,540,cs),
(161,442,o),
(159,346,o),
(168,250,cs),
(173,192,o),
(191,140,o),
(250,104,cs),
(268,94,o),
(286,88,o),
(303,88,cs)
);
}
);
width = 590;
}
);
note = copyright;
unicode = 169;
},
{
glyphname = registered;
lastChange = "2026-04-28 12:49:43 +0000";
layers = (
{
hints = (
{
horizontal = 1;
place = (146, 56);
place = (146, 56);
type = Stem;
},
{
horizontal = 1;
place = (347.64, 60.54);
place = (347.64, 60.54);
type = Stem;
},
{
place = (18.81, 59.52);
place = (18.81, 59.52);
type = Stem;
},
{
place = (672.89, 59.53);
place = (672.89, 59.53);
type = Stem;
}
);
layerId = m01;
shapes = (
{
closed = 1;
nodes = (
(337,348,o),
(408,471,o),
(408,570,cs),
(408,656,o),
(373,755,o),
(225,755,cs),
(128,753,o),
(50,641,o),
(50,559,cs),
(50,467,o),
(94,348,o),
(245,348,cs)
);
},
{
closed = 1;
nodes = (
(131,381,o),
(93,488,o),
(93,554,cs),
(93,608,o),
(145,723,o),
(227,723,cs),
(303,723,o),
(371,649,o),
(359,571,cs),
(348,500,o),
(324,388,o),
(248,385,cs)
);
},
{
closed = 1;
nodes = (
(210,428,o),
(207,436,o),
(207,452,cs),
(207,467,o),
(228,485,o),
(244,469,c),
(251,459,o),
(270,432,o),
(276,432,cs),
(303,432,o),
(262,487,o),
(239,504,c),
(248,513,o),
(272,575,o),
(272,609,cs),
(272,645,o),
(234,681,o),
(190,681,cs),
(179,681,o),
(185,496,o),
(184,462,cs),
(184,459,o),
(184,437,o),
(193,429,c)
);
},
{
closed = 1;
nodes = (
(209,650,l),
(234,642,o),
(244,621,o),
(244,604,cs),
(244,570,o),
(209,502,o),
(209,515,cs)
);
}
);
width = 478;
}
);
note = registered;
unicode = 174;
},
{
glyphname = degree;
lastChange = "2026-04-28 12:49:43 +0000";
layers = (
{
hints = (
{
horizontal = 1;
place = (635.89, 59.87);
place = (635.89, 59.87);
type = Stem;
},
{
place = (43.87, 213.23);
place = (43.87, 213.23);
type = Stem;
}
);
layerId = m01;
shapes = (
{
closed = 1;
nodes = (
(173,512,o),
(187,520,o),
(200,531,cs),
(217,544,o),
(225,565,o),
(225,588,cs),
(225,602,o),
(222,637,o),
(215,649,cs),
(201,676,o),
(166,696,o),
(136,696,cs),
(124,696,o),
(113,694,o),
(104,688,cs),
(77,673,o),
(60,627,o),
(60,591,cs),
(60,586,ls),
(60,547,o),
(85,524,o),
(112,516,cs),
(127,512,o),
(142,512,o),
(160,512,cs)
);
},
{
closed = 1;
nodes = (
(117,547,o),
(97,565,o),
(97,601,cs),
(97,637,o),
(114,654,o),
(136,654,cs),
(157,654,o),
(188,658,o),
(188,613,cs),
(188,560,o),
(175,549,o),
(154,548,cs)
);
}
);
width = 275;
}
);
note = degree;
unicode = 176;
},
{
glyphname = acute;
lastChange = "2026-04-28 12:49:43 +0000";
layers = (
{
hints = (
{
horizontal = 1;
place = (536, 249);
place = (536, 249);
type = Stem;
},
{
place = (87, 203.03);
place = (87, 203.03);
type = Stem;
}
);
layerId = m01;
shapes = (
{
closed = 1;
nodes = (
(49,598,o),
(91,630,o),
(93,632,cs),
(124,655,o),
(129,644,o),
(144,688,c),
(138,692,o),
(130,694,o),
(122,694,cs),
(83,694,o),
(30,655,o),
(20,611,cs),
(18,603,o),
(38,598,o),
(45,598,cs)
);
}
);
width = 164;
}
);
note = acute;
unicode = 180;
},
{
glyphname = ordmasculine;
lastChange = "2026-04-28 12:49:43 +0000";
layers = (
{
hints = (
{
horizontal = 1;
place = (635.89, 59.87);
place = (635.89, 59.87);
type = Stem;
},
{
place = (39.87, 213.23);
place = (39.87, 213.23);
type = Stem;
}
);
layerId = m01;
shapes = (
{
closed = 1;
nodes = (
(153,512,o),
(167,520,o),
(180,531,cs),
(197,544,o),
(205,565,o),
(205,588,cs),
(205,602,o),
(202,637,o),
(195,649,cs),
(181,676,o),
(146,696,o),
(116,696,cs),
(104,696,o),
(93,694,o),
(84,688,cs),
(57,673,o),
(40,627,o),
(40,591,cs),
(40,586,ls),
(40,547,o),
(65,524,o),
(92,516,cs),
(107,512,o),
(122,512,o),
(140,512,cs)
);
},
{
closed = 1;
nodes = (
(97,547,o),
(77,565,o),
(77,601,cs),
(77,637,o),
(94,654,o),
(116,654,cs),
(137,654,o),
(168,658,o),
(168,613,cs),
(168,560,o),
(155,549,o),
(134,548,cs)
);
}
);
width = 245;
}
);
note = ordmasculine;
unicode = 186;
},
{
glyphname = questiondown;
lastChange = "2026-04-28 12:49:43 +0000";
layers = (
{
hints = (
{
horizontal = 1;
place = (13.3, 45.68);
place = (13.3, 45.68);
type = Stem;
},
{
place = (50.26, 49.95);
place = (50.26, 49.95);
type = Stem;
},
{
place = (243.37, 48.99);
place = (243.37, 48.99);
type = Stem;
},
{
horizontal = 1;
place = (645, 70);
place = (645, 70);
type = Stem;
},
{
place = (222.96, 84.01);
place = (222.96, 84.01);
type = Stem;
},
{
horizontal = 1;
place = (636.5, 78.5);
place = (636.5, 78.5);
type = Stem;
}
);
layerId = m01;
shapes = (
{
closed = 1;
nodes = (
(300,-42,o),
(341,-8,o),
(364,40,c),
(377,73,o),
(348,103,o),
(327,65,cs),
(299,14,o),
(281,11,o),
(231,11,c),
(155,19,o),
(131,108,o),
(131,141,cs),
(131,226,o),
(176,282,o),
(260,410,cs),
(297,466,o),
(336,499,o),
(310,554,cs),
(306,563,o),
(296,581,o),
(272,581,cs),
(237,581,o),
(272,523,o),
(266,502,c),
(196,419,o),
(80,309,o),
(80,137,cs),
(80,71,o),
(131,-42,o),
(238,-42,cs)
);
},
{
closed = 1;
nodes = (
(309,627,o),
(313,646,o),
(313,688,cs),
(312,704,o),
(298,716,o),
(280,716,cs),
(240,716,o),
(220,704,o),
(221,679,c),
(224,663,o),
(217,627,o),
(267,627,cs)
);
}
);
width = 437;
}
);
note = questiondown;
unicode = 191;
},
{
glyphname = agrave;
lastChange = "2026-04-28 12:49:43 +0000";
layers = (
{
hints = (
{
horizontal = 1;
place = (-1.78, 46.53);
place = (-1.78, 46.53);
type = Stem;
},
{
horizontal = 1;
place = (166.67, 44.42);
place = (166.67, 44.42);
type = Stem;
},
{
horizontal = 1;
place = (285.28, 43.14);
place = (285.28, 43.14);
type = Stem;
},
{
place = (65.08, 46.32);
place = (65.08, 46.32);
type = Stem;
},
{
place = (226, 46.73);
place = (226, 46.73);
type = Stem;
},
{
place = (246, 40);
place = (246, 40);
type = Stem;
}
);
layerId = m01;
shapes = (
{
closed = 1;
nodes = (
(282,-14,o),
(286,-5,o),
(286,6,cs),
(286,14,o),
(284,22,o),
(283,29,cs),
(276,63,o),
(271,96,o),
(271,129,cs),
(271,138,o),
(271,148,o),
(272,157,cs),
(272,164,o),
(273,170,o),
(273,176,cs),
(273,210,o),
(266,243,o),
(249,274,cs),
(234,301,o),
(211,319,o),
(180,326,cs),
(172,328,o),
(164,328,o),
(156,328,cs),
(131,328,o),
(107,319,o),
(87,300,cs),
(79,292,o),
(75,283,o),
(81,272,cs),
(89,261,o),
(100,262,o),
(110,267,cs),
(116,269,o),
(121,274,o),
(126,277,cs),
(135,283,o),
(146,285,o),
(156,285,cs),
(174,285,o),
(192,278,o),
(203,264,cs),
(217,244,o),
(225,221,o),
(226,200,c),
(205,204,o),
(185,211,o),
(166,211,cs),
(163,211,ls),
(105,208,o),
(65,159,o),
(65,101,cs),
(65,90,o),
(67,78,o),
(70,66,cs),
(83,22,o),
(109,-2,o),
(144,-2,cs),
(159,-2,o),
(177,3,o),
(195,13,cs),
(209,20,o),
(222,30,o),
(236,40,c),
(239,25,o),
(242,11,o),
(246,-2,cs),
(250,-13,o),
(258,-19,o),
(270,-16,cs)
);
},
{
closed = 1;
nodes = (
(134,45,o),
(127,51,o),
(121,63,cs),
(114,75,o),
(111,88,o),
(111,100,cs),
(111,128,o),
(126,153,o),
(151,162,cs),
(158,165,o),
(165,167,o),
(171,167,cs),
(182,167,o),
(191,161,o),
(201,150,cs),
(208,142,o),
(215,135,o),
(223,125,c),
(216,88,o),
(197,60,o),
(160,48,cs),
(154,46,o),
(149,45,o),
(145,45,cs)
);
},
{
closed = 1;
nodes = (
(186,360,o),
(199,361,o),
(206,366,cs),
(216,372,o),
(214,384,o),
(207,393,cs),
(136,486,ls),
(130,493,o),
(122,497,o),
(113,503,c),
(105,497,o),
(96,493,o),
(95,487,cs),
(94,479,o),
(96,468,o),
(100,462,cs),
(117,437,o),
(136,413,o),
(155,389,cs),
(162,379,o),
(169,369,o),
(179,364,cs)
);
}
);
width = 338;
}
);
note = agrave;
unicode = 224;
},
{
glyphname = aacute;
lastChange = "2026-04-28 12:49:43 +0000";
layers = (
{
hints = (
{
horizontal = 1;
place = (166.36, 44.94);
place = (166.36, 44.94);
type = Stem;
},
{
horizontal = 1;
place = (284.27, 43.6);
place = (284.27, 43.6);
type = Stem;
},
{
place = (76.65, 46.13);
place = (76.65, 46.13);
type = Stem;
},
{
place = (258, 39);
place = (258, 39);
type = Stem;
},
{
place = (235.67, 48.31);
place = (235.67, 48.31);
type = Stem;
}
);
layerId = m01;
shapes = (
{
closed = 1;
nodes = (
(289,-13,o),
(295,-3,o),
(297,5,cs),
(299,11,o),
(297,19,o),
(295,26,cs),
(288,62,o),
(282,99,o),
(282,137,cs),
(282,145,o),
(282,153,o),
(283,161,cs),
(284,168,o),
(284,175,o),
(284,182,cs),
(284,218,o),
(275,253,o),
(254,284,cs),
(235,313,o),
(202,328,o),
(169,328,cs),
(144,328,o),
(120,319,o),
(101,302,cs),
(94,295,o),
(89,287,o),
(89,280,cs),
(89,274,o),
(93,269,o),
(99,267,cs),
(107,264,o),
(118,267,o),
(127,270,cs),
(139,273,o),
(149,282,o),
(161,284,c),
(167,284,ls),
(206,284,o),
(236,251,o),
(236,207,cs),
(236,204,o),
(235,200,o),
(235,196,c),
(215,206,o),
(195,211,o),
(176,211,cs),
(147,211,o),
(121,199,o),
(102,174,cs),
(85,151,o),
(77,126,o),
(77,101,cs),
(77,82,o),
(81,62,o),
(91,43,cs),
(106,13,o),
(128,-3,o),
(156,-3,cs),
(166,-3,o),
(177,-1,o),
(189,4,cs),
(209,13,o),
(228,26,o),
(248,38,c),
(251,25,o),
(254,10,o),
(258,-4,cs),
(262,-14,o),
(272,-21,o),
(282,-16,cs)
);
},
{
closed = 1;
nodes = (
(161,45,o),
(147,47,o),
(140,53,cs),
(128,64,o),
(123,80,o),
(123,97,cs),
(123,123,o),
(136,151,o),
(159,161,cs),
(167,165,o),
(174,166,o),
(181,166,cs),
(193,166,o),
(204,161,o),
(214,149,cs),
(220,141,o),
(227,134,o),
(235,125,c),
(227,86,o),
(208,58,o),
(170,47,cs)
);
},
{
closed = 1;
nodes = (
(160,372,o),
(166,378,o),
(173,385,cs),
(250,474,ls),
(252,477,o),
(254,479,o),
(254,482,cs),
(254,490,o),
(256,502,o),
(252,505,cs),
(246,510,o),
(234,511,o),
(226,509,cs),
(221,508,o),
(216,501,o),
(211,496,cs),
(187,467,o),
(162,438,o),
(139,409,cs),
(133,402,o),
(132,390,o),
(129,381,c),
(137,375,o),
(145,372,o),
(151,372,cs)
);
}
);
width = 349;
}
);
note = aacute;
unicode = 225;
},
{
glyphname = acircumflex;
lastChange = "2026-04-28 12:49:43 +0000";
layers = (
{
hints = (
{
horizontal = 1;
place = (3.13, 46.62);
place = (3.13, 46.62);
type = Stem;
},
{
horizontal = 1;
place = (171.96, 45.35);
place = (171.96, 45.35);
type = Stem;
},
{
horizontal = 1;
place = (290.28, 43.07);
place = (290.28, 43.07);
type = Stem;
},
{
horizontal = 1;
place = (364.66, 21);
target = up;
type = BottomGhost;
},
{
place = (59.29, 46.11);
place = (59.29, 46.11);
type = Stem;
},
{
place = (220, 46.6);
place = (220, 46.6);
type = Stem;
},
{
place = (240, 40);
place = (240, 40);
type = Stem;
}
);
layerId = m01;
shapes = (
{
closed = 1;
nodes = (
(276,-9,o),
(280,0,o),
(280,11,cs),
(280,17,o),
(279,24,o),
(278,30,cs),
(270,65,o),
(265,101,o),
(265,137,cs),
(265,147,o),
(265,157,o),
(266,167,cs),
(266,173,o),
(267,178,o),
(267,184,cs),
(267,222,o),
(258,258,o),
(235,291,cs),
(216,319,o),
(183,333,o),
(150,333,cs),
(126,333,o),
(101,325,o),
(82,307,cs),
(76,301,o),
(72,295,o),
(72,288,cs),
(72,285,o),
(73,280,o),
(77,276,cs),
(85,266,o),
(96,267,o),
(106,273,cs),
(111,276,o),
(115,280,o),
(120,282,c),
(129,288,o),
(140,290,o),
(150,290,cs),
(168,290,o),
(186,283,o),
(197,269,cs),
(211,250,o),
(219,227,o),
(220,199,c),
(201,211,o),
(182,217,o),
(163,217,cs),
(153,217,o),
(142,216,o),
(131,212,cs),
(86,197,o),
(59,153,o),
(59,105,cs),
(59,87,o),
(63,68,o),
(72,50,cs),
(87,19,o),
(111,3,o),
(139,3,cs),
(149,3,o),
(160,5,o),
(172,10,cs),
(192,19,o),
(211,32,o),
(230,43,c),
(233,31,o),
(236,17,o),
(240,3,cs),
(243,-8,o),
(252,-13,o),
(264,-11,cs)
);
},
{
closed = 1;
nodes = (
(128,50,o),
(121,56,o),
(115,68,cs),
(108,80,o),
(105,93,o),
(105,105,cs),
(105,133,o),
(120,158,o),
(145,168,cs),
(152,171,o),
(158,172,o),
(164,172,cs),
(175,172,o),
(185,166,o),
(195,155,cs),
(202,148,o),
(209,140,o),
(217,131,c),
(210,93,o),
(191,66,o),
(154,53,cs),
(148,51,o),
(143,50,o),
(139,50,cs)
);
},
{
closed = 1;
nodes = (
(253,363,o),
(258,365,o),
(263,369,cs),
(268,374,o),
(270,379,o),
(270,384,cs),
(270,390,o),
(267,397,o),
(263,403,cs),
(203,487,ls),
(193,500,o),
(184,507,o),
(174,507,cs),
(165,507,o),
(156,501,o),
(146,489,cs),
(124,463,o),
(104,436,o),
(84,409,cs),
(77,398,o),
(73,390,o),
(73,383,cs),
(73,378,o),
(76,373,o),
(80,369,cs),
(84,366,o),
(87,365,o),
(91,365,cs),
(99,365,o),
(109,371,o),
(118,384,cs),
(135,406,o),
(152,429,o),
(170,452,c),
(229,374,ls),
(234,367,o),
(241,363,o),
(249,363,cs)
);
}
);
width = 324;
}
);
note = acircumflex;
unicode = 226;
},
{
glyphname = adieresis;
lastChange = "2026-04-28 12:49:43 +0000";
layers = (
{
hints = (
{
horizontal = 1;
place = (165.23, 44.77);
place = (165.23, 44.77);
type = Stem;
},
{
horizontal = 1;
place = (283.16, 43.86);
place = (283.16, 43.86);
type = Stem;
},
{
place = (251, 39);
place = (251, 39);
type = Stem;
},
{
place = (70.24, 45.83);
place = (70.24, 45.83);
type = Stem;
},
{
place = (229.33, 47.73);
place = (229.33, 47.73);
type = Stem;
},
{
place = (72, 82);
place = (72, 82);
type = Stem;
},
{
horizontal = 1;
place = (396, 88.03);
place = (396, 88.03);
type = Stem;
},
{
horizontal = 1;
place = (387, 86);
place = (387, 86);
type = Stem;
},
{
place = (204, 75);
place = (204, 75);
type = Stem;
}
);
layerId = m01;
shapes = (
{
closed = 1;
nodes = (
(282,-14,o),
(288,-4,o),
(290,4,cs),
(292,11,o),
(289,19,o),
(288,27,cs),
(281,62,o),
(275,98,o),
(275,134,cs),
(275,141,o),
(275,149,o),
(276,157,cs),
(277,165,o),
(277,172,o),
(277,179,cs),
(277,215,o),
(269,248,o),
(250,279,cs),
(230,310,o),
(196,327,o),
(162,327,cs),
(140,327,o),
(117,320,o),
(98,304,cs),
(90,298,o),
(83,291,o),
(83,283,cs),
(83,279,o),
(84,275,o),
(87,271,cs),
(90,266,o),
(95,263,o),
(101,263,cs),
(107,263,o),
(114,266,o),
(122,270,cs),
(133,276,o),
(145,282,o),
(156,283,cs),
(161,283,ls),
(200,283,o),
(229,249,o),
(229,208,cs),
(229,200,l),
(170,210,l),
(166,210,ls),
(120,207,o),
(90,180,o),
(77,136,cs),
(73,122,o),
(70,108,o),
(70,94,cs),
(70,65,o),
(81,38,o),
(105,14,cs),
(116,3,o),
(131,-4,o),
(147,-4,cs),
(153,-4,o),
(160,-3,o),
(166,-1,cs),
(191,9,o),
(216,23,o),
(241,35,c),
(244,24,o),
(247,10,o),
(251,-4,cs),
(255,-15,o),
(265,-22,o),
(275,-17,cs)
);
},
{
closed = 1;
nodes = (
(155,44,o),
(140,45,o),
(134,51,cs),
(122,65,o),
(116,82,o),
(116,98,cs),
(116,126,o),
(131,152,o),
(154,161,cs),
(162,164,o),
(168,165,o),
(175,165,cs),
(186,165,o),
(196,160,o),
(206,149,cs),
(213,141,o),
(220,134,o),
(228,124,c),
(220,86,o),
(202,58,o),
(164,47,cs)
);
},
{
closed = 1;
nodes = (
(134,396,o),
(154,415,o),
(154,437,cs),
(154,459,o),
(132,484,o),
(113,484,cs),
(112,484,ls),
(90,484,o),
(72,461,o),
(72,438,cs),
(72,416,o),
(91,396,o),
(111,396,cs)
);
},
{
closed = 1;
nodes = (
(264,388,o),
(279,405,o),
(279,428,cs),
(278,453,o),
(260,473,o),
(240,473,cs),
(220,472,o),
(204,454,o),
(204,431,cs),
(204,407,o),
(222,387,o),
(243,387,cs)
);
}
);
width = 360;
}
);
note = adieresis;
unicode = 228;
},
{
glyphname = egrave;
lastChange = "2026-04-28 12:49:43 +0000";
layers = (
{
hints = (
{
horizontal = 1;
place = (3.6, 45.4);
place = (3.6, 45.4);
type = Stem;
},
{
horizontal = 1;
place = (121.76, 46.23);
place = (121.76, 46.23);
type = Stem;
},
{
horizontal = 1;
place = (303.01, 43.72);
place = (303.01, 43.72);
type = Stem;
},
{
place = (55.16, 53.66);
place = (55.16, 53.66);
type = Stem;
},
{
place = (222, 43);
place = (222, 43);
type = Stem;
}
);
layerId = m01;
shapes = (
{
closed = 1;
nodes = (
(208,4,o),
(240,18,o),
(260,46,cs),
(266,54,o),
(269,62,o),
(269,69,cs),
(269,76,o),
(266,82,o),
(261,86,cs),
(257,89,o),
(253,91,o),
(249,91,cs),
(242,91,o),
(234,86,o),
(225,76,cs),
(222,73,o),
(220,70,o),
(218,67,cs),
(207,54,o),
(193,49,o),
(176,49,cs),
(136,50,o),
(107,84,o),
(104,133,c),
(109,132,o),
(113,131,o),
(117,129,cs),
(127,124,o),
(139,122,o),
(152,122,cs),
(187,122,o),
(226,139,o),
(244,172,cs),
(258,197,o),
(265,223,o),
(265,250,cs),
(263,305,o),
(223,347,o),
(172,347,cs),
(168,347,o),
(164,346,o),
(160,346,cs),
(118,342,o),
(90,314,o),
(76,277,cs),
(65,246,o),
(58,212,o),
(56,179,cs),
(55,172,o),
(55,166,o),
(55,159,cs),
(55,117,o),
(66,78,o),
(94,43,cs),
(115,17,o),
(146,4,o),
(176,4,cs)
);
},
{
closed = 1;
nodes = (
(133,168,o),
(115,181,o),
(111,203,cs),
(110,210,o),
(109,217,o),
(109,223,cs),
(109,248,o),
(119,270,o),
(139,289,cs),
(148,298,o),
(159,303,o),
(171,303,cs),
(177,303,o),
(184,301,o),
(191,298,cs),
(213,286,o),
(221,267,o),
(222,246,cs),
(221,203,o),
(201,178,o),
(162,169,cs),
(159,168,o),
(156,168,o),
(153,168,cs)
);
},
{
closed = 1;
nodes = (
(213,404,o),
(218,406,o),
(223,411,cs),
(232,422,o),
(227,432,o),
(220,441,cs),
(218,444,o),
(216,446,o),
(214,448,cs),
(184,474,o),
(154,499,o),
(124,524,cs),
(118,530,o),
(111,534,o),
(103,534,cs),
(99,534,o),
(95,532,o),
(91,530,cs),
(79,522,o),
(80,510,o),
(83,500,c),
(105,483,o),
(123,468,o),
(141,454,cs),
(158,440,o),
(174,425,o),
(191,411,cs),
(196,407,o),
(202,404,o),
(208,404,cs)
);
}
);
width = 323;
}
);
note = egrave;
unicode = 232;
},
{
glyphname = eacute;
lastChange = "2026-04-28 12:49:43 +0000";
layers = (
{
hints = (
{
horizontal = 1;
place = (-2.38, 45.5);
place = (-2.38, 45.5);
type = Stem;
},
{
horizontal = 1;
place = (115.86, 46.81);
place = (115.86, 46.81);
type = Stem;
},
{
horizontal = 1;
place = (297.32, 43.85);
place = (297.32, 43.85);
type = Stem;
},
{
place = (52.1, 54.21);
place = (52.1, 54.21);
type = Stem;
},
{
place = (219, 43.08);
place = (219, 43.08);
type = Stem;
}
);
layerId = m01;
shapes = (
{
closed = 1;
nodes = (
(203,-2,o),
(234,11,o),
(255,37,cs),
(263,47,o),
(266,56,o),
(266,64,cs),
(266,71,o),
(264,77,o),
(258,81,cs),
(254,84,o),
(251,85,o),
(247,85,cs),
(239,85,o),
(230,79,o),
(220,68,c),
(220,68,o),
(219,67,o),
(219,66,c),
(209,51,o),
(192,43,o),
(174,43,cs),
(153,43,o),
(131,53,o),
(119,73,cs),
(110,89,o),
(105,107,o),
(97,124,c),
(99,125,o),
(100,127,o),
(102,128,c),
(106,126,o),
(111,125,o),
(115,123,cs),
(124,118,o),
(136,116,o),
(148,116,cs),
(182,116,o),
(222,133,o),
(239,163,cs),
(253,188,o),
(262,213,o),
(262,241,cs),
(262,245,ls),
(260,300,o),
(219,341,o),
(169,341,cs),
(164,341,o),
(159,341,o),
(154,340,cs),
(114,334,o),
(88,307,o),
(72,271,cs),
(58,239,o),
(52,205,o),
(52,171,cs),
(52,163,o),
(52,154,o),
(53,146,cs),
(55,107,o),
(65,69,o),
(91,37,cs),
(112,11,o),
(143,-2,o),
(173,-2,cs)
);
},
{
closed = 1;
nodes = (
(128,163,o),
(112,176,o),
(108,199,cs),
(107,205,o),
(106,211,o),
(106,217,cs),
(106,243,o),
(117,265,o),
(137,284,cs),
(146,293,o),
(156,297,o),
(167,297,cs),
(174,297,o),
(182,295,o),
(189,291,cs),
(210,280,o),
(218,261,o),
(219,241,cs),
(219,201,o),
(204,180,o),
(168,166,cs),
(162,164,o),
(155,163,o),
(149,163,cs)
);
},
{
closed = 1;
nodes = (
(144,391,o),
(150,394,o),
(156,399,cs),
(184,424,o),
(213,450,o),
(241,476,cs),
(247,482,o),
(252,490,o),
(252,498,cs),
(252,502,o),
(250,507,o),
(247,512,c),
(242,515,o),
(237,517,o),
(232,517,cs),
(225,517,o),
(218,513,o),
(212,508,cs),
(184,482,o),
(155,455,o),
(127,428,cs),
(117,419,o),
(114,407,o),
(124,397,cs),
(129,393,o),
(134,391,o),
(138,391,cs)
);
}
);
width = 316;
}
);
note = eacute;
unicode = 233;
},
{
glyphname = ecircumflex;
lastChange = "2026-04-28 12:49:43 +0000";
layers = (
{
hints = (
{
horizontal = 1;
place = (3.25, 45.47);
place = (3.25, 45.47);
type = Stem;
},
{
horizontal = 1;
place = (121.68, 47.16);
place = (121.68, 47.16);
type = Stem;
},
{
horizontal = 1;
place = (302.35, 44.82);
place = (302.35, 44.82);
type = Stem;
},
{
place = (57.1, 53.88);
place = (57.1, 53.88);
type = Stem;
},
{
place = (224.17, 42.91);
place = (224.17, 42.91);
type = Stem;
}
);
layerId = m01;
shapes = (
{
closed = 1;
nodes = (
(209,3,o),
(239,17,o),
(260,43,cs),
(268,53,o),
(271,62,o),
(271,70,cs),
(271,77,o),
(269,83,o),
(263,87,cs),
(259,90,o),
(256,91,o),
(252,91,cs),
(244,91,o),
(235,85,o),
(225,74,c),
(225,73,o),
(224,73,o),
(224,72,c),
(214,56,o),
(197,49,o),
(179,49,cs),
(158,49,o),
(136,59,o),
(124,79,cs),
(115,95,o),
(110,113,o),
(102,130,c),
(104,131,o),
(105,132,o),
(107,134,c),
(111,132,o),
(116,131,o),
(120,129,cs),
(130,124,o),
(142,122,o),
(154,122,cs),
(188,122,o),
(227,138,o),
(244,168,cs),
(258,193,o),
(267,218,o),
(267,246,cs),
(267,251,ls),
(265,306,o),
(224,347,o),
(174,347,cs),
(169,347,o),
(164,347,o),
(159,346,cs),
(119,340,o),
(93,312,o),
(77,276,cs),
(63,245,o),
(57,211,o),
(57,177,cs),
(57,169,o),
(57,160,o),
(58,152,cs),
(60,112,o),
(70,74,o),
(96,43,cs),
(118,17,o),
(148,3,o),
(178,3,cs)
);
},
{
closed = 1;
nodes = (
(130,169,o),
(111,190,o),
(111,227,cs),
(111,229,l),
(114,239,o),
(120,259,o),
(130,276,cs),
(140,293,o),
(157,302,o),
(173,302,cs),
(176,302,o),
(180,302,o),
(183,301,cs),
(208,294,o),
(223,274,o),
(224,247,cs),
(224,241,ls),
(224,207,o),
(208,185,o),
(175,173,cs),
(168,170,o),
(162,169,o),
(155,169,cs)
);
},
{
closed = 1;
nodes = (
(259,374,o),
(263,376,o),
(267,379,cs),
(274,384,o),
(277,390,o),
(277,396,cs),
(277,401,o),
(275,406,o),
(271,412,cs),
(249,445,o),
(227,478,o),
(202,510,cs),
(191,524,o),
(180,532,o),
(169,532,cs),
(160,532,o),
(150,526,o),
(139,515,cs),
(112,488,o),
(89,458,o),
(66,429,cs),
(61,423,o),
(59,417,o),
(59,411,cs),
(59,403,o),
(63,395,o),
(70,392,cs),
(74,390,o),
(77,389,o),
(80,389,cs),
(90,389,o),
(95,397,o),
(102,406,cs),
(122,432,o),
(143,457,o),
(166,485,c),
(189,455,ls),
(204,432,o),
(219,409,o),
(235,387,cs),
(240,379,o),
(247,374,o),
(254,374,cs)
);
}
);
width = 325;
}
);
note = ecircumflex;
unicode = 234;
},
{
glyphname = edieresis;
lastChange = "2026-04-28 12:49:43 +0000";
layers = (
{
hints = (
{
horizontal = 1;
place = (0.08, 45.22);
place = (0.08, 45.22);
type = Stem;
},
{
horizontal = 1;
place = (117.78, 46.26);
place = (117.78, 46.26);
type = Stem;
},
{
horizontal = 1;
place = (299.05, 44.14);
place = (299.05, 44.14);
type = Stem;
},
{
place = (67.03, 54.28);
place = (67.03, 54.28);
type = Stem;
},
{
place = (234, 43.08);
place = (234, 43.08);
type = Stem;
},
{
horizontal = 1;
place = (384, 94.03);
place = (384, 94.03);
type = Stem;
},
{
place = (207, 94.03);
place = (207, 94.03);
type = Stem;
},
{
horizontal = 1;
place = (395, 94.03);
place = (395, 94.03);
type = Stem;
},
{
place = (52.97, 88.06);
place = (52.97, 88.06);
type = Stem;
}
);
layerId = m01;
shapes = (
{
closed = 1;
nodes = (
(222,0,o),
(255,16,o),
(274,46,cs),
(278,52,o),
(281,59,o),
(281,65,cs),
(281,71,o),
(279,76,o),
(274,82,cs),
(271,85,o),
(266,87,o),
(262,87,cs),
(255,87,o),
(247,83,o),
(239,75,cs),
(233,68,l),
(223,52,o),
(206,45,o),
(188,45,cs),
(169,45,o),
(149,54,o),
(138,70,cs),
(127,87,o),
(120,107,o),
(112,126,c),
(114,127,o),
(116,128,o),
(118,130,c),
(121,128,o),
(125,127,o),
(128,125,cs),
(138,120,o),
(151,118,o),
(164,118,cs),
(199,118,o),
(239,135,o),
(257,169,cs),
(269,193,o),
(277,217,o),
(277,243,cs),
(277,248,ls),
(274,303,o),
(233,343,o),
(184,343,cs),
(179,343,o),
(174,343,o),
(169,342,cs),
(128,336,o),
(102,308,o),
(87,272,cs),
(73,240,o),
(67,206,o),
(67,172,cs),
(67,160,o),
(68,148,o),
(69,136,cs),
(73,99,o),
(84,65,o),
(108,37,cs),
(129,12,o),
(159,0,o),
(188,0,cs)
);
},
{
closed = 1;
nodes = (
(144,164,o),
(126,178,o),
(123,201,cs),
(122,207,o),
(121,213,o),
(121,219,cs),
(121,245,o),
(132,267,o),
(152,286,cs),
(161,294,o),
(171,299,o),
(182,299,cs),
(188,299,o),
(195,298,o),
(202,294,cs),
(224,284,o),
(233,265,o),
(234,244,cs),
(234,200,o),
(212,173,o),
(172,165,cs),
(169,164,o),
(166,164,o),
(164,164,cs)
);
},
{
closed = 1;
nodes = (
(101,395,ls),
(121,395,o),
(141,415,o),
(141,436,cs),
(141,437,ls),
(141,461,o),
(117,489,o),
(95,489,cs),
(93,489,ls),
(72,489,o),
(54,468,o),
(53,444,cs),
(53,442,ls),
(53,419,o),
(75,396,o),
(98,395,cs)
);
},
{
closed = 1;
nodes = (
(278,385,o),
(301,406,o),
(301,428,cs),
(301,429,ls),
(300,451,o),
(272,478,o),
(250,478,cs),
(249,478,ls),
(227,477,o),
(207,454,o),
(207,429,cs),
(207,406,o),
(231,384,o),
(255,384,cs)
);
}
);
width = 355;
}
);
note = edieresis;
unicode = 235;
},
{
glyphname = ugrave;
lastChange = "2026-04-28 12:49:43 +0000";
layers = (
{
hints = (
{
place = (92, 40);
place = (92, 40);
type = Stem;
},
{
place = (215.75, 43.98);
place = (215.75, 43.98);
type = Stem;
}
);
layerId = m01;
shapes = (
{
closed = 1;
nodes = (
(284,-2,o),
(286,-2,o),
(289,-1,cs),
(298,2,o),
(302,8,o),
(302,18,cs),
(302,22,o),
(301,27,o),
(299,33,cs),
(289,60,o),
(278,86,o),
(271,113,cs),
(264,135,o),
(260,159,o),
(260,182,cs),
(260,204,ls),
(260,237,o),
(261,269,o),
(263,302,cs),
(263,308,o),
(263,315,o),
(262,321,cs),
(260,333,o),
(253,341,o),
(240,341,cs),
(228,342,o),
(221,335,o),
(219,324,cs),
(217,316,o),
(216,308,o),
(216,300,cs),
(216,242,ls),
(216,222,o),
(216,203,o),
(214,183,cs),
(212,148,o),
(206,113,o),
(200,78,cs),
(198,67,o),
(193,53,o),
(174,52,c),
(157,65,o),
(149,85,o),
(146,106,cs),
(139,146,o),
(134,188,o),
(131,229,cs),
(130,240,o),
(130,250,o),
(130,260,cs),
(130,284,o),
(131,307,o),
(132,330,cs),
(132,343,o),
(126,352,o),
(112,352,cs),
(101,353,o),
(94,345,o),
(92,333,cs),
(92,329,ls),
(89,296,o),
(87,264,o),
(87,232,cs),
(87,186,o),
(91,140,o),
(102,95,cs),
(108,73,o),
(118,50,o),
(131,31,cs),
(144,13,o),
(161,5,o),
(179,5,cs),
(198,5,o),
(218,15,o),
(231,36,cs),
(235,41,o),
(238,46,o),
(242,53,c),
(248,40,o),
(254,29,o),
(259,18,cs),
(264,7,o),
(270,-2,o),
(281,-2,cs)
);
},
{
closed = 1;
nodes = (
(196,368,o),
(200,369,o),
(205,373,cs),
(216,382,o),
(214,393,o),
(207,404,cs),
(191,428,o),
(177,452,o),
(162,475,cs),
(155,486,o),
(148,496,o),
(140,506,cs),
(134,512,o),
(128,515,o),
(121,515,cs),
(117,515,o),
(113,514,o),
(108,512,cs),
(96,506,o),
(95,495,o),
(102,485,cs),
(112,470,o),
(123,455,o),
(133,439,cs),
(147,419,o),
(159,397,o),
(174,377,cs),
(179,371,o),
(185,368,o),
(191,368,cs)
);
}
);
width = 382;
}
);
note = ugrave;
unicode = 249;
},
{
glyphname = uacute;
lastChange = "2026-04-28 12:49:43 +0000";
layers = (
{
hints = (
{
horizontal = 1;
place = (347, -20);
target = down;
type = TopGhost;
},
{
place = (98, 44);
place = (98, 44);
type = Stem;
},
{
place = (228, 46);
place = (228, 46);
type = Stem;
}
);
layerId = m01;
shapes = (
{
closed = 1;
nodes = (
(296,-7,o),
(299,-6,o),
(302,-5,cs),
(309,-2,o),
(313,3,o),
(313,12,cs),
(313,18,o),
(311,26,o),
(307,36,cs),
(288,87,o),
(270,137,o),
(270,192,cs),
(270,203,o),
(270,214,o),
(272,226,cs),
(274,235,o),
(274,244,o),
(274,254,cs),
(274,315,ls),
(274,327,o),
(266,336,o),
(253,336,cs),
(240,337,o),
(233,330,o),
(230,318,cs),
(229,310,o),
(228,302,o),
(228,294,cs),
(228,236,ls),
(228,217,o),
(228,198,o),
(226,179,cs),
(224,144,o),
(218,109,o),
(212,74,cs),
(210,64,o),
(200,55,o),
(192,41,c),
(182,52,o),
(175,58,o),
(172,65,cs),
(164,84,o),
(157,103,o),
(152,123,cs),
(144,159,o),
(142,195,o),
(142,231,cs),
(142,258,o),
(143,284,o),
(143,310,cs),
(143,320,o),
(142,330,o),
(142,338,c),
(133,344,o),
(126,347,o),
(120,347,cs),
(111,347,o),
(106,339,o),
(104,325,cs),
(100,293,o),
(98,261,o),
(98,229,cs),
(98,181,o),
(103,133,o),
(115,86,cs),
(120,65,o),
(131,43,o),
(144,25,cs),
(157,8,o),
(174,0,o),
(191,0,cs),
(210,0,o),
(230,10,o),
(243,30,cs),
(254,48,l),
(260,37,o),
(264,28,o),
(269,19,cs),
(278,1,o),
(285,-7,o),
(294,-7,cs)
);
},
{
closed = 1;
nodes = (
(167,383,o),
(178,386,o),
(186,394,cs),
(190,398,o),
(193,403,o),
(197,407,cs),
(222,435,o),
(248,464,o),
(273,493,cs),
(278,498,o),
(281,504,o),
(287,514,c),
(278,520,o),
(270,529,o),
(263,529,cs),
(253,528,o),
(241,523,o),
(234,516,cs),
(208,486,o),
(183,455,o),
(157,424,cs),
(155,422,o),
(152,419,o),
(153,416,c),
(154,408,o),
(154,397,o),
(159,391,cs)
);
}
);
width = 400;
}
);
note = uacute;
unicode = 250;
},
{
glyphname = ucircumflex;
lastChange = "2026-04-28 12:49:43 +0000";
layers = (
{
hints = (
{
place = (101, 44);
place = (101, 44);
type = Stem;
},
{
place = (230, 42);
place = (230, 42);
type = Stem;
},
{
place = (88, 42);
place = (88, 42);
type = Stem;
}
);
layerId = m01;
shapes = (
{
closed = 1;
nodes = (
(301,-10,o),
(303,-10,o),
(304,-9,c),
(317,-4,o),
(318,7,o),
(315,19,cs),
(312,29,o),
(308,39,o),
(303,49,c),
(286,93,o),
(272,138,o),
(272,185,cs),
(272,194,o),
(273,204,o),
(274,214,cs),
(278,242,o),
(276,270,o),
(277,299,cs),
(277,322,o),
(269,333,o),
(254,333,cs),
(239,333,o),
(232,323,o),
(230,301,c),
(230,230,ls),
(230,211,o),
(230,192,o),
(228,174,cs),
(226,139,o),
(221,105,o),
(214,71,cs),
(212,61,o),
(203,51,o),
(194,37,c),
(167,63,o),
(159,89,o),
(155,116,cs),
(150,153,o),
(147,190,o),
(145,228,cs),
(145,255,ls),
(145,277,o),
(145,298,o),
(146,320,cs),
(146,332,o),
(142,342,o),
(128,344,cs),
(114,345,o),
(107,336,o),
(106,322,cs),
(106,320,ls),
(103,288,o),
(101,256,o),
(101,224,cs),
(101,178,o),
(105,132,o),
(117,86,cs),
(123,62,o),
(134,38,o),
(149,19,cs),
(161,4,o),
(177,-4,o),
(193,-4,cs),
(211,-4,o),
(225,-2,o),
(238,16,cs),
(242,22,o),
(251,36,o),
(256,45,c),
(263,29,o),
(262,31,o),
(269,18,cs),
(273,8,o),
(288,-10,o),
(300,-10,cs)
);
},
{
closed = 1;
nodes = (
(300,371,o),
(303,382,o),
(302,393,cs),
(302,400,o),
(300,408,o),
(296,413,cs),
(275,446,o),
(254,479,o),
(231,511,cs),
(223,523,o),
(213,529,o),
(203,529,cs),
(195,529,o),
(185,524,o),
(176,515,cs),
(150,489,o),
(124,462,o),
(100,435,cs),
(94,429,o),
(89,419,o),
(88,411,cs),
(87,405,o),
(92,395,o),
(97,392,cs),
(103,389,o),
(112,392,o),
(119,394,cs),
(123,396,o),
(126,402,o),
(130,406,cs),
(201,477,l),
(222,443,o),
(242,413,o),
(261,381,cs),
(267,370,o),
(275,364,o),
(287,367,cs)
);
}
);
width = 396;
}
);
note = ucircumflex;
unicode = 251;
},
{
glyphname = udieresis;
lastChange = "2026-04-28 12:49:43 +0000";
layers = (
{
layerId = m01;
shapes = (
{
closed = 1;
nodes = (
(302,-11,o),
(305,-10,o),
(308,-8,cs),
(316,-3,o),
(319,3,o),
(319,10,cs),
(319,15,o),
(318,20,o),
(316,25,cs),
(306,51,o),
(295,77,o),
(287,104,cs),
(281,127,o),
(277,150,o),
(276,173,cs),
(276,214,o),
(278,255,o),
(279,296,cs),
(279,302,o),
(281,310,o),
(278,314,cs),
(273,322,o),
(265,330,o),
(257,332,cs),
(246,336,o),
(238,328,o),
(236,316,cs),
(234,308,o),
(233,301,o),
(233,293,cs),
(232,253,o),
(233,214,o),
(231,175,cs),
(228,140,o),
(223,105,o),
(217,70,cs),
(215,59,o),
(210,46,o),
(193,44,c),
(177,52,o),
(170,68,o),
(167,83,cs),
(159,120,o),
(151,157,o),
(148,194,cs),
(147,207,o),
(147,220,o),
(147,233,cs),
(147,258,o),
(148,284,o),
(148,310,cs),
(148,322,ls),
(148,334,o),
(143,344,o),
(130,344,cs),
(117,345,o),
(110,336,o),
(109,323,cs),
(105,291,o),
(103,259,o),
(103,227,cs),
(103,192,o),
(106,157,o),
(112,122,cs),
(118,91,o),
(127,60,o),
(141,33,cs),
(154,8,o),
(174,-4,o),
(194,-4,cs),
(215,-4,o),
(227,-2,o),
(242,22,cs),
(244,26,o),
(255,40,o),
(257,43,c),
(258,42,o),
(259,42,o),
(260,42,cs),
(273,42,o),
(272,27,o),
(278,16,cs),
(284,4,o),
(290,-11,o),
(299,-11,cs)
);
},
{
closed = 1;
nodes = (
(169,413,o),
(185,429,o),
(186,451,cs),
(186,453,ls),
(186,478,o),
(163,501,o),
(140,501,cs),
(120,500,o),
(104,483,o),
(104,459,cs),
(104,434,o),
(123,413,o),
(146,413,cs)
);
},
{
closed = 1;
nodes = (
(306,401,o),
(312,412,o),
(317,449,cs),
(317,452,ls),
(317,474,o),
(296,492,o),
(274,492,cs),
(272,492,ls),
(249,492,o),
(231,473,o),
(231,450,cs),
(231,448,ls),
(231,424,o),
(255,402,o),
(281,401,cs)
);
}
);
width = 400;
}
);
note = udieresis;
unicode = 252;
},
{
glyphname = AE;
lastChange = "2026-04-28 12:49:43 +0000";
layers = (
{
layerId = m01;
shapes = (
{
closed = 1;
nodes = (
(419,-10,o),
(443,-8,o),
(467,-6,cs),
(526,-2,o),
(527,25,o),
(470,40,c),
(450,47,o),
(429,39,o),
(407,42,cs),
(359,51,o),
(341,84,o),
(359,131,cs),
(364,145,o),
(370,150,o),
(386,150,cs),
(419,149,o),
(452,149,o),
(485,150,cs),
(512,150,o),
(507,182,o),
(491,185,cs),
(465,192,o),
(439,187,o),
(412,190,cs),
(367,194,o),
(353,205,o),
(353,251,cs),
(353,336,o),
(358,566,o),
(358,634,cs),
(359,658,o),
(371,669,o),
(394,671,cs),
(415,672,o),
(438,671,o),
(459,673,cs),
(494,677,o),
(524,709,o),
(490,718,c),
(450,721,o),
(410,718,o),
(369,722,cs),
(249,734,o),
(211,623,o),
(182,554,cs),
(113,390,o),
(92,215,o),
(76,41,cs),
(72,13,o),
(103,-18,o),
(115,17,cs),
(122,43,o),
(121,69,o),
(126,96,cs),
(134,129,o),
(142,138,o),
(176,139,cs),
(199,140,o),
(224,140,o),
(249,139,cs),
(293,137,o),
(296,133,o),
(301,88,cs),
(308,19,o),
(324,3,o),
(394,-6,cs)
);
},
{
closed = 1;
nodes = (
(122,263,o),
(306,734,o),
(306,647,cs),
(306,501,o),
(306,357,o),
(307,212,cs),
(307,194,o),
(298,186,o),
(283,186,cs),
(154,186,l)
);
}
);
width = 572;
}
);
unicode = 198;
},
{
glyphname = Eth;
lastChange = "2026-04-28 12:49:43 +0000";
layers = (
{
layerId = m01;
shapes = (
{
closed = 1;
nodes = (
(228,-14,o),
(315,102,o),
(344,174,cs),
(390,288,o),
(376,395,o),
(349,510,cs),
(320,632,o),
(197,765,o),
(157,699,c),
(157,210,l),
(105,211,o),
(68,213,o),
(26,213,cs),
(-17,213,o),
(0,169,o),
(25,162,cs),
(39,157,o),
(124,157,o),
(152,158,c),
(152,122,o),
(146,-7,o),
(171,-9,cs)
);
},
{
closed = 1;
nodes = (
(207,156,l),
(292,163,o),
(264,220,o),
(205,212,c),
(205,295,o),
(210,647,o),
(212,654,c),
(263,628,o),
(293,549,o),
(306,491,cs),
(331,377,o),
(339,267,o),
(287,164,cs),
(274,138,o),
(226,93,o),
(207,70,c)
);
}
);
width = 424;
}
);
unicode = 208;
},
{
glyphname = Dcroat;
lastChange = "2026-04-28 12:49:43 +0000";
layers = (
{
layerId = m01;
shapes = (
{
closed = 1;
nodes = (
(235,-14,o),
(322,102,o),
(351,174,cs),
(397,288,o),
(383,395,o),
(356,510,cs),
(327,632,o),
(204,765,o),
(164,699,c),
(164,210,l),
(112,211,o),
(75,213,o),
(33,213,cs),
(-10,213,o),
(7,169,o),
(32,162,cs),
(46,157,o),
(131,157,o),
(159,158,c),
(159,122,o),
(153,-7,o),
(178,-9,cs)
);
},
{
closed = 1;
nodes = (
(214,156,l),
(299,163,o),
(271,220,o),
(212,212,c),
(212,295,o),
(217,647,o),
(219,654,c),
(270,628,o),
(300,549,o),
(313,491,cs),
(338,377,o),
(346,267,o),
(294,164,cs),
(281,138,o),
(233,93,o),
(214,70,c)
);
}
);
width = 429;
}
);
unicode = 272;
},
{
glyphname = Hbar;
lastChange = "2026-04-28 12:49:43 +0000";
layers = (
{
layerId = m01;
shapes = (
{
closed = 1;
nodes = (
(158,0,o),
(178,0,o),
(189,19,cs),
(192,26,o),
(189,92,o),
(190,116,cs),
(192,144,o),
(201,154,o),
(228,155,cs),
(265,156,o),
(301,156,o),
(338,155,cs),
(367,154,o),
(374,147,o),
(375,115,cs),
(377,85,o),
(378,56,o),
(380,28,c),
(374,0,o),
(423,-24,o),
(423,31,cs),
(423,307,l),
(439,310,o),
(452,310,o),
(463,315,cs),
(488,327,o),
(485,349,o),
(457,360,cs),
(447,363,o),
(435,360,o),
(424,360,c),
(424,459,o),
(431,682,o),
(428,698,cs),
(425,712,o),
(396,711,o),
(393,697,c),
(376,358,l),
(193,364,l),
(193,373,o),
(204,687,o),
(200,701,cs),
(198,713,o),
(165,716,o),
(161,702,cs),
(154,682,o),
(148,386,o),
(148,363,c),
(75,357,o),
(76,317,o),
(145,309,c),
(145,225,o),
(147,33,o),
(152,19,cs)
);
},
{
closed = 1;
nodes = (
(302,200,o),
(259,202,o),
(217,204,cs),
(200,205,o),
(192,220,o),
(191,237,cs),
(190,259,o),
(191,281,o),
(191,309,c),
(374,309,l),
(374,283,o),
(377,257,o),
(373,232,cs),
(371,220,o),
(355,204,o),
(344,203,cs)
);
}
);
width = 491;
}
);
unicode = 294;
},
{
glyphname = Lcaron;
lastChange = "2026-04-28 12:49:43 +0000";
layers = (
{
anchors = (
{
name = bottom;
pos = (160,0);
},
{
name = center;
pos = (160,358);
},
{
name = top;
pos = (160,728);
},
{
name = topright;
pos = (290,715);
}
);
hints = (
{
horizontal = 1;
place = (12.45, 48.55);
place = (12.45, 48.55);
type = Stem;
},
{
place = (75, 44);
place = (75, 44);
type = Stem;
},
{
place = (92, 40);
place = (92, 40);
type = Stem;
}
);
layerId = m01;
shapes = (
{
closed = 1;
nodes = (
(119,1,o),
(236,5,o),
(236,44,cs),
(236,79,o),
(176,64,o),
(139,70,c),
(139,250,o),
(149,505,o),
(152,669,cs),
(152,742,o),
(105,719,o),
(102,678,cs),
(96,467,o),
(74,37,o),
(94,21,cs)
);
},
{
closed = 1;
nodes = (
(302,590,o),
(311,653,o),
(302,687,cs),
(297,702,o),
(285,716,o),
(271,727,c),
(257,730,o),
(241,722,o),
(230,710,cs),
(223,703,o),
(226,668,o),
(228,660,cs),
(231,650,o),
(253,653,o),
(256,644,cs),
(260,630,o),
(218,579,o),
(222,560,c)
);
}
);
width = 380;
}
);
unicode = 317;
},
{
glyphname = Lslash;
lastChange = "2026-04-28 12:49:43 +0000";
layers = (
{
layerId = m01;
shapes = (
{
closed = 1;
nodes = (
(284,10,o),
(284,94,o),
(144,59,c),
(144,98,o),
(136,127,o),
(146,161,cs),
(152,178,o),
(187,188,o),
(209,201,cs),
(263,234,o),
(226,291,o),
(146,226,c),
(146,484,o),
(150,471,o),
(154,678,cs),
(154,761,o),
(106,747,o),
(102,680,cs),
(97,527,o),
(104,375,o),
(100,223,cs),
(100,186,o),
(43,201,o),
(16,157,c),
(-16,139,o),
(2,84,o),
(43,110,cs),
(59,119,o),
(76,128,o),
(95,139,c),
(95,88,o),
(79,4,o),
(158,10,c)
);
}
);
width = 271;
}
);
unicode = 321;
},
{
glyphname = Eng;
lastChange = "2026-04-28 12:49:43 +0000";
layers = (
{
layerId = m01;
shapes = (
{
closed = 1;
nodes = (
(294,-127,o),
(306,-93,o),
(310,-63,cs),
(342,173,o),
(351,440,o),
(355,677,cs),
(356,718,o),
(311,739,o),
(305,709,cs),
(300,683,o),
(284,184,o),
(281,183,c),
(255,279,o),
(170,630,o),
(123,707,cs),
(107,735,o),
(73,727,o),
(67,694,cs),
(51,604,o),
(67,227,o),
(71,48,cs),
(71,-25,o),
(120,-4,o),
(116,53,c),
(113,225,o),
(108,595,o),
(108,604,c),
(110,604,o),
(222,233,o),
(269,55,cs),
(284,-2,o),
(263,-121,o),
(241,-66,cs),
(228,-28,o),
(188,-45,o),
(199,-85,cs),
(207,-107,o),
(238,-128,o),
(261,-127,cs)
);
}
);
width = 405;
}
);
unicode = 330;
},
{
glyphname = Oslash;
lastChange = "2026-04-28 12:49:43 +0000";
layers = (
{
layerId = m01;
shapes = (
{
closed = 1;
nodes = (
(79,25,o),
(83,35,o),
(88,52,c),
(112,7,o),
(149,-11,o),
(206,47,cs),
(245,87,o),
(257,292,o),
(257,386,cs),
(257,436,o),
(251,500,o),
(240,557,c),
(246,579,o),
(252,600,o),
(258,619,cs),
(290,729,o),
(235,694,o),
(228,673,cs),
(225,662,o),
(221,650,o),
(217,638,c),
(204,671,o),
(188,695,o),
(168,699,cs),
(130,708,o),
(86,633,o),
(74,596,cs),
(49,515,o),
(38,432,o),
(38,349,cs),
(38,292,o),
(44,234,o),
(53,176,cs),
(55,162,o),
(58,148,o),
(61,133,c),
(45,81,o),
(35,45,o),
(35,41,cs),
(35,18,o),
(45,-9,o),
(78,24,cs)
);
},
{
closed = 1;
nodes = (
(133,56,o),
(121,86,o),
(112,129,c),
(137,211,o),
(172,329,o),
(204,437,c),
(206,399,o),
(206,361,o),
(206,331,cs),
(206,238,o),
(198,56,o),
(148,56,cs)
);
},
{
closed = 1;
nodes = (
(90,296,o),
(87,345,o),
(87,367,cs),
(87,493,o),
(122,645,o),
(164,633,cs),
(178,629,o),
(188,601,o),
(194,563,c),
(95,244,l)
);
}
);
width = 312;
}
);
unicode = 216;
},
{
glyphname = OE;
lastChange = "2026-04-28 12:49:43 +0000";
layers = (
{
layerId = m01;
shapes = (
{
closed = 1;
nodes = (
(201,7,o),
(231,31,o),
(258,48,c),
(285,26,o),
(357,10,o),
(403,18,cs),
(438,24,o),
(439,49,o),
(405,59,cs),
(317,84,o),
(285,52,o),
(293,148,c),
(297,163,o),
(303,171,o),
(319,169,cs),
(348,168,o),
(376,168,o),
(405,169,cs),
(425,169,o),
(430,201,o),
(410,205,cs),
(386,211,o),
(362,206,o),
(338,208,cs),
(301,212,o),
(294,219,o),
(294,258,cs),
(293,351,o),
(288,534,o),
(291,627,cs),
(292,648,o),
(304,659,o),
(324,662,cs),
(343,663,o),
(404,659,o),
(414,674,c),
(431,682,o),
(428,697,o),
(409,700,cs),
(370,704,o),
(288,723,o),
(259,688,c),
(229,710,o),
(212,724,o),
(175,719,cs),
(130,713,o),
(95,622,o),
(76,565,cs),
(36,443,o),
(34,315,o),
(48,188,cs),
(59,92,o),
(122,1,o),
(175,5,cs)
);
},
{
closed = 1;
nodes = (
(148,67,o),
(113,113,o),
(102,175,c),
(94,281,o),
(90,387,o),
(108,493,c),
(137,590,o),
(154,647,o),
(184,651,cs),
(214,655,o),
(238,605,o),
(246,488,cs),
(249,437,o),
(247,205,o),
(247,139,cs),
(247,98,o),
(205,62,o),
(170,65,cs)
);
}
);
width = 475;
}
);
unicode = 338;
},
{
glyphname = Thorn;
lastChange = "2026-04-28 12:49:43 +0000";
layers = (
{
layerId = m01;
shapes = (
{
closed = 1;
nodes = (
(94,-131,o),
(117,-95,o),
(117,-72,cs),
(117,-36,o),
(114,-19,o),
(136,11,c),
(267,127,o),
(274,351,o),
(261,488,cs),
(253,569,o),
(201,618,o),
(110,632,c),
(110,649,o),
(113,665,o),
(110,681,c),
(100,776,o),
(60,773,o),
(60,696,cs),
(61,627,o),
(64,556,o),
(65,486,cs),
(69,303,o),
(78,-89,o),
(82,-103,c)
);
},
{
closed = 1;
nodes = (
(119,598,l),
(181,576,o),
(196,529,o),
(205,476,cs),
(226,352,o),
(194,154,o),
(119,68,c)
);
}
);
width = 316;
}
);
unicode = 222;
},
{
glyphname = Germandbls;
lastChange = "2026-04-28 12:49:43 +0000";
layers = (
{
layerId = m01;
shapes = (
{
closed = 1;
nodes = (
(109,-2,o),
(116,11,o),
(116,44,cs),
(115,164,o),
(113,284,o),
(113,404,cs),
(113,444,o),
(117,543,o),
(122,583,cs),
(133,680,o),
(250,660,o),
(326,635,cs),
(354,627,o),
(364,613,o),
(354,580,cs),
(320,472,o),
(276,345,o),
(242,237,cs),
(229,193,o),
(240,175,o),
(284,174,cs),
(314,173,o),
(334,157,o),
(362,137,c),
(383,114,o),
(378,86,o),
(349,75,cs),
(328,68,o),
(257,67,o),
(236,63,cs),
(170,48,o),
(167,4,o),
(234,9,cs),
(248,10,o),
(313,9,o),
(328,11,cs),
(380,17,o),
(424,60,o),
(428,110,cs),
(432,157,o),
(391,199,o),
(340,217,cs),
(328,221,o),
(314,224,o),
(299,228,c),
(302,238,o),
(304,246,o),
(307,255,cs),
(338,361,o),
(379,486,o),
(407,592,cs),
(412,612,o),
(413,642,o),
(402,653,cs),
(362,693,o),
(313,717,o),
(253,717,cs),
(166,717,o),
(95,703,o),
(74,617,cs),
(64,571,o),
(59,465,o),
(59,418,cs),
(60,293,o),
(63,169,o),
(66,44,cs),
(67,10,o),
(73,-2,o),
(91,-2,cs)
);
}
);
width = 488;
}
);
unicode = 7838;
},
{
glyphname = ae;
lastChange = "2026-04-28 12:49:43 +0000";
layers = (
{
layerId = m01;
shapes = (
{
closed = 1;
nodes = (
(219,36,o),
(245,54,o),
(272,73,c),
(322,-14,o),
(402,-29,o),
(458,26,cs),
(499,64,o),
(477,101,o),
(431,69,cs),
(407,52,o),
(382,37,o),
(352,51,cs),
(320,66,o),
(310,97,o),
(306,130,c),
(409,111,o),
(464,148,o),
(475,240,cs),
(481,290,o),
(451,339,o),
(407,355,cs),
(332,381,o),
(295,321,o),
(265,269,c),
(260,281,o),
(255,289,o),
(252,295,cs),
(221,347,o),
(154,365,o),
(104,333,cs),
(58,305,o),
(58,264,o),
(124,293,cs),
(197,326,o),
(237,259,o),
(234,216,cs),
(233,201,o),
(174,227,o),
(148,222,cs),
(85,211,o),
(47,139,o),
(64,71,cs),
(80,13,o),
(143,-20,o),
(194,17,cs)
);
},
{
closed = 1;
nodes = (
(127,28,o),
(117,67,o),
(109,105,c),
(111,136,o),
(122,159,o),
(150,172,cs),
(181,186,o),
(218,158,o),
(224,131,cs),
(229,107,o),
(192,71,o),
(174,59,cs)
);
},
{
closed = 1;
nodes = (
(329,171,o),
(309,195,o),
(310,229,cs),
(311,269,o),
(346,312,o),
(375,312,cs),
(407,312,o),
(430,283,o),
(430,247,cs),
(429,207,o),
(393,168,o),
(356,170,cs)
);
}
);
width = 540;
}
);
unicode = 230;
},
{
glyphname = eth;
lastChange = "2026-04-28 12:49:43 +0000";
layers = (
{
layerId = m01;
shapes = (
{
closed = 1;
nodes = (
(274,18,o),
(266,242,o),
(231,337,cs),
(224,356,o),
(217,376,o),
(210,397,c),
(262,427,ls),
(295,445,o),
(273,470,o),
(241,464,c),
(197,450,o),
(200,416,o),
(166,455,cs),
(146,478,o),
(117,480,o),
(98,463,cs),
(91,457,o),
(88,444,o),
(89,436,c),
(104,422,o),
(135,423,o),
(145,422,c),
(145,400,o),
(86,381,o),
(68,369,cs),
(44,354,o),
(57,328,o),
(84,333,cs),
(97,335,o),
(152,367,o),
(170,377,c),
(177,359,o),
(182,344,o),
(189,328,c),
(82,347,o),
(37,249,o),
(40,156,cs),
(44,76,o),
(84,-1,o),
(154,6,cs)
);
},
{
closed = 1;
nodes = (
(58,38,o),
(69,300,o),
(153,290,cs),
(204,284,o),
(211,228,o),
(211,183,cs),
(211,139,o),
(196,54,o),
(153,50,cs)
);
}
);
width = 308;
}
);
unicode = 240;
},
{
glyphname = dcaron;
lastChange = "2026-04-28 12:49:43 +0000";
layers = (
{
anchors = (
{
name = bottom;
pos = (156,0);
},
{
name = center;
pos = (156,179);
},
{
name = top;
pos = (234,561);
},
{
name = topright;
pos = (362,532);
}
);
hints = (
{
horizontal = 1;
place = (1.15, 47.31);
place = (1.15, 47.31);
type = Stem;
},
{
horizontal = 1;
place = (306.18, 46.7);
place = (306.18, 46.7);
type = Stem;
},
{
place = (211, 47);
place = (211, 47);
type = Stem;
}
);
layerId = m01;
shapes = (
{
closed = 1;
nodes = (
(232,-24,o),
(252,-17,o),
(254,14,cs),
(260,221,o),
(256,307,o),
(256,511,c),
(253,552,o),
(210,551,o),
(210,510,cs),
(210,489,o),
(211,468,o),
(211,446,cs),
(211,330,l),
(171,345,o),
(163,353,o),
(140,353,cs),
(54,353,o),
(34,239,o),
(34,165,cs),
(34,84,o),
(63,1,o),
(144,1,cs),
(170,1,o),
(196,27,o),
(212,39,c),
(214,21,o),
(207,4,o),
(216,-6,cs)
);
},
{
closed = 1;
nodes = (
(83,57,o),
(86,115,o),
(78,169,c),
(83,200,o),
(78,306,o),
(140,306,cs),
(195,306,o),
(214,232,o),
(214,179,cs),
(214,138,o),
(193,48,o),
(144,48,c)
);
},
{
closed = 1;
nodes = (
(374,407,o),
(383,470,o),
(374,504,cs),
(369,519,o),
(357,533,o),
(343,544,c),
(329,547,o),
(313,539,o),
(302,527,cs),
(295,520,o),
(298,485,o),
(300,477,cs),
(303,467,o),
(325,470,o),
(328,461,cs),
(332,447,o),
(290,396,o),
(294,377,c)
);
}
);
width = 382;
}
);
unicode = 271;
},
{
glyphname = dcroat;
lastChange = "2026-04-28 12:49:43 +0000";
layers = (
{
layerId = m01;
shapes = (
{
closed = 1;
nodes = (
(228,-26,o),
(254,-22,o),
(254,20,cs),
(255,97,o),
(257,302,o),
(257,361,c),
(302,361,ls),
(317,361,o),
(333,364,o),
(334,384,cs),
(334,406,o),
(316,407,o),
(299,407,cs),
(258,407,l),
(253,448,o),
(258,461,o),
(253,501,cs),
(251,517,o),
(227,529,o),
(213,500,cs),
(210,492,o),
(211,429,o),
(211,406,c),
(181,406,o),
(152,407,o),
(123,405,cs),
(99,402,o),
(96,380,o),
(121,366,cs),
(128,362,o),
(190,363,o),
(211,363,c),
(213,317,l),
(199,322,o),
(184,329,o),
(172,334,cs),
(90,362,o),
(43,275,o),
(37,183,cs),
(28,46,o),
(107,-60,o),
(213,32,c),
(214,20,o),
(213,10,o),
(217,2,cs)
);
},
{
closed = 1;
nodes = (
(82,53,o),
(77,154,o),
(90,207,cs),
(97,231,o),
(117,291,o),
(143,293,cs),
(197,298,o),
(209,221,o),
(209,171,cs),
(209,119,o),
(193,40,o),
(142,46,cs)
);
}
);
width = 360;
}
);
unicode = 273;
},
{
glyphname = hbar;
lastChange = "2026-04-28 12:49:43 +0000";
layers = (
{
layerId = m01;
shapes = (
{
closed = 1;
nodes = (
(101,1,o),
(122,0,o),
(130,19,c),
(134,176,o),
(143,208,o),
(166,246,cs),
(190,288,o),
(228,298,o),
(237,205,cs),
(242,147,o),
(243,88,o),
(246,30,cs),
(248,-13,o),
(291,-10,o),
(290,31,cs),
(287,138,o),
(290,186,o),
(265,275,cs),
(248,332,o),
(199,343,o),
(156,302,cs),
(145,291,o),
(143,274,o),
(133,283,c),
(133,358,l),
(164,358,o),
(193,357,o),
(222,358,cs),
(262,358,o),
(265,402,o),
(224,402,cs),
(131,402,l),
(131,480,ls),
(129,555,o),
(90,525,o),
(90,498,cs),
(90,406,l),
(34,406,ls),
(0,406,o),
(4,371,o),
(33,366,cs),
(51,363,o),
(70,365,o),
(92,365,c),
(92,349,o),
(88,25,o),
(92,18,cs)
);
}
);
width = 370;
}
);
unicode = 295;
},
{
glyphname = idotless;
lastChange = "2026-04-28 12:49:43 +0000";
layers = (
{
anchors = (
{
name = bottom;
pos = (137,0);
},
{
name = ogonek;
pos = (143,28);
},
{
name = top;
pos = (137,363);
}
);
layerId = m01;
shapes = (
{
closed = 1;
nodes = (
(125,2,o),
(169,-5,o),
(169,42,cs),
(171,99,o),
(169,212,o),
(169,269,cs),
(169,331,o),
(140,345,o),
(122,317,cs),
(104,293,o),
(88,268,o),
(74,242,cs),
(56,207,o),
(111,198,o),
(125,246,c),
(129,194,o),
(125,97,o),
(125,41,cs)
);
}
);
width = 240;
}
);
unicode = 305;
},
{
glyphname = jdotless;
lastChange = "2026-04-28 12:49:43 +0000";
layers = (
{
anchors = (
{
name = bottom;
pos = (101,-200);
},
{
name = top;
pos = (141,358);
}
);
layerId = m01;
shapes = (
{
closed = 1;
nodes = (
(121,-203,o),
(160,-166,o),
(166,-118,cs),
(178,-28,o),
(171,215,o),
(168,305,c),
(164,338,o),
(128,334,o),
(118,317,cs),
(97,286,o),
(79,261,o),
(60,229,cs),
(39,192,o),
(74,171,o),
(98,203,cs),
(106,214,o),
(122,227,o),
(129,239,c),
(127,141,o),
(133,143,o),
(126,-97,cs),
(125,-140,o),
(99,-170,o),
(60,-153,cs),
(10,-134,o),
(26,-203,o),
(79,-203,cs)
);
}
);
width = 233;
}
);
unicode = 567;
},
{
glyphname = lcaron;
lastChange = "2026-04-28 12:49:43 +0000";
layers = (
{
anchors = (
{
name = bottom;
pos = (115,0);
},
{
name = center;
pos = (115,400);
},
{
name = top;
pos = (91,605);
},
{
name = topright;
pos = (208,597);
}
);
hints = (
{
horizontal = 1;
place = (11.52, 52.34);
place = (11.52, 52.34);
type = Stem;
},
{
horizontal = 1;
place = (599, -20);
target = down;
type = TopGhost;
},
{
place = (56.85, 48.15);
place = (56.85, 48.15);
type = Stem;
},
{
place = (69.21, 43.79);
place = (69.21, 43.79);
type = Stem;
}
);
layerId = m01;
shapes = (
{
closed = 1;
nodes = (
(165,12,o),
(195,53,o),
(148,63,cs),
(145,64,o),
(122,63,o),
(112,62,c),
(97,99,o),
(113,568,o),
(108,584,cs),
(101,607,o),
(68,597,o),
(68,573,cs),
(68,354,o),
(47,99,o),
(66,61,cs),
(80,33,o),
(97,12,o),
(124,12,cs)
);
},
{
closed = 1;
nodes = (
(220,472,o),
(229,535,o),
(220,569,cs),
(215,584,o),
(203,598,o),
(189,609,c),
(175,612,o),
(159,604,o),
(148,592,cs),
(141,585,o),
(144,550,o),
(146,542,cs),
(149,532,o),
(171,535,o),
(174,526,cs),
(178,512,o),
(136,461,o),
(140,442,c)
);
}
);
width = 249;
}
);
unicode = 318;
},
{
glyphname = lslash;
lastChange = "2026-04-28 12:49:43 +0000";
layers = (
{
layerId = m01;
shapes = (
{
closed = 1;
nodes = (
(192,12,o),
(211,54,o),
(169,63,cs),
(166,64,o),
(143,63,o),
(133,62,c),
(128,112,o),
(126,148,o),
(125,186,c),
(146,196,o),
(168,207,o),
(189,218,c),
(212,226,o),
(208,253,o),
(185,260,c),
(176,261,o),
(153,252,o),
(126,239,c),
(127,302,o),
(131,384,o),
(134,533,cs),
(134,604,o),
(99,614,o),
(89,573,c),
(89,513,o),
(80,348,o),
(80,217,c),
(44,199,o),
(13,180,o),
(5,175,cs),
(-13,164,o),
(-8,126,o),
(30,141,cs),
(80,164,l),
(80,120,o),
(83,83,o),
(87,61,cs),
(93,30,o),
(118,12,o),
(145,12,cs)
);
}
);
width = 227;
}
);
unicode = 322;
},
{
glyphname = eng;
lastChange = "2026-04-28 12:49:43 +0000";
layers = (
{
layerId = m01;
shapes = (
{
closed = 1;
nodes = (
(242,-112,o),
(254,-72,o),
(257,-44,cs),
(262,31,o),
(288,238,o),
(238,307,c),
(213,363,o),
(156,372,o),
(124,329,c),
(116,322,o),
(110,313,o),
(99,301,c),
(99,357,o),
(53,377,o),
(53,324,cs),
(53,27,l),
(49,-7,o),
(99,-15,o),
(99,16,c),
(111,88,o),
(112,180,o),
(125,250,c),
(161,322,o),
(203,303,o),
(213,226,c),
(217,158,o),
(218,88,o),
(218,20,c),
(207,-60,l),
(185,0,o),
(136,-21,o),
(149,-70,cs),
(156,-91,o),
(185,-112,o),
(207,-112,cs)
);
}
);
width = 321;
}
);
unicode = 331;
},
{
glyphname = oslash;
lastChange = "2026-04-28 12:49:43 +0000";
layers = (
{
layerId = m01;
shapes = (
{
closed = 1;
nodes = (
(86,8,o),
(96,23,o),
(112,44,c),
(130,21,o),
(153,6,o),
(182,6,cs),
(225,6,o),
(262,28,o),
(274,72,cs),
(292,132,o),
(296,172,o),
(296,198,cs),
(296,222,o),
(293,246,o),
(287,267,c),
(317,307,o),
(339,336,o),
(340,341,cs),
(345,360,o),
(303,371,o),
(292,355,c),
(282,344,o),
(272,331,o),
(262,319,c),
(244,342,o),
(219,357,o),
(187,357,cs),
(118,357,o),
(73,256,o),
(73,177,cs),
(73,151,o),
(77,122,o),
(86,95,c),
(58,58,o),
(39,31,o),
(39,28,cs),
(39,26,ls),
(39,5,o),
(73,-22,o),
(84,4,cs)
);
},
{
closed = 1;
nodes = (
(167,52,o),
(152,64,o),
(141,81,c),
(173,122,o),
(214,174,o),
(250,221,c),
(252,210,o),
(252,200,o),
(252,192,cs),
(252,153,o),
(235,52,o),
(188,52,cs),
(186,52,ls)
);
},
{
closed = 1;
nodes = (
(117,154,o),
(116,168,o),
(116,180,cs),
(116,226,o),
(138,310,o),
(186,310,c),
(207,307,o),
(221,296,o),
(231,281,c),
(193,234,o),
(153,183,o),
(120,140,c)
);
}
);
width = 374;
}
);
unicode = 248;
},
{
glyphname = oe;
lastChange = "2026-04-28 12:49:43 +0000";
layers = (
{
layerId = m01;
shapes = (
{
closed = 1;
nodes = (
(157,1,o),
(184,14,o),
(209,43,c),
(258,3,o),
(312,-5,o),
(355,35,cs),
(369,48,o),
(374,104,o),
(327,70,c),
(262,42,o),
(241,63,o),
(216,131,c),
(271,117,o),
(322,112,o),
(356,176,cs),
(392,248,o),
(357,317,o),
(296,331,cs),
(256,340,o),
(227,320,o),
(201,287,c),
(190,309,o),
(174,347,o),
(138,350,cs),
(65,356,o),
(41,263,o),
(36,172,cs),
(30,73,o),
(76,4,o),
(132,2,cs)
);
},
{
closed = 1;
nodes = (
(110,35,o),
(86,89,o),
(79,128,cs),
(68,197,o),
(102,288,o),
(128,295,cs),
(171,307,o),
(179,233,o),
(172,171,c),
(176,108,o),
(183,101,o),
(189,78,c),
(147,51,l)
);
},
{
closed = 1;
nodes = (
(240,164,o),
(222,187,o),
(223,216,cs),
(224,252,o),
(254,291,o),
(281,291,cs),
(308,292,o),
(330,265,o),
(330,234,cs),
(329,198,o),
(298,164,o),
(265,164,cs)
);
}
);
width = 406;
}
);
unicode = 339;
},
{
glyphname = thorn;
lastChange = "2026-04-28 12:49:43 +0000";
layers = (
{
layerId = m01;
shapes = (
{
closed = 1;
nodes = (
(80,-173,o),
(125,-182,o),
(126,-137,cs),
(126,28,l),
(148,9,o),
(191,5,o),
(202,5,cs),
(280,6,o),
(307,102,o),
(311,176,cs),
(317,252,o),
(297,364,o),
(209,366,cs),
(170,368,o),
(151,351,o),
(124,333,c),
(124,353,o),
(131,565,o),
(127,571,c),
(118,593,o),
(95,594,o),
(84,570,c),
(79,562,o),
(80,79,o),
(80,-152,cs)
);
},
{
closed = 1;
nodes = (
(148,39,o),
(135,149,o),
(135,194,cs),
(135,253,o),
(143,327,o),
(200,321,cs),
(256,315,o),
(266,244,o),
(262,189,cs),
(260,136,o),
(251,69,o),
(200,55,cs)
);
}
);
width = 372;
}
);
unicode = 254;
},
{
glyphname = germandbls;
lastChange = "2026-04-28 12:49:43 +0000";
layers = (
{
layerId = m01;
shapes = (
{
closed = 1;
nodes = (
(286,6,o),
(337,19,o),
(344,100,cs),
(350,169,o),
(270,204,o),
(227,216,c),
(249,288,o),
(304,493,o),
(323,565,cs),
(344,644,o),
(244,704,o),
(183,701,cs),
(97,698,o),
(75,654,o),
(55,570,cs),
(44,525,o),
(40,459,o),
(40,403,cs),
(40,280,o),
(44,157,o),
(47,35,cs),
(47,-14,o),
(98,-15,o),
(96,35,cs),
(95,153,o),
(93,271,o),
(93,389,cs),
(93,429,o),
(97,507,o),
(102,546,cs),
(110,614,o),
(152,648,o),
(193,647,cs),
(239,645,o),
(284,599,o),
(271,553,cs),
(238,447,o),
(209,331,o),
(176,225,cs),
(163,182,o),
(168,164,o),
(212,163,cs),
(242,162,o),
(261,146,o),
(279,127,cs),
(300,104,o),
(295,77,o),
(265,66,cs),
(246,59,o),
(165,58,o),
(164,41,cs),
(165,11,o),
(186,-1,o),
(212,1,cs)
);
}
);
width = 394;
}
);
unicode = 223;
},
{
glyphname = ordfeminine;
lastChange = "2026-04-28 12:49:43 +0000";
layers = (
{
layerId = m01;
shapes = (
{
closed = 1;
nodes = (
(165,498,o),
(169,505,o),
(170,510,cs),
(171,514,o),
(169,519,o),
(169,524,cs),
(166,549,o),
(163,575,o),
(162,601,cs),
(161,626,o),
(159,651,o),
(143,673,cs),
(131,692,o),
(109,701,o),
(90,701,cs),
(77,701,o),
(65,697,o),
(54,688,cs),
(50,684,o),
(45,680,o),
(45,674,cs),
(45,673,o),
(46,661,o),
(48,659,cs),
(50,657,o),
(54,656,o),
(56,656,cs),
(60,656,o),
(65,657,o),
(68,660,c),
(76,663,o),
(83,666,o),
(90,666,cs),
(103,666,o),
(115,660,o),
(122,648,c),
(127,642,o),
(130,634,o),
(133,622,c),
(122,626,o),
(115,630,o),
(107,631,cs),
(102,631,o),
(99,632,o),
(95,632,cs),
(72,632,o),
(51,618,o),
(41,595,cs),
(38,586,o),
(35,575,o),
(35,565,cs),
(35,544,o),
(44,523,o),
(59,514,cs),
(66,509,o),
(75,506,o),
(84,506,cs),
(86,506,o),
(88,506,o),
(91,507,cs),
(106,511,o),
(122,521,o),
(138,528,c),
(140,521,o),
(141,512,o),
(145,505,cs),
(147,501,o),
(156,497,o),
(161,498,cs)
);
},
{
closed = 1;
nodes = (
(75,540,o),
(70,544,o),
(67,550,cs),
(64,555,o),
(63,561,o),
(63,567,cs),
(63,578,o),
(68,588,o),
(77,594,c),
(82,596,o),
(88,598,o),
(93,598,cs),
(99,598,o),
(105,594,o),
(112,589,cs),
(124,578,l),
(118,561,o),
(108,548,o),
(88,542,cs),
(86,541,o),
(83,540,o),
(80,540,cs)
);
}
);
width = 196;
}
);
unicode = 170;
},
{
glyphname = ellipsis;
lastChange = "2026-04-28 12:49:43 +0000";
layers = (
{
layerId = m01;
shapes = (
{
closed = 1;
nodes = (
(317,25,o),
(341,39,o),
(341,62,c),
(337,87,o),
(345,129,o),
(285,129,c),
(259,127,l),
(230,119,o),
(230,73,o),
(230,57,cs),
(231,39,o),
(248,25,o),
(277,25,cs)
);
},
{
closed = 1;
nodes = (
(147,23,o),
(171,37,o),
(171,60,c),
(167,85,o),
(175,127,o),
(115,127,cs),
(65,127,o),
(60,105,o),
(60,55,cs),
(61,37,o),
(78,23,o),
(107,23,cs)
);
},
{
closed = 1;
nodes = (
(493,25,o),
(517,39,o),
(516,69,c),
(513,87,o),
(521,129,o),
(461,129,cs),
(411,129,o),
(406,107,o),
(406,57,cs),
(407,39,o),
(424,25,o),
(445,25,cs)
);
}
);
width = 626;
}
);
unicode = 8230;
},
{
glyphname = periodcentered;
lastChange = "2026-04-28 12:49:43 +0000";
layers = (
{
layerId = m01;
shapes = (
{
closed = 1;
nodes = (
(147,287,ls),
(187,287,o),
(211,301,o),
(211,324,c),
(210,331,ls),
(207,349,o),
(215,391,o),
(155,391,cs),
(147,391,o),
(139,390,o),
(129,389,c),
(100,381,o),
(100,335,o),
(100,319,cs),
(101,301,o),
(118,287,o),
(139,287,cs)
);
}
);
width = 311;
}
);
unicode = 183;
},
{
glyphname = bullet;
lastChange = "2026-04-28 12:49:43 +0000";
layers = (
{
layerId = m01;
shapes = (
{
closed = 1;
nodes = (
(232,251,o),
(239,255,o),
(274,297,c),
(302,357,o),
(272,421,o),
(191,440,cs),
(113,458,o),
(94,391,o),
(101,336,cs),
(109,261,o),
(123,257,o),
(197,251,c)
);
}
);
width = 434;
}
);
unicode = 8226;
},
{
glyphname = backslash;
lastChange = "2026-04-28 12:49:43 +0000";
layers = (
{
layerId = m01;
shapes = (
{
closed = 1;
nodes = (
(307,9,o),
(311,15,o),
(311,28,cs),
(311,40,o),
(307,59,o),
(298,87,cs),
(234,282,o),
(180,478,o),
(120,673,cs),
(117,682,o),
(103,694,o),
(96,694,cs),
(95,694,ls),
(84,694,o),
(76,678,o),
(70,671,c),
(75,648,o),
(78,633,o),
(82,619,cs),
(137,433,o),
(198,246,o),
(254,60,cs),
(262,35,o),
(286,9,o),
(300,9,cs)
);
}
);
width = 381;
}
);
unicode = 92;
},
{
glyphname = periodcentered.loclCAT;
lastChange = "2026-04-28 12:49:43 +0000";
layers = (
{
layerId = m01;
shapes = (
{
closed = 1;
nodes = (
(147,287,ls),
(187,287,o),
(211,301,o),
(211,324,c),
(210,331,ls),
(207,349,o),
(215,391,o),
(155,391,cs),
(147,391,o),
(139,390,o),
(129,389,c),
(100,381,o),
(100,335,o),
(100,319,cs),
(101,301,o),
(118,287,o),
(139,287,cs)
);
}
);
width = 311;
}
);
},
{
glyphname = periodcentered.loclCAT.case;
lastChange = "2026-04-28 12:49:43 +0000";
layers = (
{
layerId = m01;
shapes = (
{
closed = 1;
nodes = (
(147,287,ls),
(187,287,o),
(211,301,o),
(211,324,c),
(210,331,ls),
(207,349,o),
(215,391,o),
(155,391,cs),
(147,391,o),
(139,390,o),
(129,389,c),
(100,381,o),
(100,335,o),
(100,319,cs),
(101,301,o),
(118,287,o),
(139,287,cs)
);
}
);
width = 311;
}
);
},
{
glyphname = endash;
lastChange = "2026-04-28 12:49:43 +0000";
layers = (
{
layerId = m01;
shapes = (
{
closed = 1;
nodes = (
(246,186,o),
(352,194,o),
(460,193,c),
(565,226,o),
(467,249,o),
(438,249,cs),
(361,250,ls),
(254,249,o),
(152,249,o),
(131,248,cs),
(70,244,o),
(79,190,o),
(140,190,cs)
);
}
);
width = 597;
}
);
unicode = 8211;
},
{
glyphname = emdash;
lastChange = "2026-04-28 12:49:43 +0000";
layers = (
{
layerId = m01;
shapes = (
{
closed = 1;
nodes = (
(305,186,o),
(448,194,o),
(593,193,cs),
(647,193,o),
(676,217,o),
(631,238,cs),
(616,245,o),
(587,249,o),
(460,250,cs),
(316,249,o),
(179,249,o),
(149,248,cs),
(69,244,o),
(68,190,o),
(162,190,cs)
);
}
);
width = 743;
}
);
unicode = 8212;
},
{
glyphname = guillemetleft;
lastChange = "2026-04-28 12:49:43 +0000";
layers = (
{
layerId = m01;
shapes = (
{
closed = 1;
nodes = (
(461,89,o),
(478,91,o),
(482,97,c),
(485,99,o),
(487,104,o),
(488,109,cs),
(489,116,o),
(488,123,o),
(486,129,cs),
(482,139,o),
(471,147,o),
(461,153,cs),
(429,174,o),
(395,194,o),
(362,215,c),
(361,218,o),
(359,222,o),
(357,226,c),
(370,232,o),
(384,238,o),
(398,246,cs),
(415,256,o),
(433,266,o),
(446,281,cs),
(449,284,o),
(450,289,o),
(451,295,cs),
(453,302,o),
(453,311,o),
(454,318,c),
(448,319,o),
(438,324,o),
(430,325,cs),
(426,326,o),
(423,326,o),
(421,324,c),
(383,299,o),
(345,272,o),
(310,243,cs),
(301,236,o),
(296,227,o),
(295,218,cs),
(292,205,o),
(299,190,o),
(314,179,cs),
(360,149,o),
(406,120,o),
(453,93,cs)
);
},
{
closed = 1;
nodes = (
(257,89,o),
(274,91,o),
(278,97,c),
(281,99,o),
(283,104,o),
(284,109,cs),
(285,116,o),
(284,123,o),
(282,129,cs),
(278,139,o),
(267,147,o),
(257,153,cs),
(225,174,o),
(191,194,o),
(158,215,c),
(157,218,o),
(155,222,o),
(153,226,c),
(166,232,o),
(180,238,o),
(194,246,cs),
(211,256,o),
(229,266,o),
(242,281,cs),
(245,284,o),
(246,289,o),
(247,295,cs),
(249,302,o),
(249,311,o),
(250,318,c),
(244,319,o),
(234,324,o),
(226,325,cs),
(222,326,o),
(219,326,o),
(217,324,c),
(179,299,o),
(141,272,o),
(106,243,cs),
(97,236,o),
(92,227,o),
(91,218,cs),
(88,205,o),
(95,190,o),
(110,179,cs),
(156,149,o),
(202,120,o),
(249,93,cs)
);
}
);
width = 588;
}
);
unicode = 171;
},
{
glyphname = guillemetright;
lastChange = "2026-04-28 12:49:43 +0000";
layers = (
{
layerId = m01;
shapes = (
{
closed = 1;
nodes = (
(386,120,o),
(432,149,o),
(478,179,cs),
(493,190,o),
(500,205,o),
(497,218,cs),
(496,227,o),
(491,236,o),
(482,243,cs),
(447,272,o),
(409,299,o),
(371,324,c),
(369,326,o),
(366,326,o),
(362,325,cs),
(354,324,o),
(344,319,o),
(338,318,c),
(339,311,o),
(339,302,o),
(341,295,cs),
(342,289,o),
(343,284,o),
(346,281,cs),
(359,266,o),
(377,256,o),
(394,246,cs),
(408,238,o),
(422,232,o),
(435,226,c),
(433,222,o),
(431,218,o),
(430,215,c),
(397,194,o),
(363,174,o),
(331,153,cs),
(321,147,o),
(310,139,o),
(306,129,cs),
(304,123,o),
(303,116,o),
(304,109,cs),
(305,104,o),
(307,99,o),
(310,97,c),
(314,91,o),
(331,89,o),
(339,93,cs)
);
},
{
closed = 1;
nodes = (
(182,120,o),
(228,149,o),
(274,179,cs),
(289,190,o),
(296,205,o),
(293,218,cs),
(292,227,o),
(287,236,o),
(278,243,cs),
(243,272,o),
(205,299,o),
(167,324,c),
(165,326,o),
(162,326,o),
(158,325,cs),
(150,324,o),
(140,319,o),
(134,318,c),
(135,311,o),
(135,302,o),
(137,295,cs),
(138,289,o),
(139,284,o),
(142,281,cs),
(155,266,o),
(173,256,o),
(190,246,cs),
(204,238,o),
(218,232,o),
(231,226,c),
(229,222,o),
(227,218,o),
(226,215,c),
(193,194,o),
(159,174,o),
(127,153,cs),
(117,147,o),
(106,139,o),
(102,129,cs),
(100,123,o),
(99,116,o),
(100,109,cs),
(101,104,o),
(103,99,o),
(106,97,c),
(110,91,o),
(127,89,o),
(135,93,cs)
);
}
);
width = 588;
}
);
unicode = 187;
},
{
glyphname = guilsinglleft;
lastChange = "2026-04-28 12:49:43 +0000";
layers = (
{
layerId = m01;
shapes = (
{
closed = 1;
nodes = (
(217,89,o),
(234,91,o),
(238,97,c),
(241,99,o),
(243,104,o),
(244,109,cs),
(245,116,o),
(244,123,o),
(242,129,cs),
(238,139,o),
(227,147,o),
(217,153,cs),
(185,174,o),
(151,194,o),
(118,215,c),
(117,218,o),
(115,222,o),
(113,226,c),
(126,232,o),
(140,238,o),
(154,246,cs),
(171,256,o),
(189,266,o),
(202,281,cs),
(205,284,o),
(206,289,o),
(207,295,cs),
(209,302,o),
(209,311,o),
(210,318,c),
(204,319,o),
(194,324,o),
(186,325,cs),
(182,326,o),
(179,326,o),
(177,324,c),
(139,299,o),
(101,272,o),
(66,243,cs),
(57,236,o),
(52,227,o),
(51,218,cs),
(48,205,o),
(55,190,o),
(70,179,cs),
(116,149,o),
(162,120,o),
(209,93,cs)
);
}
);
width = 334;
}
);
unicode = 8249;
},
{
glyphname = guilsinglright;
lastChange = "2026-04-28 12:49:43 +0000";
layers = (
{
layerId = m01;
shapes = (
{
closed = 1;
nodes = (
(126,131,o),
(129,131,o),
(130,133,c),
(170,155,o),
(208,181,o),
(247,203,cs),
(272,219,o),
(283,235,o),
(280,253,cs),
(278,265,o),
(269,277,o),
(252,291,cs),
(226,311,o),
(197,330,o),
(170,350,cs),
(160,358,o),
(148,366,o),
(137,364,cs),
(132,363,o),
(128,360,o),
(124,354,cs),
(118,346,o),
(116,339,o),
(117,332,cs),
(119,322,o),
(130,313,o),
(141,305,cs),
(224,253,l),
(197,239,o),
(181,231,o),
(167,221,cs),
(143,206,o),
(118,192,o),
(98,174,cs),
(89,166,o),
(92,147,o),
(90,132,c),
(100,132,o),
(113,129,o),
(124,131,cs)
);
}
);
width = 360;
}
);
unicode = 8250;
},
{
glyphname = quotedbl;
lastChange = "2026-04-28 12:49:43 +0000";
layers = (
{
hints = (
{
horizontal = 1;
place = (510.3, 229.31);
place = (510.3, 229.31);
type = Stem;
}
);
layerId = m01;
shapes = (
{
closed = 1;
nodes = (
(254,595,o),
(237,639,o),
(244,649,cs),
(249,657,o),
(288,642,o),
(288,704,c),
(274,724,o),
(259,732,o),
(244,732,cs),
(215,732,o),
(191,696,o),
(191,655,cs),
(191,600,o),
(254,531,o),
(254,571,cs)
);
},
{
closed = 1;
nodes = (
(135,575,o),
(99,631,o),
(105,644,cs),
(108,652,o),
(140,645,o),
(140,692,cs),
(140,696,o),
(140,701,o),
(139,706,c),
(124,721,o),
(110,728,o),
(97,728,cs),
(69,728,o),
(50,696,o),
(50,660,cs),
(50,621,o),
(72,576,o),
(128,557,c)
);
}
);
width = 318;
}
);
note = uni0022;
unicode = 34;
},
{
glyphname = paragraph;
lastChange = "2026-04-28 12:49:43 +0000";
layers = (
{
layerId = m01;
shapes = (
{
closed = 1;
nodes = (
(305,-16,o),
(338,-12,o),
(355,13,cs),
(360,19,o),
(364,533,o),
(368,668,c),
(375,668,ls),
(423,668,o),
(407,726,o),
(361,724,cs),
(262,719,ls),
(224,717,o),
(200,731,o),
(164,715,cs),
(159,713,o),
(155,711,o),
(152,708,c),
(103,684,o),
(55,621,o),
(55,507,cs),
(55,361,o),
(107,253,o),
(195,134,cs),
(210,114,o),
(195,35,o),
(199,14,cs),
(204,-11,o),
(241,-23,o),
(241,41,cs),
(245,211,o),
(257,584,o),
(254,667,c),
(273,667,o),
(291,668,o),
(310,668,c),
(318,534,o),
(305,99,o),
(305,11,cs)
);
},
{
closed = 1;
nodes = (
(140,273,o),
(120,357,o),
(106,469,cs),
(98,532,o),
(108,638,o),
(183,668,c),
(198,668,l),
(200,195,l)
);
}
);
width = 459;
}
);
unicode = 182;
},
{
glyphname = section;
lastChange = "2026-04-28 12:49:43 +0000";
layers = (
{
layerId = m01;
shapes = (
{
closed = 1;
nodes = (
(218,59,o),
(164,178,o),
(149,228,c),
(211,209,o),
(264,258,o),
(242,340,cs),
(223,410,o),
(202,480,o),
(183,549,cs),
(172,590,o),
(172,631,o),
(204,663,c),
(225,681,o),
(231,715,o),
(212,715,cs),
(172,713,o),
(132,674,o),
(127,625,cs),
(125,594,o),
(130,562,o),
(137,531,cs),
(140,514,o),
(139,502,o),
(123,492,cs),
(76,461,o),
(52,416,o),
(64,361,cs),
(74,302,o),
(124,152,o),
(140,95,cs),
(148,63,o),
(129,45,o),
(100,52,c),
(40,75,o),
(49,35,o),
(76,15,cs),
(99,0,o),
(123,0,o),
(147,14,cs)
);
},
{
closed = 1;
nodes = (
(139,273,o),
(130,286,o),
(125,308,cs),
(117,340,o),
(106,373,o),
(119,406,cs),
(126,424,o),
(140,441,o),
(151,457,c),
(155,456,o),
(191,359,o),
(203,310,cs),
(211,283,o),
(191,267,o),
(163,270,cs)
);
}
);
width = 302;
}
);
unicode = 167;
},
{
glyphname = trademark;
lastChange = "2026-04-28 12:49:43 +0000";
layers = (
{
anchors = (
{
name = bottom;
pos = (114,0);
},
{
name = center;
pos = (114,167);
},
{
name = top;
pos = (114,339);
}
);
hints = (
{
horizontal = 1;
place = (320.372, 17.985);
place = (320.372, 17.985);
type = Stem;
},
{
place = (50.345, 17.238);
place = (50.345, 17.238);
type = Stem;
},
{
place = (58.957, 18.714);
place = (58.957, 18.714);
type = Stem;
},
{
place = (118.559, 13.676);
place = (118.559, 13.676);
type = Stem;
}
);
layerId = m01;
shapes = (
{
closed = 1;
nodes = (
(467,379,o),
(470,390,o),
(470,401,c),
(461,493,o),
(452,585,o),
(441,676,cs),
(440,684,o),
(435,699,o),
(422,699,cs),
(409,699,o),
(399,689,o),
(395,680,cs),
(373,635,o),
(354,588,o),
(334,541,cs),
(328,527,o),
(325,507,o),
(320,493,c),
(315,498,o),
(301,589,o),
(294,628,cs),
(291,649,o),
(287,669,o),
(281,689,cs),
(279,694,o),
(269,702,o),
(261,702,cs),
(260,702,ls),
(255,702,o),
(245,694,o),
(241,689,cs),
(227,671,o),
(184,496,o),
(173,413,cs),
(172,401,o),
(164,392,o),
(184,386,cs),
(213,378,o),
(212,408,o),
(215,418,cs),
(228,476,o),
(249,606,o),
(255,614,c),
(263,608,o),
(285,485,o),
(297,439,c),
(305,417,o),
(330,420,o),
(336,438,cs),
(346,471,o),
(394,592,o),
(412,625,c),
(418,611,o),
(426,463,o),
(433,403,c),
(433,396,o),
(433,385,o),
(444,383,cs)
);
},
{
closed = 1;
nodes = (
(139,489,o),
(128,580,o),
(128,662,cs),
(128,678,o),
(130,681,o),
(154,681,c),
(202,691,o),
(167,712,o),
(116,712,cs),
(33,712,o),
(34,681,o),
(90,678,c),
(92,668,o),
(92,668,o),
(92,656,cs),
(96,574,o),
(98,483,o),
(101,400,cs),
(101,377,o),
(139,374,o),
(139,393,cs)
);
}
);
width = 520;
}
);
unicode = 8482;
},
{
glyphname = yen;
lastChange = "2026-04-28 12:49:43 +0000";
layers = (
{
layerId = m01;
shapes = (
{
closed = 1;
nodes = (
(217,-12,o),
(246,-6,o),
(246,13,cs),
(246,25,o),
(252,40,o),
(255,50,c),
(269,50,o),
(282,48,o),
(293,51,cs),
(323,61,o),
(322,85,o),
(293,98,c),
(281,102,o),
(267,100,o),
(253,100,c),
(246,128,o),
(256,137,o),
(282,134,cs),
(296,133,o),
(310,131,o),
(322,134,c),
(359,149,o),
(350,177,o),
(322,180,cs),
(306,183,o),
(287,181,o),
(267,181,c),
(308,365,o),
(309,361,o),
(378,651,cs),
(395,717,o),
(352,736,o),
(332,658,cs),
(317,599,o),
(249,309,o),
(230,228,c),
(227,228,o),
(114,587,o),
(77,701,c),
(62,739,o),
(26,716,o),
(37,681,c),
(114,383,o),
(93,475,o),
(186,182,c),
(169,181,o),
(156,181,o),
(144,179,cs),
(105,173,o),
(109,130,o),
(148,133,c),
(199,133,l),
(201,120,o),
(204,111,o),
(206,99,c),
(189,99,o),
(174,101,o),
(160,98,cs),
(126,91,o),
(131,60,o),
(157,54,cs),
(174,49,o),
(191,51,o),
(202,50,c),
(211,39,o),
(206,25,o),
(210,12,cs)
);
}
);
width = 417;
}
);
unicode = 165;
},
{
glyphname = minus;
lastChange = "2026-04-28 12:49:43 +0000";
layers = (
{
layerId = m01;
shapes = (
{
closed = 1;
nodes = (
(353,149,o),
(337,207,o),
(291,205,cs),
(192,200,ls),
(154,198,o),
(132,201,o),
(94,198,cs),
(65,195,o),
(57,150,o),
(100,150,cs),
(168,146,o),
(236,150,o),
(305,149,cs)
);
}
);
width = 414;
}
);
unicode = 8722;
},
{
glyphname = multiply;
lastChange = "2026-04-28 12:49:43 +0000";
layers = (
{
layerId = m01;
shapes = (
{
closed = 1;
nodes = (
(381,37,o),
(395,90,o),
(355,114,cs),
(323,135,o),
(253,175,o),
(251,179,c),
(273,189,o),
(341,226,o),
(345,248,cs),
(352,274,o),
(328,290,o),
(315,277,c),
(280,254,o),
(245,230,o),
(213,203,c),
(194,222,o),
(141,256,o),
(120,272,cs),
(87,299,o),
(63,279,o),
(67,254,cs),
(69,244,o),
(80,235,o),
(174,175,c),
(142,158,o),
(75,128,o),
(48,104,cs),
(7,66,o),
(64,50,o),
(80,63,cs),
(115,92,o),
(204,130,o),
(208,132,c),
(254,110,o),
(300,81,o),
(347,54,cs)
);
}
);
width = 414;
}
);
unicode = 215;
},
{
glyphname = divide;
lastChange = "2026-04-28 12:49:43 +0000";
layers = (
{
layerId = m01;
shapes = (
{
closed = 1;
nodes = (
(363,143,o),
(377,176,o),
(351,198,cs),
(342,205,o),
(325,199,o),
(251,200,cs),
(189,200,ls),
(165,200,o),
(86,199,o),
(69,198,cs),
(34,195,o),
(21,150,o),
(76,150,cs),
(160,146,o),
(244,144,o),
(329,143,cs)
);
},
{
closed = 1;
nodes = (
(260,9,o),
(251,35,o),
(251,54,cs),
(251,114,o),
(167,112,o),
(167,49,cs),
(167,48,ls),
(167,23,o),
(183,8,o),
(203,0,c)
);
},
{
closed = 1;
nodes = (
(219,235,o),
(269,265,o),
(237,325,cs),
(223,354,o),
(157,338,o),
(157,295,cs),
(157,294,ls),
(157,284,o),
(153,265,o),
(172,251,c)
);
}
);
width = 414;
}
);
unicode = 247;
},
{
glyphname = dieresiscomb;
lastChange = "2026-04-28 12:49:43 +0000";
layers = (
{
anchors = (
{
name = _top;
pos = (112,561);
},
{
name = top;
pos = (109,675);
}
);
layerId = m01;
shapes = (
{
closed = 1;
nodes = (
(82,606,o),
(102,625,o),
(102,647,cs),
(102,669,o),
(80,694,o),
(61,694,cs),
(60,694,ls),
(38,694,o),
(20,671,o),
(20,648,cs),
(20,626,o),
(39,606,o),
(59,606,cs)
);
},
{
closed = 1;
nodes = (
(212,598,o),
(227,615,o),
(227,638,cs),
(226,663,o),
(208,683,o),
(188,683,cs),
(168,682,o),
(152,664,o),
(152,641,cs),
(152,617,o),
(170,597,o),
(191,597,cs)
);
}
);
width = 247;
}
);
unicode = 776;
},
{
glyphname = dotaccentcomb;
lastChange = "2026-04-28 12:49:43 +0000";
layers = (
{
anchors = (
{
name = _top;
pos = (66,571);
},
{
name = top;
pos = (66,695);
}
);
layerId = m01;
shapes = (
{
closed = 1;
nodes = (
(91,611,o),
(110,623,o),
(110,647,cs),
(110,662,o),
(114,696,o),
(65,696,cs),
(11,696,o),
(8,611,o),
(52,611,cs)
);
}
);
width = 130;
}
);
unicode = 775;
},
{
glyphname = gravecomb;
lastChange = "2026-04-28 12:49:43 +0000";
layers = (
{
anchors = (
{
name = _top;
pos = (96,596);
},
{
name = top;
pos = (85,715);
}
);
layerId = m01;
shapes = (
{
closed = 1;
nodes = (
(124,610,o),
(150,627,o),
(150,637,cs),
(150,679,o),
(92,715,o),
(52,715,cs),
(40,715,o),
(29,712,o),
(20,704,c),
(54,665,o),
(92,657,o),
(120,616,cs)
);
}
);
width = 170;
}
);
unicode = 768;
},
{
glyphname = acutecomb;
lastChange = "2026-04-28 12:49:43 +0000";
layers = (
{
anchors = (
{
name = _top;
pos = (76,578);
},
{
name = top;
pos = (82,714);
}
);
layerId = m01;
shapes = (
{
closed = 1;
nodes = (
(49,618,o),
(90,651,o),
(93,652,cs),
(132,669,o),
(170,714,o),
(122,714,cs),
(83,714,o),
(30,675,o),
(20,631,cs),
(18,623,o),
(38,618,o),
(45,618,cs)
);
}
);
width = 164;
}
);
unicode = 769;
},
{
glyphname = hungarumlautcomb;
lastChange = "2026-04-28 12:49:43 +0000";
layers = (
{
anchors = (
{
name = _top;
pos = (132,600);
},
{
name = top;
pos = (152,714);
}
);
layerId = m01;
shapes = (
{
closed = 1;
nodes = (
(214,628,o),
(329,714,o),
(262,714,cs),
(223,714,o),
(170,675,o),
(160,631,c),
(168,630,o),
(178,628,o),
(185,628,cs)
);
},
{
closed = 1;
nodes = (
(74,628,o),
(189,714,o),
(122,714,cs),
(83,714,o),
(30,675,o),
(20,631,c),
(28,630,o),
(38,628,o),
(45,628,cs)
);
}
);
width = 304;
}
);
unicode = 779;
},
{
glyphname = caroncomb.alt;
lastChange = "2026-04-28 12:49:43 +0000";
layers = (
{
anchors = (
{
name = _topright;
pos = (80,720);
}
);
layerId = m01;
shapes = (
{
closed = 1;
nodes = (
(92,595,o),
(101,658,o),
(92,692,cs),
(87,707,o),
(75,721,o),
(61,732,c),
(47,735,o),
(31,727,o),
(20,715,cs),
(13,708,o),
(16,673,o),
(18,665,cs),
(21,655,o),
(43,658,o),
(46,649,cs),
(50,635,o),
(8,584,o),
(12,565,c)
);
}
);
width = 101;
}
);
},
{
glyphname = circumflexcomb;
lastChange = "2026-04-28 12:49:43 +0000";
layers = (
{
anchors = (
{
name = _top;
pos = (110,593);
},
{
name = top;
pos = (118,732);
}
);
layerId = m01;
shapes = (
{
closed = 1;
nodes = (
(215,643,o),
(144,727,o),
(116,732,c),
(82,732,o),
(20,677,o),
(20,640,cs),
(20,593,o),
(78,675,o),
(112,675,c),
(157,651,o),
(166,598,o),
(215,612,c)
);
}
);
width = 235;
}
);
unicode = 770;
},
{
glyphname = caroncomb;
lastChange = "2026-04-28 12:49:43 +0000";
layers = (
{
anchors = (
{
name = _top;
pos = (118,572);
},
{
name = top;
pos = (118,729);
}
);
layerId = m01;
shapes = (
{
closed = 1;
nodes = (
(159,614,o),
(246,729,o),
(203,729,cs),
(158,729,o),
(145,680,o),
(112,663,c),
(83,663,o),
(71,706,o),
(43,706,cs),
(-16,706,o),
(74,606,o),
(116,606,c)
);
}
);
width = 235;
}
);
unicode = 780;
},
{
glyphname = brevecomb;
lastChange = "2026-04-28 12:49:43 +0000";
layers = (
{
anchors = (
{
name = _top;
pos = (127,584);
},
{
name = top;
pos = (127,723);
}
);
layerId = m01;
shapes = (
{
closed = 1;
nodes = (
(165,620,o),
(221,656,o),
(233,690,cs),
(241,711,o),
(219,727,o),
(201,714,cs),
(175,694,o),
(168,666,o),
(128,665,cs),
(105,665,o),
(82,679,o),
(63,703,cs),
(32,746,o),
(13,700,o),
(29,679,cs),
(53,645,o),
(87,627,o),
(124,621,c)
);
}
);
width = 254;
}
);
unicode = 774;
},
{
glyphname = ringcomb;
lastChange = "2026-04-28 12:49:43 +0000";
layers = (
{
anchors = (
{
name = _top;
pos = (107,512);
},
{
name = top;
pos = (107,716);
}
);
layerId = m01;
shapes = (
{
closed = 1;
nodes = (
(149,560,o),
(185,580,o),
(185,628,cs),
(185,684,o),
(137,716,o),
(96,716,cs),
(51,716,o),
(20,676,o),
(20,631,cs),
(20,569,o),
(77,560,o),
(119,560,cs)
);
},
{
closed = 1;
nodes = (
(88,603,o),
(59,601,o),
(59,638,cs),
(59,663,o),
(87,669,o),
(102,669,cs),
(116,669,o),
(149,665,o),
(149,634,cs),
(149,611,o),
(119,603,o),
(105,603,cs)
);
}
);
width = 205;
}
);
unicode = 778;
},
{
glyphname = tildecomb;
lastChange = "2026-04-28 12:49:43 +0000";
layers = (
{
anchors = (
{
name = _top;
pos = (134,619);
},
{
name = top;
pos = (134,724);
}
);
layerId = m01;
shapes = (
{
closed = 1;
nodes = (
(62,665,o),
(73,675,o),
(87,675,cs),
(117,675,o),
(142,646,o),
(172,646,cs),
(200,646,o),
(248,680,o),
(248,703,cs),
(248,728,o),
(222,726,o),
(209,715,cs),
(198,706,o),
(186,697,o),
(172,687,c),
(155,695,o),
(100,717,o),
(87,717,cs),
(61,717,o),
(36,706,o),
(24,686,cs),
(22,682,o),
(4,657,o),
(45,645,c)
);
}
);
width = 268;
}
);
unicode = 771;
},
{
glyphname = macroncomb;
lastChange = "2026-04-28 12:49:43 +0000";
layers = (
{
anchors = (
{
name = _top;
pos = (154,601);
},
{
name = top;
pos = (154,700);
}
);
layerId = m01;
shapes = (
{
closed = 1;
nodes = (
(306,643,o),
(293,699,o),
(245,699,cs),
(127,699,o),
(62,699,o),
(48,698,cs),
(19,695,o),
(5,650,o),
(54,650,cs),
(122,646,o),
(190,644,o),
(259,643,cs)
);
}
);
width = 308;
}
);
unicode = 772;
},
{
glyphname = commaturnedabovecomb;
lastChange = "2026-04-28 12:49:43 +0000";
layers = (
{
anchors = (
{
name = _top;
pos = (71,530);
},
{
name = top;
pos = (71,759);
}
);
layerId = m01;
shapes = (
{
closed = 1;
nodes = (
(102,563,o),
(116,609,o),
(100,641,cs),
(96,651,o),
(74,645,o),
(71,654,cs),
(65,667,o),
(101,723,o),
(94,741,c),
(58,722,l),
(16,670,o),
(8,603,o),
(66,570,c)
);
}
);
width = 142;
}
);
unicode = 786;
},
{
glyphname = commaaccentcomb;
lastChange = "2026-04-28 12:49:43 +0000";
layers = (
{
anchors = (
{
name = _bottom;
pos = (112,83);
},
{
name = bottom;
pos = (111,-125);
}
);
layerId = m01;
shapes = (
{
closed = 1;
nodes = (
(150,-95,o),
(159,-32,o),
(150,2,cs),
(145,17,o),
(133,31,o),
(119,42,c),
(105,45,o),
(89,37,o),
(78,25,cs),
(71,18,o),
(74,-17,o),
(76,-25,cs),
(79,-35,o),
(101,-32,o),
(104,-41,cs),
(108,-55,o),
(66,-106,o),
(70,-125,c)
);
}
);
width = 186;
}
);
unicode = 806;
},
{
glyphname = cedillacomb;
lastChange = "2026-04-28 12:49:43 +0000";
layers = (
{
anchors = (
{
name = _bottom;
pos = (61,41);
},
{
name = bottom;
pos = (80,-96);
}
);
layerId = m01;
shapes = (
{
closed = 1;
nodes = (
(72,-107,o),
(111,-101,o),
(124,-58,cs),
(131,-34,o),
(111,10,o),
(84,10,cs),
(74,10,o),
(82,35,o),
(82,41,c),
(90,73,o),
(35,89,o),
(35,40,c),
(36,30,o),
(39,-6,o),
(51,-10,cs),
(79,-20,o),
(90,-33,o),
(79,-55,c),
(40,-3,o),
(18,-57,o),
(38,-76,cs)
);
}
);
width = 159;
}
);
unicode = 807;
},
{
glyphname = ogonekcomb;
lastChange = "2026-04-28 12:49:43 +0000";
layers = (
{
anchors = (
{
name = _ogonek;
pos = (72,84);
}
);
layerId = m01;
shapes = (
{
closed = 1;
nodes = (
(107,-42,o),
(129,-30,o),
(144,-8,cs),
(157,11,o),
(145,31,o),
(116,21,cs),
(108,18,o),
(98,0,o),
(67,4,c),
(67,30,o),
(70,41,o),
(84,61,cs),
(112,95,o),
(68,115,o),
(50,86,cs),
(40,70,o),
(31,52,o),
(25,34,cs),
(9,-11,o),
(32,-41,o),
(81,-41,cs)
);
}
);
width = 167;
}
);
unicode = 808;
},
